<svg width="400" height="150" viewBox="0 0 400 150" fill="none" xmlns="http://www.w3.org/2000/svg">
<path d="M0 150H319.471L400 4.47035e-06H0V150Z" fill="black"/>
<path d="M0 150H319.471L400 4.47035e-06H0V150Z" fill="black"/>
<path d="M34.282 27.944V36.628C34.8193 36.576 35.2873 36.3767 35.686 36.03C36.102 35.666 36.4487 35.2153 36.726 34.678C37.0207 34.1407 37.2373 33.5513 37.376 32.91C37.532 32.2513 37.61 31.5927 37.61 30.934C37.61 30.518 37.558 30.0673 37.454 29.582C37.3673 29.0793 37.168 28.62 36.856 28.204C36.5613 27.7707 36.1193 27.4153 35.53 27.138C34.958 26.8433 34.1867 26.696 33.216 26.696C32.436 26.696 31.7253 26.8 31.084 27.008C30.4427 27.216 29.888 27.5367 29.42 27.97C28.952 28.386 28.588 28.932 28.328 29.608C28.068 30.2667 27.938 31.0467 27.938 31.948C27.938 32.416 27.964 32.806 28.016 33.118C28.0853 33.4127 28.1633 33.664 28.25 33.872C28.354 34.08 28.458 34.2533 28.562 34.392C28.666 34.5307 28.7613 34.6607 28.848 34.782C27.808 34.782 26.9847 34.5393 26.378 34.054C25.7713 33.5687 25.468 32.806 25.468 31.766C25.468 30.882 25.676 30.0587 26.092 29.296C26.5253 28.5333 27.106 27.8747 27.834 27.32C28.5793 26.748 29.4373 26.306 30.408 25.994C31.396 25.6647 32.436 25.5 33.528 25.5C34.5853 25.5 35.5473 25.6387 36.414 25.916C37.2807 26.1933 38.026 26.592 38.65 27.112C39.274 27.6147 39.7507 28.23 40.08 28.958C40.4267 29.6687 40.6 30.466 40.6 31.35C40.6 32.0607 40.47 32.7887 40.21 33.534C39.95 34.2793 39.56 34.9553 39.04 35.562C38.52 36.1513 37.87 36.6367 37.09 37.018C36.3273 37.3993 35.4347 37.59 34.412 37.59H34.282V45H30.538V28.464L34.282 27.944ZM51.8383 32V40.84C51.8383 41.568 51.9336 42.0533 52.1243 42.296C52.3323 42.5213 52.6876 42.634 53.1903 42.634C53.693 42.634 54.109 42.4173 54.4383 41.984C54.785 41.5507 54.9843 41.0047 55.0363 40.346H56.1283C55.9896 41.4033 55.747 42.2527 55.4003 42.894C55.0536 43.518 54.6636 44.0033 54.2303 44.35C53.797 44.6793 53.355 44.896 52.9043 45C52.4536 45.104 52.055 45.156 51.7083 45.156C50.7896 45.156 50.0876 44.948 49.6023 44.532C49.1343 44.0987 48.805 43.5093 48.6143 42.764C48.4756 43.0587 48.311 43.3533 48.1203 43.648C47.9296 43.9253 47.6956 44.1767 47.4183 44.402C47.1583 44.6273 46.8463 44.8093 46.4823 44.948C46.1356 45.0867 45.7283 45.156 45.2603 45.156C44.7056 45.156 44.1596 45.052 43.6223 44.844C43.085 44.636 42.591 44.298 42.1403 43.83C41.707 43.362 41.3516 42.7467 41.0743 41.984C40.8143 41.204 40.6843 40.2507 40.6843 39.124C40.6843 38.3267 40.771 37.5033 40.9443 36.654C41.135 35.8047 41.421 35.0247 41.8023 34.314C42.201 33.6033 42.7123 33.0227 43.3363 32.572C43.9776 32.104 44.749 31.87 45.6503 31.87C45.8583 31.87 46.0836 31.8873 46.3263 31.922C46.569 31.9393 46.803 32 47.0283 32.104C47.2536 32.1907 47.4616 32.3293 47.6523 32.52C47.843 32.6933 47.9903 32.936 48.0943 33.248V32H51.8383ZM48.0943 34.496C48.077 34.4267 48.0423 34.34 47.9903 34.236C47.9383 34.1147 47.8603 34.002 47.7563 33.898C47.6523 33.7767 47.5223 33.6813 47.3663 33.612C47.2103 33.5253 47.0283 33.482 46.8203 33.482C46.4043 33.482 46.0403 33.664 45.7283 34.028C45.4336 34.3747 45.191 34.8167 45.0003 35.354C44.827 35.874 44.697 36.4547 44.6103 37.096C44.5236 37.72 44.4803 38.318 44.4803 38.89C44.4803 39.8087 44.5496 40.528 44.6883 41.048C44.827 41.5507 44.9916 41.9233 45.1823 42.166C45.3903 42.3913 45.607 42.53 45.8323 42.582C46.0576 42.6167 46.2483 42.634 46.4043 42.634C46.595 42.634 46.7856 42.5907 46.9763 42.504C47.1843 42.4 47.3663 42.2527 47.5223 42.062C47.6956 41.8713 47.8343 41.6373 47.9383 41.36C48.0423 41.0653 48.0943 40.7273 48.0943 40.346V34.496ZM58.5558 32V33.612C58.9372 33.1613 59.3618 32.7627 59.8298 32.416C60.2978 32.052 60.8092 31.87 61.3638 31.87C61.6932 31.87 61.9878 31.9393 62.2478 32.078C62.5252 32.2167 62.7592 32.3987 62.9498 32.624C63.1578 32.8493 63.3138 33.1007 63.4178 33.378C63.5392 33.638 63.5998 33.9067 63.5998 34.184C63.5998 34.5653 63.4785 34.9207 63.2358 35.25C63.0105 35.562 62.6292 35.718 62.0918 35.718C61.6932 35.718 61.4158 35.6313 61.2598 35.458C61.1038 35.2847 60.9825 35.1027 60.8958 34.912C60.8092 34.704 60.7138 34.5133 60.6098 34.34C60.5232 34.1667 60.3585 34.08 60.1158 34.08C59.8558 34.08 59.5958 34.184 59.3358 34.392C59.0932 34.5827 58.8332 34.8253 58.5558 35.12V45H54.8118V32H58.5558ZM68.3312 27.892V32H69.9172V33.04H68.3312V40.84C68.3312 41.568 68.4266 42.0533 68.6172 42.296C68.8252 42.5213 69.1806 42.634 69.6832 42.634C70.1859 42.634 70.6019 42.4173 70.9312 41.984C71.2779 41.5507 71.4772 41.0047 71.5292 40.346H72.6212C72.4826 41.4033 72.2399 42.2527 71.8932 42.894C71.5466 43.518 71.1566 44.0033 70.7232 44.35C70.2899 44.6793 69.8479 44.896 69.3972 45C68.9466 45.104 68.5479 45.156 68.2012 45.156C66.8666 45.156 65.9306 44.792 65.3932 44.064C64.8559 43.3187 64.5872 42.3393 64.5872 41.126V33.04H63.7552V32H64.5872V28.412L68.3312 27.892ZM78.1489 37.148C78.1489 36.108 78.0275 35.3713 77.7849 34.938C77.5595 34.4873 77.2302 34.262 76.7969 34.262C76.5369 34.262 76.3115 34.3313 76.1209 34.47C75.9475 34.6087 75.8002 34.7907 75.6789 35.016C75.5575 35.2413 75.4622 35.5013 75.3929 35.796C75.3235 36.0733 75.2802 36.3593 75.2629 36.654V45H71.5189V32H75.2629V33.352C75.6615 32.7453 76.1122 32.3553 76.6149 32.182C77.1175 31.9913 77.5942 31.896 78.0449 31.896C78.5302 31.896 78.9895 31.974 79.4229 32.13C79.8735 32.286 80.2635 32.5547 80.5929 32.936C80.9395 33.3 81.2082 33.794 81.3989 34.418C81.5895 35.0247 81.6849 35.7787 81.6849 36.68C81.6849 36.9053 81.6762 37.1913 81.6589 37.538C81.6589 37.8673 81.6502 38.2053 81.6329 38.552C81.6155 38.8987 81.5982 39.2367 81.5809 39.566C81.5809 39.8953 81.5809 40.1727 81.5809 40.398C81.5809 41.1433 81.6589 41.7067 81.8149 42.088C81.9709 42.452 82.3175 42.634 82.8549 42.634C83.4442 42.634 83.8515 42.4173 84.0769 41.984C84.3195 41.5507 84.5102 41.0047 84.6489 40.346H85.7409C85.6022 41.386 85.3942 42.2267 85.1169 42.868C84.8395 43.492 84.5275 43.9773 84.1809 44.324C83.8342 44.6533 83.4615 44.8787 83.0629 45C82.6642 45.104 82.2742 45.156 81.8929 45.156C80.5582 45.156 79.5875 44.714 78.9809 43.83C78.3915 42.946 78.0969 41.7673 78.0969 40.294C78.0969 40.138 78.0969 39.9213 78.0969 39.644C78.1142 39.3493 78.1229 39.046 78.1229 38.734C78.1229 38.422 78.1229 38.1273 78.1229 37.85C78.1402 37.5553 78.1489 37.3213 78.1489 37.148ZM90.5738 42.972C91.0938 42.972 91.5532 42.9027 91.9518 42.764C92.3505 42.6253 92.7058 42.4433 93.0178 42.218C93.3298 41.9753 93.6158 41.698 93.8758 41.386C94.1358 41.0567 94.3872 40.71 94.6298 40.346H95.5138C95.2712 40.9527 94.9765 41.542 94.6298 42.114C94.3005 42.686 93.8845 43.1973 93.3818 43.648C92.8965 44.0987 92.3245 44.4627 91.6658 44.74C91.0072 45.0173 90.2358 45.156 89.3518 45.156C88.6065 45.156 87.9218 45.0433 87.2978 44.818C86.6738 44.5927 86.1278 44.246 85.6598 43.778C85.2092 43.2927 84.8538 42.6773 84.5938 41.932C84.3512 41.1693 84.2298 40.2593 84.2298 39.202C84.2298 38.4567 84.3078 37.6593 84.4638 36.81C84.6372 35.9433 84.9318 35.146 85.3478 34.418C85.7638 33.69 86.3272 33.0833 87.0378 32.598C87.7485 32.1127 88.6498 31.87 89.7418 31.87C90.5738 31.87 91.2152 32 91.6658 32.26C92.1165 32.52 92.4458 32.8233 92.6538 33.17C92.8792 33.5167 93.0092 33.8547 93.0438 34.184C93.0958 34.5133 93.1218 34.7473 93.1218 34.886C93.1218 35.666 92.9745 36.3507 92.6798 36.94C92.4025 37.5293 92.0212 38.032 91.5358 38.448C91.0678 38.8467 90.5218 39.1587 89.8978 39.384C89.2912 39.592 88.6672 39.7133 88.0258 39.748C88.0432 40.9093 88.2338 41.7413 88.5978 42.244C88.9792 42.7293 89.6378 42.972 90.5738 42.972ZM91.1198 34.912C91.1198 34.3053 91.0158 33.8807 90.8078 33.638C90.5998 33.378 90.3745 33.248 90.1318 33.248C89.8372 33.248 89.5685 33.3953 89.3258 33.69C89.0832 33.9673 88.8665 34.3487 88.6758 34.834C88.5025 35.302 88.3552 35.8567 88.2338 36.498C88.1298 37.1393 88.0605 37.8067 88.0258 38.5C88.4592 38.4653 88.8665 38.3527 89.2478 38.162C89.6292 37.954 89.9585 37.694 90.2358 37.382C90.5132 37.0527 90.7298 36.68 90.8858 36.264C91.0418 35.848 91.1198 35.3973 91.1198 34.912ZM98.3683 32V33.612C98.7497 33.1613 99.1743 32.7627 99.6423 32.416C100.11 32.052 100.622 31.87 101.176 31.87C101.506 31.87 101.8 31.9393 102.06 32.078C102.338 32.2167 102.572 32.3987 102.762 32.624C102.97 32.8493 103.126 33.1007 103.23 33.378C103.352 33.638 103.412 33.9067 103.412 34.184C103.412 34.5653 103.291 34.9207 103.048 35.25C102.823 35.562 102.442 35.718 101.904 35.718C101.506 35.718 101.228 35.6313 101.072 35.458C100.916 35.2847 100.795 35.1027 100.708 34.912C100.622 34.704 100.526 34.5133 100.422 34.34C100.336 34.1667 100.171 34.08 99.9283 34.08C99.6683 34.08 99.4083 34.184 99.1483 34.392C98.9057 34.5827 98.6457 34.8253 98.3683 35.12V45H94.6243V32H98.3683ZM110.484 31.194C110.917 32.8753 111.281 34.2447 111.576 35.302C111.87 36.342 112.104 37.2173 112.278 37.928C112.451 38.6213 112.572 39.228 112.642 39.748C112.711 40.268 112.746 40.8487 112.746 41.49C112.746 42.166 112.607 42.738 112.33 43.206C112.052 43.674 111.697 44.0553 111.264 44.35C110.848 44.6273 110.38 44.8353 109.86 44.974C109.34 45.0953 108.846 45.156 108.378 45.156C107.615 45.156 106.948 45.0347 106.376 44.792C105.804 44.5493 105.327 44.246 104.946 43.882C104.564 43.5007 104.278 43.0847 104.088 42.634C103.897 42.166 103.802 41.724 103.802 41.308C103.802 40.84 103.888 40.4413 104.062 40.112C104.252 39.7827 104.486 39.5487 104.764 39.41C105.266 38.11 105.682 36.8273 106.012 35.562C106.358 34.2793 106.601 32.9967 106.74 31.714L110.484 31.194ZM106.818 40.58C106.818 40.84 106.74 41.0827 106.584 41.308C106.428 41.516 106.202 41.62 105.908 41.62C105.769 41.62 105.622 41.6027 105.466 41.568C105.327 41.516 105.214 41.4207 105.128 41.282C105.266 41.8887 105.483 42.348 105.778 42.66C106.09 42.9547 106.532 43.102 107.104 43.102C107.606 43.102 108.04 42.972 108.404 42.712C108.768 42.4347 108.95 41.958 108.95 41.282C108.95 40.814 108.924 40.398 108.872 40.034C108.82 39.6527 108.733 39.228 108.612 38.76C108.508 38.292 108.36 37.7373 108.17 37.096C107.996 36.4547 107.78 35.6487 107.52 34.678C107.346 35.51 107.13 36.316 106.87 37.096C106.627 37.8587 106.367 38.656 106.09 39.488C106.28 39.5747 106.445 39.7133 106.584 39.904C106.74 40.0773 106.818 40.3027 106.818 40.58Z" fill="#01579B"/>
<path d="M31.12 102.192V108.312C31.648 108.312 32.098 108.204 32.47 107.988C32.854 107.76 33.166 107.472 33.406 107.124C33.646 106.776 33.82 106.386 33.928 105.954C34.048 105.51 34.108 105.072 34.108 104.64C34.108 104.256 34.066 103.86 33.982 103.452C33.91 103.044 33.748 102.672 33.496 102.336C33.244 101.988 32.884 101.706 32.416 101.49C31.948 101.262 31.324 101.148 30.544 101.148C30.016 101.148 29.518 101.232 29.05 101.4C28.582 101.556 28.174 101.79 27.826 102.102C27.49 102.402 27.22 102.78 27.016 103.236C26.824 103.68 26.728 104.196 26.728 104.784C26.728 105.156 26.758 105.468 26.818 105.72C26.878 105.972 26.95 106.182 27.034 106.35C27.118 106.518 27.202 106.65 27.286 106.746C27.37 106.83 27.436 106.89 27.484 106.926C26.812 106.926 26.284 106.758 25.9 106.422C25.516 106.086 25.324 105.528 25.324 104.748C25.324 104.172 25.474 103.632 25.774 103.128C26.074 102.612 26.476 102.162 26.98 101.778C27.484 101.382 28.066 101.07 28.726 100.842C29.386 100.614 30.082 100.5 30.814 100.5C31.606 100.5 32.314 100.602 32.938 100.806C33.562 100.998 34.084 101.274 34.504 101.634C34.924 101.982 35.242 102.39 35.458 102.858C35.686 103.326 35.8 103.83 35.8 104.37C35.8 104.874 35.71 105.396 35.53 105.936C35.35 106.464 35.08 106.944 34.72 107.376C34.36 107.808 33.91 108.168 33.37 108.456C32.842 108.732 32.224 108.87 31.516 108.87H31.12V114H29.176V102.462L31.12 102.192ZM42.6829 105V111.12C42.6829 111.24 42.6889 111.39 42.7009 111.57C42.7129 111.75 42.7429 111.93 42.7909 112.11C42.8509 112.278 42.9349 112.428 43.0429 112.56C43.1509 112.68 43.3009 112.74 43.4929 112.74C44.0809 112.74 44.5129 112.086 44.7889 110.778H45.4549C45.3229 111.534 45.1549 112.134 44.9509 112.578C44.7469 113.01 44.5309 113.34 44.3029 113.568C44.0749 113.796 43.8409 113.94 43.6009 114C43.3609 114.072 43.1449 114.108 42.9529 114.108C42.6769 114.108 42.4369 114.06 42.2329 113.964C42.0409 113.868 41.8729 113.742 41.7289 113.586C41.5969 113.43 41.4889 113.25 41.4049 113.046C41.3209 112.842 41.2549 112.626 41.2069 112.398C41.0269 112.866 40.7329 113.268 40.3249 113.604C39.9289 113.94 39.4429 114.108 38.8669 114.108C38.5069 114.108 38.1409 114.036 37.7689 113.892C37.4089 113.748 37.0789 113.514 36.7789 113.19C36.4909 112.854 36.2509 112.428 36.0589 111.912C35.8789 111.384 35.7889 110.742 35.7889 109.986C35.7889 109.434 35.8489 108.858 35.9689 108.258C36.1009 107.658 36.3049 107.112 36.5809 106.62C36.8569 106.128 37.2109 105.72 37.6429 105.396C38.0749 105.072 38.5969 104.91 39.2089 104.91C39.3529 104.91 39.5029 104.928 39.6589 104.964C39.8269 104.988 39.9829 105.036 40.1269 105.108C40.2829 105.18 40.4269 105.282 40.5589 105.414C40.6909 105.534 40.7989 105.684 40.8829 105.864V105H42.6829ZM39.3169 112.74C39.4969 112.74 39.6769 112.692 39.8569 112.596C40.0489 112.488 40.2169 112.35 40.3609 112.182C40.5169 112.002 40.6429 111.792 40.7389 111.552C40.8349 111.312 40.8829 111.054 40.8829 110.778V106.674C40.7989 106.482 40.6669 106.308 40.4869 106.152C40.3189 105.984 40.0969 105.9 39.8209 105.9C39.4369 105.9 39.1069 106.032 38.8309 106.296C38.5549 106.548 38.3329 106.872 38.1649 107.268C37.9969 107.652 37.8709 108.078 37.7869 108.546C37.7149 109.002 37.6789 109.44 37.6789 109.86C37.6789 110.892 37.8169 111.63 38.0929 112.074C38.3809 112.518 38.7889 112.74 39.3169 112.74ZM46.5772 105V106.512C46.7212 106.296 46.8592 106.092 46.9912 105.9C47.1352 105.708 47.2912 105.54 47.4592 105.396C47.6272 105.252 47.8132 105.138 48.0172 105.054C48.2212 104.958 48.4492 104.91 48.7012 104.91C49.1092 104.91 49.4092 105.018 49.6012 105.234C49.7932 105.438 49.8892 105.69 49.8892 105.99C49.8892 106.17 49.8592 106.32 49.7992 106.44C49.7392 106.56 49.6672 106.656 49.5832 106.728C49.4992 106.8 49.4092 106.854 49.3132 106.89C49.2172 106.914 49.1332 106.926 49.0612 106.926C48.9532 106.926 48.8632 106.902 48.7912 106.854C48.7312 106.806 48.6652 106.758 48.5932 106.71C48.5332 106.65 48.4612 106.596 48.3772 106.548C48.2932 106.5 48.1852 106.476 48.0532 106.476C47.7772 106.476 47.5132 106.572 47.2612 106.764C47.0092 106.956 46.7812 107.16 46.5772 107.376V114H44.7772V105H46.5772ZM52.6421 102.264V105H54.0281V105.63H52.6421V111.12C52.6421 111.264 52.6481 111.432 52.6601 111.624C52.6721 111.804 52.7021 111.978 52.7501 112.146C52.8101 112.314 52.8941 112.458 53.0021 112.578C53.1221 112.686 53.2841 112.74 53.4881 112.74C53.8121 112.74 54.1181 112.578 54.4061 112.254C54.7061 111.93 54.9401 111.438 55.1081 110.778H55.7741C55.5701 111.534 55.3481 112.134 55.1081 112.578C54.8801 113.01 54.6401 113.34 54.3881 113.568C54.1361 113.796 53.8841 113.94 53.6321 114C53.3921 114.072 53.1701 114.108 52.9661 114.108C52.5341 114.108 52.1801 114.03 51.9041 113.874C51.6281 113.706 51.4121 113.496 51.2561 113.244C51.1001 112.992 50.9921 112.716 50.9321 112.416C50.8721 112.104 50.8421 111.798 50.8421 111.498V105.63H50.2301V105H50.8421V102.516L52.6421 102.264ZM56.878 105V106.368C57.058 106.044 57.238 105.786 57.418 105.594C57.61 105.39 57.802 105.24 57.994 105.144C58.186 105.048 58.366 104.988 58.534 104.964C58.714 104.928 58.882 104.91 59.038 104.91C59.578 104.91 60.01 105.012 60.334 105.216C60.67 105.42 60.922 105.684 61.09 106.008C61.258 106.32 61.366 106.668 61.414 107.052C61.474 107.424 61.504 107.784 61.504 108.132C61.504 108.348 61.498 108.588 61.486 108.852C61.474 109.104 61.462 109.368 61.45 109.644C61.438 109.908 61.426 110.178 61.414 110.454C61.402 110.718 61.396 110.964 61.396 111.192C61.396 111.288 61.402 111.426 61.414 111.606C61.426 111.774 61.456 111.942 61.504 112.11C61.552 112.278 61.63 112.428 61.738 112.56C61.846 112.68 62.002 112.74 62.206 112.74C62.482 112.74 62.728 112.584 62.944 112.272C63.172 111.96 63.358 111.462 63.502 110.778H64.168C64.036 111.534 63.868 112.134 63.664 112.578C63.46 113.01 63.244 113.34 63.016 113.568C62.788 113.796 62.56 113.94 62.332 114C62.104 114.072 61.894 114.108 61.702 114.108C61.318 114.108 60.994 114.036 60.73 113.892C60.466 113.736 60.25 113.532 60.082 113.28C59.914 113.028 59.788 112.734 59.704 112.398C59.632 112.062 59.596 111.714 59.596 111.354C59.596 111.246 59.596 111.048 59.596 110.76C59.608 110.46 59.614 110.142 59.614 109.806C59.626 109.47 59.632 109.152 59.632 108.852C59.644 108.552 59.65 108.342 59.65 108.222C59.65 107.838 59.62 107.52 59.56 107.268C59.5 107.016 59.416 106.818 59.308 106.674C59.2 106.53 59.074 106.428 58.93 106.368C58.798 106.308 58.654 106.278 58.498 106.278C58.126 106.278 57.802 106.428 57.526 106.728C57.262 107.028 57.046 107.532 56.878 108.24V114H55.078V105H56.878ZM69.1143 107.25C69.1143 108.09 68.7663 108.792 68.0703 109.356C67.3863 109.92 66.4323 110.268 65.2083 110.4C65.2563 110.88 65.3403 111.27 65.4603 111.57C65.5923 111.87 65.7483 112.11 65.9283 112.29C66.1083 112.458 66.3123 112.578 66.5403 112.65C66.7803 112.71 67.0263 112.74 67.2783 112.74C67.8543 112.74 68.3943 112.59 68.8983 112.29C69.4023 111.99 69.8103 111.486 70.1223 110.778H70.6983C70.5423 111.222 70.3263 111.648 70.0503 112.056C69.7743 112.452 69.4503 112.806 69.0783 113.118C68.7063 113.418 68.3043 113.658 67.8723 113.838C67.4403 114.018 66.9963 114.108 66.5403 114.108C66.1203 114.108 65.7123 114.036 65.3163 113.892C64.9323 113.748 64.5903 113.514 64.2903 113.19C63.9903 112.854 63.7443 112.422 63.5523 111.894C63.3723 111.366 63.2823 110.718 63.2823 109.95C63.2823 109.446 63.3363 108.9 63.4443 108.312C63.5643 107.724 63.7563 107.178 64.0203 106.674C64.2963 106.17 64.6503 105.75 65.0823 105.414C65.5263 105.078 66.0723 104.91 66.7203 104.91C67.0203 104.91 67.3083 104.946 67.5843 105.018C67.8723 105.078 68.1303 105.198 68.3583 105.378C68.5863 105.546 68.7663 105.78 68.8983 106.08C69.0423 106.38 69.1143 106.77 69.1143 107.25ZM65.1903 109.698C66.0423 109.566 66.7143 109.266 67.2063 108.798C67.7103 108.33 67.9623 107.754 67.9623 107.07C67.9623 106.614 67.8843 106.29 67.7283 106.098C67.5723 105.894 67.3503 105.792 67.0623 105.792C66.7503 105.792 66.4743 105.912 66.2343 106.152C66.0063 106.392 65.8143 106.704 65.6583 107.088C65.5023 107.46 65.3823 107.88 65.2983 108.348C65.2263 108.804 65.1903 109.254 65.1903 109.698ZM71.9073 105V106.512C72.0513 106.296 72.1893 106.092 72.3213 105.9C72.4653 105.708 72.6213 105.54 72.7893 105.396C72.9573 105.252 73.1433 105.138 73.3473 105.054C73.5513 104.958 73.7793 104.91 74.0313 104.91C74.4393 104.91 74.7393 105.018 74.9313 105.234C75.1233 105.438 75.2193 105.69 75.2193 105.99C75.2193 106.17 75.1893 106.32 75.1293 106.44C75.0693 106.56 74.9973 106.656 74.9133 106.728C74.8293 106.8 74.7393 106.854 74.6433 106.89C74.5473 106.914 74.4633 106.926 74.3913 106.926C74.2833 106.926 74.1933 106.902 74.1213 106.854C74.0613 106.806 73.9953 106.758 73.9233 106.71C73.8633 106.65 73.7913 106.596 73.7073 106.548C73.6233 106.5 73.5153 106.476 73.3833 106.476C73.1073 106.476 72.8433 106.572 72.5913 106.764C72.3393 106.956 72.1113 107.16 71.9073 107.376V114H70.1073V105H71.9073ZM83.3514 114H81.4074V102.876H79.3914L79.4454 101.94C79.6734 101.94 79.9254 101.928 80.2014 101.904C80.4774 101.868 80.7774 101.802 81.1014 101.706C81.4254 101.598 81.7734 101.454 82.1454 101.274C82.5174 101.094 82.9194 100.848 83.3514 100.536V114Z" fill="#01579B"/>
<path d="M127.12 102.192V108.312C127.648 108.312 128.098 108.204 128.47 107.988C128.854 107.76 129.166 107.472 129.406 107.124C129.646 106.776 129.82 106.386 129.928 105.954C130.048 105.51 130.108 105.072 130.108 104.64C130.108 104.256 130.066 103.86 129.982 103.452C129.91 103.044 129.748 102.672 129.496 102.336C129.244 101.988 128.884 101.706 128.416 101.49C127.948 101.262 127.324 101.148 126.544 101.148C126.016 101.148 125.518 101.232 125.05 101.4C124.582 101.556 124.174 101.79 123.826 102.102C123.49 102.402 123.22 102.78 123.016 103.236C122.824 103.68 122.728 104.196 122.728 104.784C122.728 105.156 122.758 105.468 122.818 105.72C122.878 105.972 122.95 106.182 123.034 106.35C123.118 106.518 123.202 106.65 123.286 106.746C123.37 106.83 123.436 106.89 123.484 106.926C122.812 106.926 122.284 106.758 121.9 106.422C121.516 106.086 121.324 105.528 121.324 104.748C121.324 104.172 121.474 103.632 121.774 103.128C122.074 102.612 122.476 102.162 122.98 101.778C123.484 101.382 124.066 101.07 124.726 100.842C125.386 100.614 126.082 100.5 126.814 100.5C127.606 100.5 128.314 100.602 128.938 100.806C129.562 100.998 130.084 101.274 130.504 101.634C130.924 101.982 131.242 102.39 131.458 102.858C131.686 103.326 131.8 103.83 131.8 104.37C131.8 104.874 131.71 105.396 131.53 105.936C131.35 106.464 131.08 106.944 130.72 107.376C130.36 107.808 129.91 108.168 129.37 108.456C128.842 108.732 128.224 108.87 127.516 108.87H127.12V114H125.176V102.462L127.12 102.192ZM138.683 105V111.12C138.683 111.24 138.689 111.39 138.701 111.57C138.713 111.75 138.743 111.93 138.791 112.11C138.851 112.278 138.935 112.428 139.043 112.56C139.151 112.68 139.301 112.74 139.493 112.74C140.081 112.74 140.513 112.086 140.789 110.778H141.455C141.323 111.534 141.155 112.134 140.951 112.578C140.747 113.01 140.531 113.34 140.303 113.568C140.075 113.796 139.841 113.94 139.601 114C139.361 114.072 139.145 114.108 138.953 114.108C138.677 114.108 138.437 114.06 138.233 113.964C138.041 113.868 137.873 113.742 137.729 113.586C137.597 113.43 137.489 113.25 137.405 113.046C137.321 112.842 137.255 112.626 137.207 112.398C137.027 112.866 136.733 113.268 136.325 113.604C135.929 113.94 135.443 114.108 134.867 114.108C134.507 114.108 134.141 114.036 133.769 113.892C133.409 113.748 133.079 113.514 132.779 113.19C132.491 112.854 132.251 112.428 132.059 111.912C131.879 111.384 131.789 110.742 131.789 109.986C131.789 109.434 131.849 108.858 131.969 108.258C132.101 107.658 132.305 107.112 132.581 106.62C132.857 106.128 133.211 105.72 133.643 105.396C134.075 105.072 134.597 104.91 135.209 104.91C135.353 104.91 135.503 104.928 135.659 104.964C135.827 104.988 135.983 105.036 136.127 105.108C136.283 105.18 136.427 105.282 136.559 105.414C136.691 105.534 136.799 105.684 136.883 105.864V105H138.683ZM135.317 112.74C135.497 112.74 135.677 112.692 135.857 112.596C136.049 112.488 136.217 112.35 136.361 112.182C136.517 112.002 136.643 111.792 136.739 111.552C136.835 111.312 136.883 111.054 136.883 110.778V106.674C136.799 106.482 136.667 106.308 136.487 106.152C136.319 105.984 136.097 105.9 135.821 105.9C135.437 105.9 135.107 106.032 134.831 106.296C134.555 106.548 134.333 106.872 134.165 107.268C133.997 107.652 133.871 108.078 133.787 108.546C133.715 109.002 133.679 109.44 133.679 109.86C133.679 110.892 133.817 111.63 134.093 112.074C134.381 112.518 134.789 112.74 135.317 112.74ZM142.577 105V106.512C142.721 106.296 142.859 106.092 142.991 105.9C143.135 105.708 143.291 105.54 143.459 105.396C143.627 105.252 143.813 105.138 144.017 105.054C144.221 104.958 144.449 104.91 144.701 104.91C145.109 104.91 145.409 105.018 145.601 105.234C145.793 105.438 145.889 105.69 145.889 105.99C145.889 106.17 145.859 106.32 145.799 106.44C145.739 106.56 145.667 106.656 145.583 106.728C145.499 106.8 145.409 106.854 145.313 106.89C145.217 106.914 145.133 106.926 145.061 106.926C144.953 106.926 144.863 106.902 144.791 106.854C144.731 106.806 144.665 106.758 144.593 106.71C144.533 106.65 144.461 106.596 144.377 106.548C144.293 106.5 144.185 106.476 144.053 106.476C143.777 106.476 143.513 106.572 143.261 106.764C143.009 106.956 142.781 107.16 142.577 107.376V114H140.777V105H142.577ZM148.642 102.264V105H150.028V105.63H148.642V111.12C148.642 111.264 148.648 111.432 148.66 111.624C148.672 111.804 148.702 111.978 148.75 112.146C148.81 112.314 148.894 112.458 149.002 112.578C149.122 112.686 149.284 112.74 149.488 112.74C149.812 112.74 150.118 112.578 150.406 112.254C150.706 111.93 150.94 111.438 151.108 110.778H151.774C151.57 111.534 151.348 112.134 151.108 112.578C150.88 113.01 150.64 113.34 150.388 113.568C150.136 113.796 149.884 113.94 149.632 114C149.392 114.072 149.17 114.108 148.966 114.108C148.534 114.108 148.18 114.03 147.904 113.874C147.628 113.706 147.412 113.496 147.256 113.244C147.1 112.992 146.992 112.716 146.932 112.416C146.872 112.104 146.842 111.798 146.842 111.498V105.63H146.23V105H146.842V102.516L148.642 102.264ZM152.878 105V106.368C153.058 106.044 153.238 105.786 153.418 105.594C153.61 105.39 153.802 105.24 153.994 105.144C154.186 105.048 154.366 104.988 154.534 104.964C154.714 104.928 154.882 104.91 155.038 104.91C155.578 104.91 156.01 105.012 156.334 105.216C156.67 105.42 156.922 105.684 157.09 106.008C157.258 106.32 157.366 106.668 157.414 107.052C157.474 107.424 157.504 107.784 157.504 108.132C157.504 108.348 157.498 108.588 157.486 108.852C157.474 109.104 157.462 109.368 157.45 109.644C157.438 109.908 157.426 110.178 157.414 110.454C157.402 110.718 157.396 110.964 157.396 111.192C157.396 111.288 157.402 111.426 157.414 111.606C157.426 111.774 157.456 111.942 157.504 112.11C157.552 112.278 157.63 112.428 157.738 112.56C157.846 112.68 158.002 112.74 158.206 112.74C158.482 112.74 158.728 112.584 158.944 112.272C159.172 111.96 159.358 111.462 159.502 110.778H160.168C160.036 111.534 159.868 112.134 159.664 112.578C159.46 113.01 159.244 113.34 159.016 113.568C158.788 113.796 158.56 113.94 158.332 114C158.104 114.072 157.894 114.108 157.702 114.108C157.318 114.108 156.994 114.036 156.73 113.892C156.466 113.736 156.25 113.532 156.082 113.28C155.914 113.028 155.788 112.734 155.704 112.398C155.632 112.062 155.596 111.714 155.596 111.354C155.596 111.246 155.596 111.048 155.596 110.76C155.608 110.46 155.614 110.142 155.614 109.806C155.626 109.47 155.632 109.152 155.632 108.852C155.644 108.552 155.65 108.342 155.65 108.222C155.65 107.838 155.62 107.52 155.56 107.268C155.5 107.016 155.416 106.818 155.308 106.674C155.2 106.53 155.074 106.428 154.93 106.368C154.798 106.308 154.654 106.278 154.498 106.278C154.126 106.278 153.802 106.428 153.526 106.728C153.262 107.028 153.046 107.532 152.878 108.24V114H151.078V105H152.878ZM165.114 107.25C165.114 108.09 164.766 108.792 164.07 109.356C163.386 109.92 162.432 110.268 161.208 110.4C161.256 110.88 161.34 111.27 161.46 111.57C161.592 111.87 161.748 112.11 161.928 112.29C162.108 112.458 162.312 112.578 162.54 112.65C162.78 112.71 163.026 112.74 163.278 112.74C163.854 112.74 164.394 112.59 164.898 112.29C165.402 111.99 165.81 111.486 166.122 110.778H166.698C166.542 111.222 166.326 111.648 166.05 112.056C165.774 112.452 165.45 112.806 165.078 113.118C164.706 113.418 164.304 113.658 163.872 113.838C163.44 114.018 162.996 114.108 162.54 114.108C162.12 114.108 161.712 114.036 161.316 113.892C160.932 113.748 160.59 113.514 160.29 113.19C159.99 112.854 159.744 112.422 159.552 111.894C159.372 111.366 159.282 110.718 159.282 109.95C159.282 109.446 159.336 108.9 159.444 108.312C159.564 107.724 159.756 107.178 160.02 106.674C160.296 106.17 160.65 105.75 161.082 105.414C161.526 105.078 162.072 104.91 162.72 104.91C163.02 104.91 163.308 104.946 163.584 105.018C163.872 105.078 164.13 105.198 164.358 105.378C164.586 105.546 164.766 105.78 164.898 106.08C165.042 106.38 165.114 106.77 165.114 107.25ZM161.19 109.698C162.042 109.566 162.714 109.266 163.206 108.798C163.71 108.33 163.962 107.754 163.962 107.07C163.962 106.614 163.884 106.29 163.728 106.098C163.572 105.894 163.35 105.792 163.062 105.792C162.75 105.792 162.474 105.912 162.234 106.152C162.006 106.392 161.814 106.704 161.658 107.088C161.502 107.46 161.382 107.88 161.298 108.348C161.226 108.804 161.19 109.254 161.19 109.698ZM167.907 105V106.512C168.051 106.296 168.189 106.092 168.321 105.9C168.465 105.708 168.621 105.54 168.789 105.396C168.957 105.252 169.143 105.138 169.347 105.054C169.551 104.958 169.779 104.91 170.031 104.91C170.439 104.91 170.739 105.018 170.931 105.234C171.123 105.438 171.219 105.69 171.219 105.99C171.219 106.17 171.189 106.32 171.129 106.44C171.069 106.56 170.997 106.656 170.913 106.728C170.829 106.8 170.739 106.854 170.643 106.89C170.547 106.914 170.463 106.926 170.391 106.926C170.283 106.926 170.193 106.902 170.121 106.854C170.061 106.806 169.995 106.758 169.923 106.71C169.863 106.65 169.791 106.596 169.707 106.548C169.623 106.5 169.515 106.476 169.383 106.476C169.107 106.476 168.843 106.572 168.591 106.764C168.339 106.956 168.111 107.16 167.907 107.376V114H166.107V105H167.907ZM177.839 112.272C178.355 112.272 178.907 112.326 179.495 112.434C180.095 112.542 180.695 112.596 181.295 112.596C181.619 112.596 181.895 112.572 182.123 112.524C182.351 112.476 182.543 112.404 182.699 112.308C182.867 112.2 183.011 112.068 183.131 111.912C183.251 111.756 183.377 111.57 183.509 111.354C183.593 111.558 183.659 111.768 183.707 111.984C183.755 112.2 183.779 112.41 183.779 112.614C183.779 112.914 183.725 113.166 183.617 113.37C183.521 113.562 183.389 113.718 183.221 113.838C183.053 113.958 182.849 114.042 182.609 114.09C182.381 114.138 182.135 114.162 181.871 114.162C181.523 114.162 181.157 114.132 180.773 114.072C180.389 114.012 180.017 113.946 179.657 113.874C179.297 113.802 178.961 113.736 178.649 113.676C178.337 113.616 178.073 113.586 177.857 113.586C177.557 113.586 177.257 113.622 176.957 113.694C176.669 113.754 176.375 113.868 176.075 114.036C176.039 113.976 175.991 113.868 175.931 113.712C175.871 113.544 175.841 113.292 175.841 112.956C175.841 112.368 175.967 111.828 176.219 111.336C176.483 110.844 176.807 110.37 177.191 109.914C177.575 109.446 177.989 108.99 178.433 108.546C178.877 108.09 179.291 107.616 179.675 107.124C180.059 106.62 180.377 106.086 180.629 105.522C180.893 104.958 181.025 104.328 181.025 103.632C181.025 102.972 180.887 102.438 180.611 102.03C180.335 101.61 179.891 101.4 179.279 101.4C178.715 101.4 178.289 101.562 178.001 101.886C177.713 102.21 177.569 102.582 177.569 103.002C177.569 103.194 177.611 103.428 177.695 103.704C177.779 103.968 177.941 104.184 178.181 104.352C178.037 104.52 177.881 104.64 177.713 104.712C177.557 104.772 177.407 104.802 177.263 104.802C177.047 104.802 176.861 104.754 176.705 104.658C176.549 104.55 176.417 104.412 176.309 104.244C176.213 104.064 176.135 103.866 176.075 103.65C176.027 103.434 176.003 103.218 176.003 103.002C176.003 102.222 176.303 101.616 176.903 101.184C177.515 100.74 178.361 100.518 179.441 100.518C180.185 100.518 180.791 100.62 181.259 100.824C181.739 101.028 182.117 101.292 182.393 101.616C182.669 101.94 182.861 102.306 182.969 102.714C183.077 103.11 183.131 103.506 183.131 103.902C183.131 104.634 182.987 105.288 182.699 105.864C182.423 106.44 182.075 106.968 181.655 107.448C181.235 107.928 180.773 108.372 180.269 108.78C179.777 109.176 179.309 109.566 178.865 109.95C178.421 110.322 178.043 110.706 177.731 111.102C177.419 111.486 177.239 111.9 177.191 112.344C177.371 112.296 177.587 112.272 177.839 112.272Z" fill="#01579B"/>
<path d="M223.12 102.192V108.312C223.648 108.312 224.098 108.204 224.47 107.988C224.854 107.76 225.166 107.472 225.406 107.124C225.646 106.776 225.82 106.386 225.928 105.954C226.048 105.51 226.108 105.072 226.108 104.64C226.108 104.256 226.066 103.86 225.982 103.452C225.91 103.044 225.748 102.672 225.496 102.336C225.244 101.988 224.884 101.706 224.416 101.49C223.948 101.262 223.324 101.148 222.544 101.148C222.016 101.148 221.518 101.232 221.05 101.4C220.582 101.556 220.174 101.79 219.826 102.102C219.49 102.402 219.22 102.78 219.016 103.236C218.824 103.68 218.728 104.196 218.728 104.784C218.728 105.156 218.758 105.468 218.818 105.72C218.878 105.972 218.95 106.182 219.034 106.35C219.118 106.518 219.202 106.65 219.286 106.746C219.37 106.83 219.436 106.89 219.484 106.926C218.812 106.926 218.284 106.758 217.9 106.422C217.516 106.086 217.324 105.528 217.324 104.748C217.324 104.172 217.474 103.632 217.774 103.128C218.074 102.612 218.476 102.162 218.98 101.778C219.484 101.382 220.066 101.07 220.726 100.842C221.386 100.614 222.082 100.5 222.814 100.5C223.606 100.5 224.314 100.602 224.938 100.806C225.562 100.998 226.084 101.274 226.504 101.634C226.924 101.982 227.242 102.39 227.458 102.858C227.686 103.326 227.8 103.83 227.8 104.37C227.8 104.874 227.71 105.396 227.53 105.936C227.35 106.464 227.08 106.944 226.72 107.376C226.36 107.808 225.91 108.168 225.37 108.456C224.842 108.732 224.224 108.87 223.516 108.87H223.12V114H221.176V102.462L223.12 102.192ZM234.683 105V111.12C234.683 111.24 234.689 111.39 234.701 111.57C234.713 111.75 234.743 111.93 234.791 112.11C234.851 112.278 234.935 112.428 235.043 112.56C235.151 112.68 235.301 112.74 235.493 112.74C236.081 112.74 236.513 112.086 236.789 110.778H237.455C237.323 111.534 237.155 112.134 236.951 112.578C236.747 113.01 236.531 113.34 236.303 113.568C236.075 113.796 235.841 113.94 235.601 114C235.361 114.072 235.145 114.108 234.953 114.108C234.677 114.108 234.437 114.06 234.233 113.964C234.041 113.868 233.873 113.742 233.729 113.586C233.597 113.43 233.489 113.25 233.405 113.046C233.321 112.842 233.255 112.626 233.207 112.398C233.027 112.866 232.733 113.268 232.325 113.604C231.929 113.94 231.443 114.108 230.867 114.108C230.507 114.108 230.141 114.036 229.769 113.892C229.409 113.748 229.079 113.514 228.779 113.19C228.491 112.854 228.251 112.428 228.059 111.912C227.879 111.384 227.789 110.742 227.789 109.986C227.789 109.434 227.849 108.858 227.969 108.258C228.101 107.658 228.305 107.112 228.581 106.62C228.857 106.128 229.211 105.72 229.643 105.396C230.075 105.072 230.597 104.91 231.209 104.91C231.353 104.91 231.503 104.928 231.659 104.964C231.827 104.988 231.983 105.036 232.127 105.108C232.283 105.18 232.427 105.282 232.559 105.414C232.691 105.534 232.799 105.684 232.883 105.864V105H234.683ZM231.317 112.74C231.497 112.74 231.677 112.692 231.857 112.596C232.049 112.488 232.217 112.35 232.361 112.182C232.517 112.002 232.643 111.792 232.739 111.552C232.835 111.312 232.883 111.054 232.883 110.778V106.674C232.799 106.482 232.667 106.308 232.487 106.152C232.319 105.984 232.097 105.9 231.821 105.9C231.437 105.9 231.107 106.032 230.831 106.296C230.555 106.548 230.333 106.872 230.165 107.268C229.997 107.652 229.871 108.078 229.787 108.546C229.715 109.002 229.679 109.44 229.679 109.86C229.679 110.892 229.817 111.63 230.093 112.074C230.381 112.518 230.789 112.74 231.317 112.74ZM238.577 105V106.512C238.721 106.296 238.859 106.092 238.991 105.9C239.135 105.708 239.291 105.54 239.459 105.396C239.627 105.252 239.813 105.138 240.017 105.054C240.221 104.958 240.449 104.91 240.701 104.91C241.109 104.91 241.409 105.018 241.601 105.234C241.793 105.438 241.889 105.69 241.889 105.99C241.889 106.17 241.859 106.32 241.799 106.44C241.739 106.56 241.667 106.656 241.583 106.728C241.499 106.8 241.409 106.854 241.313 106.89C241.217 106.914 241.133 106.926 241.061 106.926C240.953 106.926 240.863 106.902 240.791 106.854C240.731 106.806 240.665 106.758 240.593 106.71C240.533 106.65 240.461 106.596 240.377 106.548C240.293 106.5 240.185 106.476 240.053 106.476C239.777 106.476 239.513 106.572 239.261 106.764C239.009 106.956 238.781 107.16 238.577 107.376V114H236.777V105H238.577ZM244.642 102.264V105H246.028V105.63H244.642V111.12C244.642 111.264 244.648 111.432 244.66 111.624C244.672 111.804 244.702 111.978 244.75 112.146C244.81 112.314 244.894 112.458 245.002 112.578C245.122 112.686 245.284 112.74 245.488 112.74C245.812 112.74 246.118 112.578 246.406 112.254C246.706 111.93 246.94 111.438 247.108 110.778H247.774C247.57 111.534 247.348 112.134 247.108 112.578C246.88 113.01 246.64 113.34 246.388 113.568C246.136 113.796 245.884 113.94 245.632 114C245.392 114.072 245.17 114.108 244.966 114.108C244.534 114.108 244.18 114.03 243.904 113.874C243.628 113.706 243.412 113.496 243.256 113.244C243.1 112.992 242.992 112.716 242.932 112.416C242.872 112.104 242.842 111.798 242.842 111.498V105.63H242.23V105H242.842V102.516L244.642 102.264ZM248.878 105V106.368C249.058 106.044 249.238 105.786 249.418 105.594C249.61 105.39 249.802 105.24 249.994 105.144C250.186 105.048 250.366 104.988 250.534 104.964C250.714 104.928 250.882 104.91 251.038 104.91C251.578 104.91 252.01 105.012 252.334 105.216C252.67 105.42 252.922 105.684 253.09 106.008C253.258 106.32 253.366 106.668 253.414 107.052C253.474 107.424 253.504 107.784 253.504 108.132C253.504 108.348 253.498 108.588 253.486 108.852C253.474 109.104 253.462 109.368 253.45 109.644C253.438 109.908 253.426 110.178 253.414 110.454C253.402 110.718 253.396 110.964 253.396 111.192C253.396 111.288 253.402 111.426 253.414 111.606C253.426 111.774 253.456 111.942 253.504 112.11C253.552 112.278 253.63 112.428 253.738 112.56C253.846 112.68 254.002 112.74 254.206 112.74C254.482 112.74 254.728 112.584 254.944 112.272C255.172 111.96 255.358 111.462 255.502 110.778H256.168C256.036 111.534 255.868 112.134 255.664 112.578C255.46 113.01 255.244 113.34 255.016 113.568C254.788 113.796 254.56 113.94 254.332 114C254.104 114.072 253.894 114.108 253.702 114.108C253.318 114.108 252.994 114.036 252.73 113.892C252.466 113.736 252.25 113.532 252.082 113.28C251.914 113.028 251.788 112.734 251.704 112.398C251.632 112.062 251.596 111.714 251.596 111.354C251.596 111.246 251.596 111.048 251.596 110.76C251.608 110.46 251.614 110.142 251.614 109.806C251.626 109.47 251.632 109.152 251.632 108.852C251.644 108.552 251.65 108.342 251.65 108.222C251.65 107.838 251.62 107.52 251.56 107.268C251.5 107.016 251.416 106.818 251.308 106.674C251.2 106.53 251.074 106.428 250.93 106.368C250.798 106.308 250.654 106.278 250.498 106.278C250.126 106.278 249.802 106.428 249.526 106.728C249.262 107.028 249.046 107.532 248.878 108.24V114H247.078V105H248.878ZM261.114 107.25C261.114 108.09 260.766 108.792 260.07 109.356C259.386 109.92 258.432 110.268 257.208 110.4C257.256 110.88 257.34 111.27 257.46 111.57C257.592 111.87 257.748 112.11 257.928 112.29C258.108 112.458 258.312 112.578 258.54 112.65C258.78 112.71 259.026 112.74 259.278 112.74C259.854 112.74 260.394 112.59 260.898 112.29C261.402 111.99 261.81 111.486 262.122 110.778H262.698C262.542 111.222 262.326 111.648 262.05 112.056C261.774 112.452 261.45 112.806 261.078 113.118C260.706 113.418 260.304 113.658 259.872 113.838C259.44 114.018 258.996 114.108 258.54 114.108C258.12 114.108 257.712 114.036 257.316 113.892C256.932 113.748 256.59 113.514 256.29 113.19C255.99 112.854 255.744 112.422 255.552 111.894C255.372 111.366 255.282 110.718 255.282 109.95C255.282 109.446 255.336 108.9 255.444 108.312C255.564 107.724 255.756 107.178 256.02 106.674C256.296 106.17 256.65 105.75 257.082 105.414C257.526 105.078 258.072 104.91 258.72 104.91C259.02 104.91 259.308 104.946 259.584 105.018C259.872 105.078 260.13 105.198 260.358 105.378C260.586 105.546 260.766 105.78 260.898 106.08C261.042 106.38 261.114 106.77 261.114 107.25ZM257.19 109.698C258.042 109.566 258.714 109.266 259.206 108.798C259.71 108.33 259.962 107.754 259.962 107.07C259.962 106.614 259.884 106.29 259.728 106.098C259.572 105.894 259.35 105.792 259.062 105.792C258.75 105.792 258.474 105.912 258.234 106.152C258.006 106.392 257.814 106.704 257.658 107.088C257.502 107.46 257.382 107.88 257.298 108.348C257.226 108.804 257.19 109.254 257.19 109.698ZM263.907 105V106.512C264.051 106.296 264.189 106.092 264.321 105.9C264.465 105.708 264.621 105.54 264.789 105.396C264.957 105.252 265.143 105.138 265.347 105.054C265.551 104.958 265.779 104.91 266.031 104.91C266.439 104.91 266.739 105.018 266.931 105.234C267.123 105.438 267.219 105.69 267.219 105.99C267.219 106.17 267.189 106.32 267.129 106.44C267.069 106.56 266.997 106.656 266.913 106.728C266.829 106.8 266.739 106.854 266.643 106.89C266.547 106.914 266.463 106.926 266.391 106.926C266.283 106.926 266.193 106.902 266.121 106.854C266.061 106.806 265.995 106.758 265.923 106.71C265.863 106.65 265.791 106.596 265.707 106.548C265.623 106.5 265.515 106.476 265.383 106.476C265.107 106.476 264.843 106.572 264.591 106.764C264.339 106.956 264.111 107.16 263.907 107.376V114H262.107V105H263.907ZM274.721 109.374C274.205 109.398 273.857 109.56 273.677 109.86C273.497 110.148 273.407 110.484 273.407 110.868C273.407 111.264 273.473 111.594 273.605 111.858C273.749 112.11 273.923 112.308 274.127 112.452C274.331 112.596 274.559 112.698 274.811 112.758C275.063 112.818 275.303 112.848 275.531 112.848C275.975 112.848 276.353 112.77 276.665 112.614C276.977 112.446 277.229 112.23 277.421 111.966C277.625 111.702 277.769 111.408 277.853 111.084C277.949 110.748 277.997 110.418 277.997 110.094C277.997 109.674 277.925 109.26 277.781 108.852C277.637 108.444 277.421 108.072 277.133 107.736C276.845 107.4 276.479 107.124 276.035 106.908C275.591 106.68 275.069 106.536 274.469 106.476C274.985 106.356 275.435 106.182 275.819 105.954C276.215 105.726 276.545 105.474 276.809 105.198C277.073 104.91 277.265 104.61 277.385 104.298C277.517 103.986 277.583 103.674 277.583 103.362C277.583 103.11 277.541 102.87 277.457 102.642C277.373 102.402 277.247 102.192 277.079 102.012C276.911 101.832 276.707 101.688 276.467 101.58C276.227 101.472 275.951 101.418 275.639 101.418C275.123 101.418 274.733 101.55 274.469 101.814C274.205 102.078 274.073 102.384 274.073 102.732C274.073 102.984 274.145 103.236 274.289 103.488C274.445 103.728 274.679 103.956 274.991 104.172C274.667 104.544 274.301 104.73 273.893 104.73C273.509 104.73 273.179 104.574 272.903 104.262C272.627 103.938 272.489 103.506 272.489 102.966C272.489 102.558 272.579 102.198 272.759 101.886C272.939 101.574 273.179 101.322 273.479 101.13C273.779 100.926 274.127 100.776 274.523 100.68C274.919 100.572 275.327 100.518 275.747 100.518C276.191 100.518 276.629 100.578 277.061 100.698C277.505 100.806 277.895 100.974 278.231 101.202C278.579 101.43 278.855 101.724 279.059 102.084C279.275 102.444 279.383 102.864 279.383 103.344C279.383 103.656 279.335 103.974 279.239 104.298C279.143 104.61 279.005 104.904 278.825 105.18C278.657 105.456 278.447 105.708 278.195 105.936C277.955 106.164 277.685 106.35 277.385 106.494C278.405 106.902 279.137 107.388 279.581 107.952C280.037 108.516 280.265 109.188 280.265 109.968C280.265 110.52 280.139 111.048 279.887 111.552C279.647 112.044 279.311 112.482 278.879 112.866C278.459 113.238 277.967 113.538 277.403 113.766C276.839 113.994 276.233 114.108 275.585 114.108C275.273 114.108 274.895 114.072 274.451 114C274.019 113.916 273.599 113.754 273.191 113.514C272.795 113.274 272.453 112.926 272.165 112.47C271.877 112.014 271.733 111.408 271.733 110.652C271.733 109.968 271.877 109.44 272.165 109.068C272.453 108.696 272.855 108.51 273.371 108.51C273.479 108.51 273.593 108.522 273.713 108.546C273.845 108.558 273.971 108.6 274.091 108.672C274.223 108.732 274.343 108.822 274.451 108.942C274.559 109.05 274.649 109.194 274.721 109.374Z" fill="#01579B"/>
</svg>
