<svg viewBox="0 0 295 180" fill="none" xmlns="http://www.w3.org/2000/svg">
<g clip-path="url(#clip0)">
<path d="M294.4 0L166.3 227H-4V0H294.4Z" fill="black"/>
<path d="M9.37109 171.668C9.37109 172.066 9.25781 172.371 9.03125 172.582C8.80729 172.79 8.48958 172.895 8.07812 172.895C7.66927 172.895 7.34115 172.758 7.09375 172.484C6.84896 172.208 6.72656 171.833 6.72656 171.359V170.93C6.72656 170.471 6.85026 170.105 7.09766 169.832C7.34766 169.556 7.67448 169.418 8.07812 169.418C8.49479 169.418 8.8151 169.525 9.03906 169.738C9.26302 169.952 9.375 170.253 9.375 170.641H8.80469C8.80469 170.383 8.74219 170.199 8.61719 170.09C8.49479 169.978 8.3151 169.922 8.07812 169.922C7.83333 169.922 7.64062 170.012 7.5 170.191C7.35938 170.371 7.28906 170.621 7.28906 170.941V171.383C7.28906 171.695 7.35938 171.941 7.5 172.121C7.64062 172.301 7.83333 172.391 8.07812 172.391C8.31771 172.391 8.4974 172.336 8.61719 172.227C8.73958 172.117 8.80078 171.931 8.80078 171.668H9.37109ZM5.80469 171.152C5.80469 171.6 5.90885 172.016 6.11719 172.398C6.32552 172.779 6.60807 173.077 6.96484 173.293C7.32422 173.509 7.71224 173.617 8.12891 173.617C8.54557 173.617 8.93229 173.509 9.28906 173.293C9.64583 173.077 9.92839 172.779 10.1367 172.398C10.3451 172.016 10.4492 171.6 10.4492 171.152C10.4492 170.71 10.3464 170.299 10.1406 169.922C9.9349 169.544 9.65234 169.247 9.29297 169.031C8.9362 168.812 8.54818 168.703 8.12891 168.703C7.71224 168.703 7.32422 168.811 6.96484 169.027C6.60547 169.241 6.32161 169.538 6.11328 169.918C5.90755 170.298 5.80469 170.71 5.80469 171.152ZM5.35547 171.152C5.35547 170.626 5.47656 170.138 5.71875 169.688C5.96354 169.237 6.30078 168.883 6.73047 168.625C7.16276 168.365 7.62891 168.234 8.12891 168.234C8.62891 168.234 9.09375 168.365 9.52344 168.625C9.95312 168.883 10.2891 169.237 10.5312 169.688C10.776 170.138 10.8984 170.626 10.8984 171.152C10.8984 171.665 10.7812 172.146 10.5469 172.594C10.3125 173.042 9.97917 173.402 9.54688 173.676C9.11719 173.947 8.64453 174.082 8.12891 174.082C7.61589 174.082 7.14323 173.948 6.71094 173.68C6.28125 173.409 5.94792 173.049 5.71094 172.602C5.47396 172.154 5.35547 171.671 5.35547 171.152ZM16.3164 168.312H17.0703V172.34C17.0703 172.884 16.9062 173.31 16.5781 173.617C16.2526 173.924 15.8177 174.078 15.2734 174.078C14.7083 174.078 14.2682 173.934 13.9531 173.645C13.638 173.355 13.4805 172.951 13.4805 172.43H14.2305C14.2305 172.755 14.319 173.009 14.4961 173.191C14.6758 173.374 14.9349 173.465 15.2734 173.465C15.5833 173.465 15.8333 173.367 16.0234 173.172C16.2161 172.977 16.3138 172.703 16.3164 172.352V168.312ZM19.9883 174.078C19.4154 174.078 18.9492 173.891 18.5898 173.516C18.2305 173.138 18.0508 172.634 18.0508 172.004V171.871C18.0508 171.452 18.1302 171.078 18.2891 170.75C18.4505 170.419 18.6745 170.161 18.9609 169.977C19.25 169.789 19.5625 169.695 19.8984 169.695C20.4479 169.695 20.875 169.876 21.1797 170.238C21.4844 170.6 21.6367 171.118 21.6367 171.793V172.094H18.7734C18.7839 172.51 18.9049 172.848 19.1367 173.105C19.3711 173.361 19.668 173.488 20.0273 173.488C20.2826 173.488 20.4987 173.436 20.6758 173.332C20.8529 173.228 21.0078 173.09 21.1406 172.918L21.582 173.262C21.2279 173.806 20.6966 174.078 19.9883 174.078ZM19.8984 170.289C19.6068 170.289 19.362 170.396 19.1641 170.609C18.9661 170.82 18.8438 171.117 18.7969 171.5H20.9141V171.445C20.8932 171.078 20.7943 170.794 20.6172 170.594C20.4401 170.391 20.2005 170.289 19.8984 170.289ZM23.457 168.75V169.773H24.2461V170.332H23.457V172.953C23.457 173.122 23.4922 173.25 23.5625 173.336C23.6328 173.419 23.7526 173.461 23.9219 173.461C24.0052 173.461 24.1198 173.445 24.2656 173.414V174C24.0755 174.052 23.8906 174.078 23.7109 174.078C23.388 174.078 23.1445 173.98 22.9805 173.785C22.8164 173.59 22.7344 173.312 22.7344 172.953V170.332H21.9648V169.773H22.7344V168.75H23.457ZM25.8164 170.285C26.1367 169.892 26.5534 169.695 27.0664 169.695C27.9596 169.695 28.4102 170.199 28.418 171.207V174H27.6953V171.203C27.6927 170.898 27.6224 170.673 27.4844 170.527C27.349 170.382 27.1367 170.309 26.8477 170.309C26.6133 170.309 26.4076 170.371 26.2305 170.496C26.0534 170.621 25.9154 170.785 25.8164 170.988V174H25.0938V168H25.8164V170.285ZM33.2422 173.004L34.0547 169.773H34.7773L33.5469 174H32.9609L31.9336 170.797L30.9336 174H30.3477L29.1211 169.773H29.8398L30.6719 172.938L31.6562 169.773H32.2383L33.2422 173.004ZM38.125 174C38.0833 173.917 38.0495 173.768 38.0234 173.555C37.6875 173.904 37.2865 174.078 36.8203 174.078C36.4036 174.078 36.0612 173.961 35.793 173.727C35.5273 173.49 35.3945 173.19 35.3945 172.828C35.3945 172.388 35.5612 172.047 35.8945 171.805C36.2305 171.56 36.7018 171.438 37.3086 171.438H38.0117V171.105C38.0117 170.853 37.9362 170.652 37.7852 170.504C37.6341 170.353 37.4115 170.277 37.1172 170.277C36.8594 170.277 36.6432 170.342 36.4688 170.473C36.2943 170.603 36.207 170.76 36.207 170.945H35.4805C35.4805 170.734 35.5547 170.531 35.7031 170.336C35.8542 170.138 36.0573 169.982 36.3125 169.867C36.5703 169.753 36.8529 169.695 37.1602 169.695C37.6471 169.695 38.0286 169.818 38.3047 170.062C38.5807 170.305 38.724 170.639 38.7344 171.066V173.012C38.7344 173.4 38.7839 173.708 38.8828 173.938V174H38.125ZM36.9258 173.449C37.1523 173.449 37.3672 173.391 37.5703 173.273C37.7734 173.156 37.9206 173.004 38.0117 172.816V171.949H37.4453C36.5599 171.949 36.1172 172.208 36.1172 172.727C36.1172 172.953 36.1927 173.13 36.3438 173.258C36.4948 173.385 36.6888 173.449 36.9258 173.449ZM45.1016 171.488H42.7148V174H41.9648V168.312H45.4883V168.93H42.7148V170.875H45.1016V171.488ZM45.9961 171.848C45.9961 171.434 46.0768 171.061 46.2383 170.73C46.4023 170.4 46.6289 170.145 46.918 169.965C47.2096 169.785 47.5417 169.695 47.9141 169.695C48.4896 169.695 48.9544 169.895 49.3086 170.293C49.6654 170.691 49.8438 171.221 49.8438 171.883V171.934C49.8438 172.345 49.7643 172.715 49.6055 173.043C49.4492 173.368 49.224 173.622 48.9297 173.805C48.638 173.987 48.3021 174.078 47.9219 174.078C47.349 174.078 46.8841 173.879 46.5273 173.48C46.1732 173.082 45.9961 172.555 45.9961 171.898V171.848ZM46.7227 171.934C46.7227 172.402 46.8307 172.779 47.0469 173.062C47.2656 173.346 47.5573 173.488 47.9219 173.488C48.2891 173.488 48.5807 173.345 48.7969 173.059C49.013 172.77 49.1211 172.366 49.1211 171.848C49.1211 171.384 49.0104 171.009 48.7891 170.723C48.5703 170.434 48.2786 170.289 47.9141 170.289C47.5573 170.289 47.2695 170.431 47.0508 170.715C46.832 170.999 46.7227 171.405 46.7227 171.934ZM53.3594 173.582C53.0781 173.913 52.6654 174.078 52.1211 174.078C51.6706 174.078 51.3268 173.948 51.0898 173.688C50.8555 173.424 50.737 173.036 50.7344 172.523V169.773H51.457V172.504C51.457 173.145 51.7174 173.465 52.2383 173.465C52.7904 173.465 53.1576 173.259 53.3398 172.848V169.773H54.0625V174H53.375L53.3594 173.582ZM55.8477 169.773L55.8711 170.305C56.194 169.898 56.6159 169.695 57.1367 169.695C58.0299 169.695 58.4805 170.199 58.4883 171.207V174H57.7656V171.203C57.763 170.898 57.6927 170.673 57.5547 170.527C57.4193 170.382 57.207 170.309 56.918 170.309C56.6836 170.309 56.4779 170.371 56.3008 170.496C56.1237 170.621 55.9857 170.785 55.8867 170.988V174H55.1641V169.773H55.8477ZM59.4023 171.852C59.4023 171.203 59.556 170.682 59.8633 170.289C60.1706 169.893 60.5729 169.695 61.0703 169.695C61.5651 169.695 61.957 169.865 62.2461 170.203V168H62.9688V174H62.3047L62.2695 173.547C61.9805 173.901 61.5781 174.078 61.0625 174.078C60.5729 174.078 60.1732 173.878 59.8633 173.477C59.556 173.076 59.4023 172.552 59.4023 171.906V171.852ZM60.125 171.934C60.125 172.413 60.224 172.788 60.4219 173.059C60.6198 173.329 60.8932 173.465 61.2422 173.465C61.7005 173.465 62.0352 173.259 62.2461 172.848V170.906C62.0299 170.508 61.6979 170.309 61.25 170.309C60.8958 170.309 60.6198 170.445 60.4219 170.719C60.224 170.992 60.125 171.397 60.125 171.934ZM66.7031 174C66.6615 173.917 66.6276 173.768 66.6016 173.555C66.2656 173.904 65.8646 174.078 65.3984 174.078C64.9818 174.078 64.6393 173.961 64.3711 173.727C64.1055 173.49 63.9727 173.19 63.9727 172.828C63.9727 172.388 64.1393 172.047 64.4727 171.805C64.8086 171.56 65.2799 171.438 65.8867 171.438H66.5898V171.105C66.5898 170.853 66.5143 170.652 66.3633 170.504C66.2122 170.353 65.9896 170.277 65.6953 170.277C65.4375 170.277 65.2214 170.342 65.0469 170.473C64.8724 170.603 64.7852 170.76 64.7852 170.945H64.0586C64.0586 170.734 64.1328 170.531 64.2812 170.336C64.4323 170.138 64.6354 169.982 64.8906 169.867C65.1484 169.753 65.431 169.695 65.7383 169.695C66.2253 169.695 66.6068 169.818 66.8828 170.062C67.1589 170.305 67.3021 170.639 67.3125 171.066V173.012C67.3125 173.4 67.362 173.708 67.4609 173.938V174H66.7031ZM65.5039 173.449C65.7305 173.449 65.9453 173.391 66.1484 173.273C66.3516 173.156 66.4987 173.004 66.5898 172.816V171.949H66.0234C65.138 171.949 64.6953 172.208 64.6953 172.727C64.6953 172.953 64.7708 173.13 64.9219 173.258C65.0729 173.385 65.2669 173.449 65.5039 173.449ZM69.4258 168.75V169.773H70.2148V170.332H69.4258V172.953C69.4258 173.122 69.4609 173.25 69.5312 173.336C69.6016 173.419 69.7214 173.461 69.8906 173.461C69.974 173.461 70.0885 173.445 70.2344 173.414V174C70.0443 174.052 69.8594 174.078 69.6797 174.078C69.3568 174.078 69.1133 173.98 68.9492 173.785C68.7852 173.59 68.7031 173.312 68.7031 172.953V170.332H67.9336V169.773H68.7031V168.75H69.4258ZM71.8477 174H71.125V169.773H71.8477V174ZM71.0664 168.652C71.0664 168.535 71.1016 168.436 71.1719 168.355C71.2448 168.275 71.3516 168.234 71.4922 168.234C71.6328 168.234 71.7396 168.275 71.8125 168.355C71.8854 168.436 71.9219 168.535 71.9219 168.652C71.9219 168.77 71.8854 168.867 71.8125 168.945C71.7396 169.023 71.6328 169.062 71.4922 169.062C71.3516 169.062 71.2448 169.023 71.1719 168.945C71.1016 168.867 71.0664 168.77 71.0664 168.652ZM72.8164 171.848C72.8164 171.434 72.8971 171.061 73.0586 170.73C73.2227 170.4 73.4492 170.145 73.7383 169.965C74.0299 169.785 74.362 169.695 74.7344 169.695C75.3099 169.695 75.7747 169.895 76.1289 170.293C76.4857 170.691 76.6641 171.221 76.6641 171.883V171.934C76.6641 172.345 76.5846 172.715 76.4258 173.043C76.2695 173.368 76.0443 173.622 75.75 173.805C75.4583 173.987 75.1224 174.078 74.7422 174.078C74.1693 174.078 73.7044 173.879 73.3477 173.48C72.9935 173.082 72.8164 172.555 72.8164 171.898V171.848ZM73.543 171.934C73.543 172.402 73.651 172.779 73.8672 173.062C74.0859 173.346 74.3776 173.488 74.7422 173.488C75.1094 173.488 75.401 173.345 75.6172 173.059C75.8333 172.77 75.9414 172.366 75.9414 171.848C75.9414 171.384 75.8307 171.009 75.6094 170.723C75.3906 170.434 75.099 170.289 74.7344 170.289C74.3776 170.289 74.0898 170.431 73.8711 170.715C73.6523 170.999 73.543 171.405 73.543 171.934ZM78.2539 169.773L78.2773 170.305C78.6003 169.898 79.0221 169.695 79.543 169.695C80.4362 169.695 80.8867 170.199 80.8945 171.207V174H80.1719V171.203C80.1693 170.898 80.099 170.673 79.9609 170.527C79.8255 170.382 79.6133 170.309 79.3242 170.309C79.0898 170.309 78.8841 170.371 78.707 170.496C78.5299 170.621 78.3919 170.785 78.293 170.988V174H77.5703V169.773H78.2539ZM87.6211 174H83.8945V173.48L85.8633 171.293C86.1549 170.962 86.3555 170.694 86.4648 170.488C86.5768 170.28 86.6328 170.065 86.6328 169.844C86.6328 169.547 86.543 169.303 86.3633 169.113C86.1836 168.923 85.944 168.828 85.6445 168.828C85.2852 168.828 85.0052 168.931 84.8047 169.137C84.6068 169.34 84.5078 169.624 84.5078 169.988H83.7852C83.7852 169.465 83.9531 169.042 84.2891 168.719C84.6276 168.396 85.0794 168.234 85.6445 168.234C86.1732 168.234 86.5911 168.374 86.8984 168.652C87.2057 168.928 87.3594 169.297 87.3594 169.758C87.3594 170.318 87.0026 170.984 86.2891 171.758L84.7656 173.41H87.6211V174ZM91.9531 171.574C91.9531 172.421 91.8086 173.049 91.5195 173.461C91.2305 173.872 90.7786 174.078 90.1641 174.078C89.5573 174.078 89.1081 173.878 88.8164 173.477C88.5247 173.073 88.3737 172.471 88.3633 171.672V170.707C88.3633 169.871 88.5078 169.25 88.7969 168.844C89.0859 168.438 89.5391 168.234 90.1562 168.234C90.7682 168.234 91.2188 168.431 91.5078 168.824C91.7969 169.215 91.9453 169.819 91.9531 170.637V171.574ZM91.2305 170.586C91.2305 169.974 91.1445 169.529 90.9727 169.25C90.8008 168.969 90.5286 168.828 90.1562 168.828C89.7865 168.828 89.5169 168.967 89.3477 169.246C89.1784 169.525 89.0911 169.953 89.0859 170.531V171.688C89.0859 172.302 89.1745 172.757 89.3516 173.051C89.5312 173.342 89.8021 173.488 90.1641 173.488C90.5208 173.488 90.7852 173.35 90.957 173.074C91.1315 172.798 91.2227 172.363 91.2305 171.77V170.586ZM96.6055 174H92.8789V173.48L94.8477 171.293C95.1393 170.962 95.3398 170.694 95.4492 170.488C95.5612 170.28 95.6172 170.065 95.6172 169.844C95.6172 169.547 95.5273 169.303 95.3477 169.113C95.168 168.923 94.9284 168.828 94.6289 168.828C94.2695 168.828 93.9896 168.931 93.7891 169.137C93.5911 169.34 93.4922 169.624 93.4922 169.988H92.7695C92.7695 169.465 92.9375 169.042 93.2734 168.719C93.612 168.396 94.0638 168.234 94.6289 168.234C95.1576 168.234 95.5755 168.374 95.8828 168.652C96.1901 168.928 96.3438 169.297 96.3438 169.758C96.3438 170.318 95.987 170.984 95.2734 171.758L93.75 173.41H96.6055V174ZM100.938 171.574C100.938 172.421 100.793 173.049 100.504 173.461C100.215 173.872 99.763 174.078 99.1484 174.078C98.5417 174.078 98.0924 173.878 97.8008 173.477C97.5091 173.073 97.3581 172.471 97.3477 171.672V170.707C97.3477 169.871 97.4922 169.25 97.7812 168.844C98.0703 168.438 98.5234 168.234 99.1406 168.234C99.7526 168.234 100.203 168.431 100.492 168.824C100.781 169.215 100.93 169.819 100.938 170.637V171.574ZM100.215 170.586C100.215 169.974 100.129 169.529 99.957 169.25C99.7852 168.969 99.513 168.828 99.1406 168.828C98.7708 168.828 98.5013 168.967 98.332 169.246C98.1628 169.525 98.0755 169.953 98.0703 170.531V171.688C98.0703 172.302 98.1589 172.757 98.3359 173.051C98.5156 173.342 98.7865 173.488 99.1484 173.488C99.5052 173.488 99.7695 173.35 99.9414 173.074C100.116 172.798 100.207 172.363 100.215 171.77V170.586Z" fill="white"/>
</g>
<defs>
<clipPath id="clip0">
<rect width="294.4" height="180" fill="white"/>
</clipPath>
</defs>
</svg>
