<svg width="823" height="70" viewBox="0 0 823 70" fill="none" xmlns="http://www.w3.org/2000/svg">
<path d="M24.64 53.36C21.232 53.36 18.064 52.664 15.136 51.272C12.256 49.88 9.712 47.96 7.504 45.512C5.344 43.064 3.64 40.28 2.392 37.16C1.192 34.04 0.592 30.728 0.592 27.224C0.592 23.768 1.192 20.504 2.392 17.432C3.592 14.312 5.296 11.576 7.504 9.224C9.712 6.824 12.28 4.952 15.208 3.608C18.184 2.216 21.424 1.52 24.928 1.52C29.776 1.52 33.856 2.552 37.168 4.616C40.48 6.632 43 9.32 44.728 12.68L38.536 17.144C37.144 14.36 35.224 12.272 32.776 10.88C30.328 9.488 27.64 8.792 24.712 8.792C21.496 8.792 18.688 9.68 16.288 11.456C13.888 13.184 12.04 15.464 10.744 18.296C9.448 21.128 8.8 24.176 8.8 27.44C8.8 30.896 9.52 34.04 10.96 36.872C12.4 39.656 14.344 41.888 16.792 43.568C19.288 45.248 22.12 46.088 25.288 46.088C30.568 46.088 35.32 43.568 39.544 38.528V33.128H28.816V27.152H46.312V53H39.544V46.664C35.272 51.128 30.304 53.36 24.64 53.36ZM75.67 22.184C72.598 22.28 69.862 23 67.462 24.344C65.11 25.64 63.43 27.512 62.422 29.96V53H54.502V15.344H61.846V23.768C63.142 21.176 64.846 19.112 66.958 17.576C69.07 15.992 71.302 15.128 73.654 14.984C74.086 14.984 74.47 14.984 74.806 14.984C75.142 14.984 75.43 15.008 75.67 15.056V22.184ZM78.6254 41.984C78.6254 39.584 79.2974 37.496 80.6414 35.72C81.9854 33.896 83.8574 32.504 86.2574 31.544C88.7054 30.536 91.5134 30.032 94.6814 30.032C96.3614 30.032 98.0654 30.176 99.7934 30.464C101.569 30.704 103.129 31.064 104.473 31.544V29.168C104.473 26.528 103.681 24.464 102.097 22.976C100.513 21.488 98.2334 20.744 95.2574 20.744C93.1934 20.744 91.2014 21.104 89.2814 21.824C87.3614 22.544 85.3694 23.6 83.3054 24.992L80.6414 19.664C83.1374 18.032 85.6334 16.808 88.1294 15.992C90.6734 15.128 93.3374 14.696 96.1214 14.696C101.161 14.696 105.121 16.04 108.001 18.728C110.929 21.368 112.393 25.136 112.393 30.032V44.072C112.393 44.984 112.537 45.632 112.825 46.016C113.161 46.4 113.713 46.616 114.481 46.664V53C113.761 53.144 113.113 53.24 112.537 53.288C111.961 53.336 111.481 53.36 111.097 53.36C109.369 53.36 108.073 52.952 107.209 52.136C106.393 51.272 105.913 50.312 105.769 49.256L105.553 47.096C103.921 49.208 101.833 50.84 99.2894 51.992C96.7454 53.144 94.1774 53.72 91.5854 53.72C89.0894 53.72 86.8574 53.216 84.8894 52.208C82.9214 51.152 81.3854 49.736 80.2814 47.96C79.1774 46.184 78.6254 44.192 78.6254 41.984ZM102.601 44.288C103.849 43.04 104.473 41.864 104.473 40.76V36.44C101.641 35.384 98.7614 34.856 95.8334 34.856C92.9534 34.856 90.6014 35.456 88.7774 36.656C87.0014 37.808 86.1134 39.368 86.1134 41.336C86.1134 42.968 86.7614 44.48 88.0574 45.872C89.4014 47.216 91.3214 47.888 93.8174 47.888C95.4974 47.888 97.1294 47.552 98.7134 46.88C100.297 46.208 101.593 45.344 102.601 44.288ZM179.602 53H171.682V31.904C171.682 28.448 171.106 25.904 169.954 24.272C168.802 22.592 167.122 21.752 164.914 21.752C162.706 21.752 160.642 22.592 158.722 24.272C156.85 25.904 155.53 28.04 154.762 30.68V53H146.842V31.904C146.842 28.352 146.266 25.784 145.114 24.2C143.962 22.568 142.306 21.752 140.146 21.752C137.938 21.752 135.874 22.568 133.954 24.2C132.082 25.832 130.738 27.968 129.922 30.608V53H122.002V15.344H129.202V22.904C130.642 20.264 132.586 18.248 135.034 16.856C137.482 15.416 140.266 14.696 143.386 14.696C146.506 14.696 148.954 15.512 150.73 17.144C152.554 18.776 153.682 20.816 154.114 23.264C157.378 17.552 162.106 14.696 168.298 14.696C171.274 14.696 173.578 15.416 175.21 16.856C176.842 18.248 177.97 20.12 178.594 22.472C179.266 24.776 179.602 27.296 179.602 30.032V53ZM207.526 53V1.88H228.982C231.286 1.88 233.398 2.36 235.318 3.32C237.286 4.28 238.966 5.552 240.358 7.136C241.798 8.72 242.902 10.496 243.67 12.464C244.438 14.432 244.822 16.448 244.822 18.512C244.822 21.392 244.174 24.104 242.878 26.648C241.582 29.192 239.782 31.256 237.478 32.84C235.174 34.424 232.486 35.216 229.414 35.216H215.59V53H207.526ZM215.59 28.088H228.91C231.166 28.088 233.014 27.176 234.454 25.352C235.894 23.528 236.614 21.248 236.614 18.512C236.614 16.64 236.23 15.008 235.462 13.616C234.694 12.176 233.686 11.048 232.438 10.232C231.238 9.416 229.918 9.008 228.478 9.008H215.59V28.088ZM248.219 41.984C248.219 39.584 248.891 37.496 250.235 35.72C251.579 33.896 253.451 32.504 255.851 31.544C258.299 30.536 261.107 30.032 264.275 30.032C265.955 30.032 267.659 30.176 269.387 30.464C271.163 30.704 272.723 31.064 274.067 31.544V29.168C274.067 26.528 273.275 24.464 271.691 22.976C270.107 21.488 267.827 20.744 264.851 20.744C262.787 20.744 260.795 21.104 258.875 21.824C256.955 22.544 254.963 23.6 252.899 24.992L250.235 19.664C252.731 18.032 255.227 16.808 257.723 15.992C260.267 15.128 262.931 14.696 265.715 14.696C270.755 14.696 274.715 16.04 277.595 18.728C280.523 21.368 281.987 25.136 281.987 30.032V44.072C281.987 44.984 282.131 45.632 282.419 46.016C282.755 46.4 283.307 46.616 284.075 46.664V53C283.355 53.144 282.707 53.24 282.131 53.288C281.555 53.336 281.075 53.36 280.691 53.36C278.963 53.36 277.667 52.952 276.803 52.136C275.987 51.272 275.507 50.312 275.363 49.256L275.147 47.096C273.515 49.208 271.427 50.84 268.883 51.992C266.339 53.144 263.771 53.72 261.179 53.72C258.683 53.72 256.451 53.216 254.483 52.208C252.515 51.152 250.979 49.736 249.875 47.96C248.771 46.184 248.219 44.192 248.219 41.984ZM272.195 44.288C273.443 43.04 274.067 41.864 274.067 40.76V36.44C271.235 35.384 268.355 34.856 265.427 34.856C262.547 34.856 260.195 35.456 258.371 36.656C256.595 37.808 255.707 39.368 255.707 41.336C255.707 42.968 256.355 44.48 257.651 45.872C258.995 47.216 260.915 47.888 263.411 47.888C265.091 47.888 266.723 47.552 268.307 46.88C269.891 46.208 271.187 45.344 272.195 44.288ZM325.364 53H317.444V31.904C317.444 28.352 316.868 25.784 315.716 24.2C314.612 22.568 312.956 21.752 310.748 21.752C309.212 21.752 307.676 22.136 306.14 22.904C304.652 23.672 303.308 24.728 302.108 26.072C300.908 27.416 300.044 28.928 299.516 30.608V53H291.596V15.344H298.796V22.904C300.236 20.408 302.324 18.416 305.06 16.928C307.796 15.44 310.82 14.696 314.132 14.696C317.108 14.696 319.412 15.416 321.044 16.856C322.676 18.248 323.804 20.096 324.428 22.4C325.052 24.704 325.364 27.248 325.364 30.032V53ZM351.621 53.72C347.733 53.72 344.325 52.832 341.397 51.056C338.469 49.232 336.189 46.832 334.557 43.856C332.925 40.88 332.109 37.64 332.109 34.136C332.109 30.632 332.901 27.416 334.485 24.488C336.117 21.512 338.373 19.136 341.253 17.36C344.181 15.584 347.637 14.696 351.621 14.696C355.509 14.696 358.845 15.56 361.629 17.288C364.461 18.968 366.573 21.224 367.965 24.056L360.261 26.504C359.397 24.92 358.173 23.696 356.589 22.832C355.053 21.92 353.349 21.464 351.477 21.464C349.365 21.464 347.445 22.016 345.717 23.12C344.037 24.176 342.693 25.664 341.685 27.584C340.725 29.504 340.245 31.688 340.245 34.136C340.245 36.584 340.749 38.768 341.757 40.688C342.813 42.608 344.181 44.144 345.861 45.296C347.589 46.4 349.485 46.952 351.549 46.952C353.469 46.952 355.293 46.448 357.021 45.44C358.749 44.432 359.901 43.208 360.477 41.768L368.253 44.072C367.005 46.904 364.917 49.232 361.989 51.056C359.061 52.832 355.605 53.72 351.621 53.72ZM408.543 53H400.623V31.904C400.623 28.496 399.999 25.952 398.751 24.272C397.503 22.592 395.751 21.752 393.495 21.752C392.055 21.752 390.591 22.136 389.103 22.904C387.663 23.672 386.367 24.728 385.215 26.072C384.063 27.368 383.223 28.88 382.695 30.608V53H374.775V0.439999H382.695V22.904C384.135 20.312 386.103 18.296 388.599 16.856C391.095 15.416 393.783 14.696 396.663 14.696C399.783 14.696 402.207 15.416 403.935 16.856C405.663 18.248 406.863 20.12 407.535 22.472C408.207 24.776 408.543 27.296 408.543 30.032V53ZM415 41.984C415 39.584 415.672 37.496 417.016 35.72C418.36 33.896 420.232 32.504 422.632 31.544C425.08 30.536 427.888 30.032 431.056 30.032C432.736 30.032 434.44 30.176 436.168 30.464C437.944 30.704 439.504 31.064 440.848 31.544V29.168C440.848 26.528 440.056 24.464 438.472 22.976C436.888 21.488 434.608 20.744 431.632 20.744C429.568 20.744 427.576 21.104 425.656 21.824C423.736 22.544 421.744 23.6 419.68 24.992L417.016 19.664C419.512 18.032 422.008 16.808 424.504 15.992C427.048 15.128 429.712 14.696 432.496 14.696C437.536 14.696 441.496 16.04 444.376 18.728C447.304 21.368 448.768 25.136 448.768 30.032V44.072C448.768 44.984 448.912 45.632 449.2 46.016C449.536 46.4 450.088 46.616 450.856 46.664V53C450.136 53.144 449.488 53.24 448.912 53.288C448.336 53.336 447.856 53.36 447.472 53.36C445.744 53.36 444.448 52.952 443.584 52.136C442.768 51.272 442.288 50.312 442.144 49.256L441.928 47.096C440.296 49.208 438.208 50.84 435.664 51.992C433.12 53.144 430.552 53.72 427.96 53.72C425.464 53.72 423.232 53.216 421.264 52.208C419.296 51.152 417.76 49.736 416.656 47.96C415.552 46.184 415 44.192 415 41.984ZM438.976 44.288C440.224 43.04 440.848 41.864 440.848 40.76V36.44C438.016 35.384 435.136 34.856 432.208 34.856C429.328 34.856 426.976 35.456 425.152 36.656C423.376 37.808 422.488 39.368 422.488 41.336C422.488 42.968 423.136 44.48 424.432 45.872C425.776 47.216 427.696 47.888 430.192 47.888C431.872 47.888 433.504 47.552 435.088 46.88C436.672 46.208 437.968 45.344 438.976 44.288ZM458.337 61.856C459.057 62 459.753 62.12 460.425 62.216C461.145 62.312 461.721 62.36 462.153 62.36C462.969 62.36 463.665 62.096 464.241 61.568C464.865 61.088 465.489 60.176 466.113 58.832C466.737 57.488 467.505 55.544 468.417 53L452.937 15.344H461.217L472.737 44.936L482.961 15.344H490.593L473.529 61.712C472.761 63.824 471.417 65.624 469.497 67.112C467.625 68.6 465.201 69.344 462.225 69.344C461.649 69.344 461.049 69.296 460.425 69.2C459.801 69.104 459.105 68.96 458.337 68.768V61.856ZM492.696 41.984C492.696 39.584 493.368 37.496 494.712 35.72C496.056 33.896 497.928 32.504 500.328 31.544C502.776 30.536 505.584 30.032 508.752 30.032C510.432 30.032 512.136 30.176 513.864 30.464C515.64 30.704 517.2 31.064 518.544 31.544V29.168C518.544 26.528 517.752 24.464 516.168 22.976C514.584 21.488 512.304 20.744 509.328 20.744C507.264 20.744 505.272 21.104 503.352 21.824C501.432 22.544 499.44 23.6 497.376 24.992L494.712 19.664C497.208 18.032 499.704 16.808 502.2 15.992C504.744 15.128 507.408 14.696 510.192 14.696C515.232 14.696 519.192 16.04 522.072 18.728C525 21.368 526.464 25.136 526.464 30.032V44.072C526.464 44.984 526.608 45.632 526.896 46.016C527.232 46.4 527.784 46.616 528.552 46.664V53C527.832 53.144 527.184 53.24 526.608 53.288C526.032 53.336 525.552 53.36 525.168 53.36C523.44 53.36 522.144 52.952 521.28 52.136C520.464 51.272 519.984 50.312 519.84 49.256L519.624 47.096C517.992 49.208 515.904 50.84 513.36 51.992C510.816 53.144 508.248 53.72 505.656 53.72C503.16 53.72 500.928 53.216 498.96 52.208C496.992 51.152 495.456 49.736 494.352 47.96C493.248 46.184 492.696 44.192 492.696 41.984ZM516.672 44.288C517.92 43.04 518.544 41.864 518.544 40.76V36.44C515.712 35.384 512.832 34.856 509.904 34.856C507.024 34.856 504.672 35.456 502.848 36.656C501.072 37.808 500.184 39.368 500.184 41.336C500.184 42.968 500.832 44.48 502.128 45.872C503.472 47.216 505.392 47.888 507.888 47.888C509.568 47.888 511.2 47.552 512.784 46.88C514.368 46.208 515.664 45.344 516.672 44.288ZM556.743 51.056C555.735 51.536 554.343 52.088 552.567 52.712C550.791 53.288 548.895 53.576 546.879 53.576C544.383 53.576 542.223 52.904 540.399 51.56C538.623 50.216 537.735 48.032 537.735 45.008V21.464H532.767V15.344H537.735V2.96H545.655V15.344H553.863V21.464H545.655V42.488C545.751 43.832 546.159 44.816 546.879 45.44C547.647 46.016 548.583 46.304 549.687 46.304C550.791 46.304 551.847 46.112 552.855 45.728C553.863 45.344 554.607 45.032 555.087 44.792L556.743 51.056ZM601.906 53.36C598.498 53.36 595.33 52.664 592.402 51.272C589.522 49.88 586.978 47.96 584.77 45.512C582.61 43.064 580.906 40.28 579.658 37.16C578.458 34.04 577.858 30.728 577.858 27.224C577.858 23.768 578.458 20.504 579.658 17.432C580.858 14.312 582.562 11.576 584.77 9.224C586.978 6.824 589.546 4.952 592.474 3.608C595.45 2.216 598.69 1.52 602.194 1.52C607.042 1.52 611.122 2.552 614.434 4.616C617.746 6.632 620.266 9.32 621.994 12.68L615.802 17.144C614.41 14.36 612.49 12.272 610.042 10.88C607.594 9.488 604.906 8.792 601.978 8.792C598.762 8.792 595.954 9.68 593.554 11.456C591.154 13.184 589.306 15.464 588.01 18.296C586.714 21.128 586.066 24.176 586.066 27.44C586.066 30.896 586.786 34.04 588.226 36.872C589.666 39.656 591.61 41.888 594.058 43.568C596.554 45.248 599.386 46.088 602.554 46.088C607.834 46.088 612.586 43.568 616.81 38.528V33.128H606.082V27.152H623.578V53H616.81V46.664C612.538 51.128 607.57 53.36 601.906 53.36ZM631.408 38.384V15.344H639.328V36.8C639.328 43.568 641.728 46.952 646.528 46.952C648.784 46.952 650.92 46.256 652.936 44.864C654.952 43.424 656.512 41.408 657.616 38.816V15.344H665.536V44.072C665.536 44.984 665.704 45.632 666.04 46.016C666.376 46.4 666.928 46.616 667.696 46.664V53C666.88 53.144 666.208 53.24 665.68 53.288C665.152 53.336 664.648 53.36 664.168 53.36C662.728 53.36 661.528 52.976 660.568 52.208C659.608 51.44 659.056 50.408 658.912 49.112L658.768 45.368C657.088 48.104 654.904 50.192 652.216 51.632C649.528 53.024 646.576 53.72 643.36 53.72C639.424 53.72 636.448 52.424 634.432 49.832C632.416 47.24 631.408 43.424 631.408 38.384ZM676.075 9.152V0.439999H683.995V9.152H676.075ZM671.683 66.752C669.955 66.752 668.323 66.488 666.787 65.96C665.203 65.432 663.811 64.616 662.611 63.512L666.139 58.184C666.763 58.76 667.483 59.168 668.299 59.408C669.115 59.696 669.931 59.84 670.747 59.84C672.139 59.84 673.363 59.312 674.419 58.256C675.523 57.248 676.075 55.952 676.075 54.368V15.344H683.995V53.792C683.995 56.336 683.419 58.568 682.267 60.488C681.163 62.456 679.675 63.992 677.803 65.096C675.931 66.2 673.891 66.752 671.683 66.752ZM690.766 41.984C690.766 39.584 691.438 37.496 692.782 35.72C694.126 33.896 695.998 32.504 698.398 31.544C700.846 30.536 703.654 30.032 706.822 30.032C708.502 30.032 710.206 30.176 711.934 30.464C713.71 30.704 715.27 31.064 716.614 31.544V29.168C716.614 26.528 715.822 24.464 714.238 22.976C712.654 21.488 710.374 20.744 707.398 20.744C705.334 20.744 703.342 21.104 701.422 21.824C699.502 22.544 697.51 23.6 695.446 24.992L692.782 19.664C695.278 18.032 697.774 16.808 700.27 15.992C702.814 15.128 705.478 14.696 708.262 14.696C713.302 14.696 717.262 16.04 720.142 18.728C723.07 21.368 724.534 25.136 724.534 30.032V44.072C724.534 44.984 724.678 45.632 724.966 46.016C725.302 46.4 725.854 46.616 726.622 46.664V53C725.902 53.144 725.254 53.24 724.678 53.288C724.102 53.336 723.622 53.36 723.238 53.36C721.51 53.36 720.214 52.952 719.35 52.136C718.534 51.272 718.054 50.312 717.91 49.256L717.694 47.096C716.062 49.208 713.974 50.84 711.43 51.992C708.886 53.144 706.318 53.72 703.726 53.72C701.23 53.72 698.998 53.216 697.03 52.208C695.062 51.152 693.526 49.736 692.422 47.96C691.318 46.184 690.766 44.192 690.766 41.984ZM714.742 44.288C715.99 43.04 716.614 41.864 716.614 40.76V36.44C713.782 35.384 710.902 34.856 707.974 34.856C705.094 34.856 702.742 35.456 700.918 36.656C699.142 37.808 698.254 39.368 698.254 41.336C698.254 42.968 698.902 44.48 700.198 45.872C701.542 47.216 703.462 47.888 705.958 47.888C707.638 47.888 709.27 47.552 710.854 46.88C712.438 46.208 713.734 45.344 714.742 44.288ZM755.311 22.184C752.239 22.28 749.503 23 747.103 24.344C744.751 25.64 743.071 27.512 742.063 29.96V53H734.143V15.344H741.487V23.768C742.783 21.176 744.487 19.112 746.599 17.576C748.711 15.992 750.943 15.128 753.295 14.984C753.727 14.984 754.111 14.984 754.447 14.984C754.783 14.984 755.071 15.008 755.311 15.056V22.184ZM758.266 41.984C758.266 39.584 758.938 37.496 760.282 35.72C761.626 33.896 763.498 32.504 765.898 31.544C768.346 30.536 771.154 30.032 774.322 30.032C776.002 30.032 777.706 30.176 779.434 30.464C781.21 30.704 782.77 31.064 784.114 31.544V29.168C784.114 26.528 783.322 24.464 781.738 22.976C780.154 21.488 777.874 20.744 774.898 20.744C772.834 20.744 770.842 21.104 768.922 21.824C767.002 22.544 765.01 23.6 762.946 24.992L760.282 19.664C762.778 18.032 765.274 16.808 767.77 15.992C770.314 15.128 772.978 14.696 775.762 14.696C780.802 14.696 784.762 16.04 787.642 18.728C790.57 21.368 792.034 25.136 792.034 30.032V44.072C792.034 44.984 792.178 45.632 792.466 46.016C792.802 46.4 793.354 46.616 794.122 46.664V53C793.402 53.144 792.754 53.24 792.178 53.288C791.602 53.336 791.122 53.36 790.738 53.36C789.01 53.36 787.714 52.952 786.85 52.136C786.034 51.272 785.554 50.312 785.41 49.256L785.194 47.096C783.562 49.208 781.474 50.84 778.93 51.992C776.386 53.144 773.818 53.72 771.226 53.72C768.73 53.72 766.498 53.216 764.53 52.208C762.562 51.152 761.026 49.736 759.922 47.96C758.818 46.184 758.266 44.192 758.266 41.984ZM782.242 44.288C783.49 43.04 784.114 41.864 784.114 40.76V36.44C781.282 35.384 778.402 34.856 775.474 34.856C772.594 34.856 770.242 35.456 768.418 36.656C766.642 37.808 765.754 39.368 765.754 41.336C765.754 42.968 766.402 44.48 767.698 45.872C769.042 47.216 770.962 47.888 773.458 47.888C775.138 47.888 776.77 47.552 778.354 46.88C779.938 46.208 781.234 45.344 782.242 44.288ZM822.313 51.056C821.305 51.536 819.913 52.088 818.137 52.712C816.361 53.288 814.465 53.576 812.449 53.576C809.953 53.576 807.793 52.904 805.969 51.56C804.193 50.216 803.305 48.032 803.305 45.008V21.464H798.337V15.344H803.305V2.96H811.225V15.344H819.433V21.464H811.225V42.488C811.321 43.832 811.729 44.816 812.449 45.44C813.217 46.016 814.153 46.304 815.257 46.304C816.361 46.304 817.417 46.112 818.425 45.728C819.433 45.344 820.177 45.032 820.657 44.792L822.313 51.056Z" fill="#01579B"/>
</svg>
