<svg viewBox="0 0 997 180" fill="none" xmlns="http://www.w3.org/2000/svg">
<g clip-path="url(#clip0)">
<path d="M997.013 180L562.468 -172H-15.2293V180H997.013Z" fill="black"/>
</g>
<path d="M36.64 110.36C33.232 110.36 30.064 109.664 27.136 108.272C24.256 106.88 21.712 104.96 19.504 102.512C17.344 100.064 15.64 97.28 14.392 94.16C13.192 91.04 12.592 87.728 12.592 84.224C12.592 80.768 13.192 77.504 14.392 74.432C15.592 71.312 17.296 68.576 19.504 66.224C21.712 63.824 24.28 61.952 27.208 60.608C30.184 59.216 33.424 58.52 36.928 58.52C41.776 58.52 45.856 59.552 49.168 61.616C52.48 63.632 55 66.32 56.728 69.68L50.536 74.144C49.144 71.36 47.224 69.272 44.776 67.88C42.328 66.488 39.64 65.792 36.712 65.792C33.496 65.792 30.688 66.68 28.288 68.456C25.888 70.184 24.04 72.464 22.744 75.296C21.448 78.128 20.8 81.176 20.8 84.44C20.8 87.896 21.52 91.04 22.96 93.872C24.4 96.656 26.344 98.888 28.792 100.568C31.288 102.248 34.12 103.088 37.288 103.088C42.568 103.088 47.32 100.568 51.544 95.528V90.128H40.816V84.152H58.312V110H51.544V103.664C47.272 108.128 42.304 110.36 36.64 110.36ZM87.67 79.184C84.598 79.28 81.862 80 79.462 81.344C77.11 82.64 75.43 84.512 74.422 86.96V110H66.502V72.344H73.846V80.768C75.142 78.176 76.846 76.112 78.958 74.576C81.07 72.992 83.302 72.128 85.654 71.984C86.086 71.984 86.47 71.984 86.806 71.984C87.142 71.984 87.43 72.008 87.67 72.056V79.184ZM90.6254 98.984C90.6254 96.584 91.2974 94.496 92.6414 92.72C93.9854 90.896 95.8574 89.504 98.2574 88.544C100.705 87.536 103.513 87.032 106.681 87.032C108.361 87.032 110.065 87.176 111.793 87.464C113.569 87.704 115.129 88.064 116.473 88.544V86.168C116.473 83.528 115.681 81.464 114.097 79.976C112.513 78.488 110.233 77.744 107.257 77.744C105.193 77.744 103.201 78.104 101.281 78.824C99.3614 79.544 97.3694 80.6 95.3054 81.992L92.6414 76.664C95.1374 75.032 97.6334 73.808 100.129 72.992C102.673 72.128 105.337 71.696 108.121 71.696C113.161 71.696 117.121 73.04 120.001 75.728C122.929 78.368 124.393 82.136 124.393 87.032V101.072C124.393 101.984 124.537 102.632 124.825 103.016C125.161 103.4 125.713 103.616 126.481 103.664V110C125.761 110.144 125.113 110.24 124.537 110.288C123.961 110.336 123.481 110.36 123.097 110.36C121.369 110.36 120.073 109.952 119.209 109.136C118.393 108.272 117.913 107.312 117.769 106.256L117.553 104.096C115.921 106.208 113.833 107.84 111.289 108.992C108.745 110.144 106.177 110.72 103.585 110.72C101.089 110.72 98.8574 110.216 96.8894 109.208C94.9214 108.152 93.3854 106.736 92.2814 104.96C91.1774 103.184 90.6254 101.192 90.6254 98.984ZM114.601 101.288C115.849 100.04 116.473 98.864 116.473 97.76V93.44C113.641 92.384 110.761 91.856 107.833 91.856C104.953 91.856 102.601 92.456 100.777 93.656C99.0014 94.808 98.1134 96.368 98.1134 98.336C98.1134 99.968 98.7614 101.48 100.057 102.872C101.401 104.216 103.321 104.888 105.817 104.888C107.497 104.888 109.129 104.552 110.713 103.88C112.297 103.208 113.593 102.344 114.601 101.288ZM191.602 110H183.682V88.904C183.682 85.448 183.106 82.904 181.954 81.272C180.802 79.592 179.122 78.752 176.914 78.752C174.706 78.752 172.642 79.592 170.722 81.272C168.85 82.904 167.53 85.04 166.762 87.68V110H158.842V88.904C158.842 85.352 158.266 82.784 157.114 81.2C155.962 79.568 154.306 78.752 152.146 78.752C149.938 78.752 147.874 79.568 145.954 81.2C144.082 82.832 142.738 84.968 141.922 87.608V110H134.002V72.344H141.202V79.904C142.642 77.264 144.586 75.248 147.034 73.856C149.482 72.416 152.266 71.696 155.386 71.696C158.506 71.696 160.954 72.512 162.73 74.144C164.554 75.776 165.682 77.816 166.114 80.264C169.378 74.552 174.106 71.696 180.298 71.696C183.274 71.696 185.578 72.416 187.21 73.856C188.842 75.248 189.97 77.12 190.594 79.472C191.266 81.776 191.602 84.296 191.602 87.032V110ZM219.526 110V58.88H240.982C243.286 58.88 245.398 59.36 247.318 60.32C249.286 61.28 250.966 62.552 252.358 64.136C253.798 65.72 254.902 67.496 255.67 69.464C256.438 71.432 256.822 73.448 256.822 75.512C256.822 78.392 256.174 81.104 254.878 83.648C253.582 86.192 251.782 88.256 249.478 89.84C247.174 91.424 244.486 92.216 241.414 92.216H227.59V110H219.526ZM227.59 85.088H240.91C243.166 85.088 245.014 84.176 246.454 82.352C247.894 80.528 248.614 78.248 248.614 75.512C248.614 73.64 248.23 72.008 247.462 70.616C246.694 69.176 245.686 68.048 244.438 67.232C243.238 66.416 241.918 66.008 240.478 66.008H227.59V85.088ZM260.219 98.984C260.219 96.584 260.891 94.496 262.235 92.72C263.579 90.896 265.451 89.504 267.851 88.544C270.299 87.536 273.107 87.032 276.275 87.032C277.955 87.032 279.659 87.176 281.387 87.464C283.163 87.704 284.723 88.064 286.067 88.544V86.168C286.067 83.528 285.275 81.464 283.691 79.976C282.107 78.488 279.827 77.744 276.851 77.744C274.787 77.744 272.795 78.104 270.875 78.824C268.955 79.544 266.963 80.6 264.899 81.992L262.235 76.664C264.731 75.032 267.227 73.808 269.723 72.992C272.267 72.128 274.931 71.696 277.715 71.696C282.755 71.696 286.715 73.04 289.595 75.728C292.523 78.368 293.987 82.136 293.987 87.032V101.072C293.987 101.984 294.131 102.632 294.419 103.016C294.755 103.4 295.307 103.616 296.075 103.664V110C295.355 110.144 294.707 110.24 294.131 110.288C293.555 110.336 293.075 110.36 292.691 110.36C290.963 110.36 289.667 109.952 288.803 109.136C287.987 108.272 287.507 107.312 287.363 106.256L287.147 104.096C285.515 106.208 283.427 107.84 280.883 108.992C278.339 110.144 275.771 110.72 273.179 110.72C270.683 110.72 268.451 110.216 266.483 109.208C264.515 108.152 262.979 106.736 261.875 104.96C260.771 103.184 260.219 101.192 260.219 98.984ZM284.195 101.288C285.443 100.04 286.067 98.864 286.067 97.76V93.44C283.235 92.384 280.355 91.856 277.427 91.856C274.547 91.856 272.195 92.456 270.371 93.656C268.595 94.808 267.707 96.368 267.707 98.336C267.707 99.968 268.355 101.48 269.651 102.872C270.995 104.216 272.915 104.888 275.411 104.888C277.091 104.888 278.723 104.552 280.307 103.88C281.891 103.208 283.187 102.344 284.195 101.288ZM337.364 110H329.444V88.904C329.444 85.352 328.868 82.784 327.716 81.2C326.612 79.568 324.956 78.752 322.748 78.752C321.212 78.752 319.676 79.136 318.14 79.904C316.652 80.672 315.308 81.728 314.108 83.072C312.908 84.416 312.044 85.928 311.516 87.608V110H303.596V72.344H310.796V79.904C312.236 77.408 314.324 75.416 317.06 73.928C319.796 72.44 322.82 71.696 326.132 71.696C329.108 71.696 331.412 72.416 333.044 73.856C334.676 75.248 335.804 77.096 336.428 79.4C337.052 81.704 337.364 84.248 337.364 87.032V110ZM363.621 110.72C359.733 110.72 356.325 109.832 353.397 108.056C350.469 106.232 348.189 103.832 346.557 100.856C344.925 97.88 344.109 94.64 344.109 91.136C344.109 87.632 344.901 84.416 346.485 81.488C348.117 78.512 350.373 76.136 353.253 74.36C356.181 72.584 359.637 71.696 363.621 71.696C367.509 71.696 370.845 72.56 373.629 74.288C376.461 75.968 378.573 78.224 379.965 81.056L372.261 83.504C371.397 81.92 370.173 80.696 368.589 79.832C367.053 78.92 365.349 78.464 363.477 78.464C361.365 78.464 359.445 79.016 357.717 80.12C356.037 81.176 354.693 82.664 353.685 84.584C352.725 86.504 352.245 88.688 352.245 91.136C352.245 93.584 352.749 95.768 353.757 97.688C354.813 99.608 356.181 101.144 357.861 102.296C359.589 103.4 361.485 103.952 363.549 103.952C365.469 103.952 367.293 103.448 369.021 102.44C370.749 101.432 371.901 100.208 372.477 98.768L380.253 101.072C379.005 103.904 376.917 106.232 373.989 108.056C371.061 109.832 367.605 110.72 363.621 110.72ZM420.543 110H412.623V88.904C412.623 85.496 411.999 82.952 410.751 81.272C409.503 79.592 407.751 78.752 405.495 78.752C404.055 78.752 402.591 79.136 401.103 79.904C399.663 80.672 398.367 81.728 397.215 83.072C396.063 84.368 395.223 85.88 394.695 87.608V110H386.775V57.44H394.695V79.904C396.135 77.312 398.103 75.296 400.599 73.856C403.095 72.416 405.783 71.696 408.663 71.696C411.783 71.696 414.207 72.416 415.935 73.856C417.663 75.248 418.863 77.12 419.535 79.472C420.207 81.776 420.543 84.296 420.543 87.032V110ZM427 98.984C427 96.584 427.672 94.496 429.016 92.72C430.36 90.896 432.232 89.504 434.632 88.544C437.08 87.536 439.888 87.032 443.056 87.032C444.736 87.032 446.44 87.176 448.168 87.464C449.944 87.704 451.504 88.064 452.848 88.544V86.168C452.848 83.528 452.056 81.464 450.472 79.976C448.888 78.488 446.608 77.744 443.632 77.744C441.568 77.744 439.576 78.104 437.656 78.824C435.736 79.544 433.744 80.6 431.68 81.992L429.016 76.664C431.512 75.032 434.008 73.808 436.504 72.992C439.048 72.128 441.712 71.696 444.496 71.696C449.536 71.696 453.496 73.04 456.376 75.728C459.304 78.368 460.768 82.136 460.768 87.032V101.072C460.768 101.984 460.912 102.632 461.2 103.016C461.536 103.4 462.088 103.616 462.856 103.664V110C462.136 110.144 461.488 110.24 460.912 110.288C460.336 110.336 459.856 110.36 459.472 110.36C457.744 110.36 456.448 109.952 455.584 109.136C454.768 108.272 454.288 107.312 454.144 106.256L453.928 104.096C452.296 106.208 450.208 107.84 447.664 108.992C445.12 110.144 442.552 110.72 439.96 110.72C437.464 110.72 435.232 110.216 433.264 109.208C431.296 108.152 429.76 106.736 428.656 104.96C427.552 103.184 427 101.192 427 98.984ZM450.976 101.288C452.224 100.04 452.848 98.864 452.848 97.76V93.44C450.016 92.384 447.136 91.856 444.208 91.856C441.328 91.856 438.976 92.456 437.152 93.656C435.376 94.808 434.488 96.368 434.488 98.336C434.488 99.968 435.136 101.48 436.432 102.872C437.776 104.216 439.696 104.888 442.192 104.888C443.872 104.888 445.504 104.552 447.088 103.88C448.672 103.208 449.968 102.344 450.976 101.288ZM470.337 118.856C471.057 119 471.753 119.12 472.425 119.216C473.145 119.312 473.721 119.36 474.153 119.36C474.969 119.36 475.665 119.096 476.241 118.568C476.865 118.088 477.489 117.176 478.113 115.832C478.737 114.488 479.505 112.544 480.417 110L464.937 72.344H473.217L484.737 101.936L494.961 72.344H502.593L485.529 118.712C484.761 120.824 483.417 122.624 481.497 124.112C479.625 125.6 477.201 126.344 474.225 126.344C473.649 126.344 473.049 126.296 472.425 126.2C471.801 126.104 471.105 125.96 470.337 125.768V118.856ZM504.696 98.984C504.696 96.584 505.368 94.496 506.712 92.72C508.056 90.896 509.928 89.504 512.328 88.544C514.776 87.536 517.584 87.032 520.752 87.032C522.432 87.032 524.136 87.176 525.864 87.464C527.64 87.704 529.2 88.064 530.544 88.544V86.168C530.544 83.528 529.752 81.464 528.168 79.976C526.584 78.488 524.304 77.744 521.328 77.744C519.264 77.744 517.272 78.104 515.352 78.824C513.432 79.544 511.44 80.6 509.376 81.992L506.712 76.664C509.208 75.032 511.704 73.808 514.2 72.992C516.744 72.128 519.408 71.696 522.192 71.696C527.232 71.696 531.192 73.04 534.072 75.728C537 78.368 538.464 82.136 538.464 87.032V101.072C538.464 101.984 538.608 102.632 538.896 103.016C539.232 103.4 539.784 103.616 540.552 103.664V110C539.832 110.144 539.184 110.24 538.608 110.288C538.032 110.336 537.552 110.36 537.168 110.36C535.44 110.36 534.144 109.952 533.28 109.136C532.464 108.272 531.984 107.312 531.84 106.256L531.624 104.096C529.992 106.208 527.904 107.84 525.36 108.992C522.816 110.144 520.248 110.72 517.656 110.72C515.16 110.72 512.928 110.216 510.96 109.208C508.992 108.152 507.456 106.736 506.352 104.96C505.248 103.184 504.696 101.192 504.696 98.984ZM528.672 101.288C529.92 100.04 530.544 98.864 530.544 97.76V93.44C527.712 92.384 524.832 91.856 521.904 91.856C519.024 91.856 516.672 92.456 514.848 93.656C513.072 94.808 512.184 96.368 512.184 98.336C512.184 99.968 512.832 101.48 514.128 102.872C515.472 104.216 517.392 104.888 519.888 104.888C521.568 104.888 523.2 104.552 524.784 103.88C526.368 103.208 527.664 102.344 528.672 101.288ZM568.743 108.056C567.735 108.536 566.343 109.088 564.567 109.712C562.791 110.288 560.895 110.576 558.879 110.576C556.383 110.576 554.223 109.904 552.399 108.56C550.623 107.216 549.735 105.032 549.735 102.008V78.464H544.767V72.344H549.735V59.96H557.655V72.344H565.863V78.464H557.655V99.488C557.751 100.832 558.159 101.816 558.879 102.44C559.647 103.016 560.583 103.304 561.687 103.304C562.791 103.304 563.847 103.112 564.855 102.728C565.863 102.344 566.607 102.032 567.087 101.792L568.743 108.056ZM613.906 110.36C610.498 110.36 607.33 109.664 604.402 108.272C601.522 106.88 598.978 104.96 596.77 102.512C594.61 100.064 592.906 97.28 591.658 94.16C590.458 91.04 589.858 87.728 589.858 84.224C589.858 80.768 590.458 77.504 591.658 74.432C592.858 71.312 594.562 68.576 596.77 66.224C598.978 63.824 601.546 61.952 604.474 60.608C607.45 59.216 610.69 58.52 614.194 58.52C619.042 58.52 623.122 59.552 626.434 61.616C629.746 63.632 632.266 66.32 633.994 69.68L627.802 74.144C626.41 71.36 624.49 69.272 622.042 67.88C619.594 66.488 616.906 65.792 613.978 65.792C610.762 65.792 607.954 66.68 605.554 68.456C603.154 70.184 601.306 72.464 600.01 75.296C598.714 78.128 598.066 81.176 598.066 84.44C598.066 87.896 598.786 91.04 600.226 93.872C601.666 96.656 603.61 98.888 606.058 100.568C608.554 102.248 611.386 103.088 614.554 103.088C619.834 103.088 624.586 100.568 628.81 95.528V90.128H618.082V84.152H635.578V110H628.81V103.664C624.538 108.128 619.57 110.36 613.906 110.36ZM643.408 95.384V72.344H651.328V93.8C651.328 100.568 653.728 103.952 658.528 103.952C660.784 103.952 662.92 103.256 664.936 101.864C666.952 100.424 668.512 98.408 669.616 95.816V72.344H677.536V101.072C677.536 101.984 677.704 102.632 678.04 103.016C678.376 103.4 678.928 103.616 679.696 103.664V110C678.88 110.144 678.208 110.24 677.68 110.288C677.152 110.336 676.648 110.36 676.168 110.36C674.728 110.36 673.528 109.976 672.568 109.208C671.608 108.44 671.056 107.408 670.912 106.112L670.768 102.368C669.088 105.104 666.904 107.192 664.216 108.632C661.528 110.024 658.576 110.72 655.36 110.72C651.424 110.72 648.448 109.424 646.432 106.832C644.416 104.24 643.408 100.424 643.408 95.384ZM688.075 66.152V57.44H695.995V66.152H688.075ZM683.683 123.752C681.955 123.752 680.323 123.488 678.787 122.96C677.203 122.432 675.811 121.616 674.611 120.512L678.139 115.184C678.763 115.76 679.483 116.168 680.299 116.408C681.115 116.696 681.931 116.84 682.747 116.84C684.139 116.84 685.363 116.312 686.419 115.256C687.523 114.248 688.075 112.952 688.075 111.368V72.344H695.995V110.792C695.995 113.336 695.419 115.568 694.267 117.488C693.163 119.456 691.675 120.992 689.803 122.096C687.931 123.2 685.891 123.752 683.683 123.752ZM702.766 98.984C702.766 96.584 703.438 94.496 704.782 92.72C706.126 90.896 707.998 89.504 710.398 88.544C712.846 87.536 715.654 87.032 718.822 87.032C720.502 87.032 722.206 87.176 723.934 87.464C725.71 87.704 727.27 88.064 728.614 88.544V86.168C728.614 83.528 727.822 81.464 726.238 79.976C724.654 78.488 722.374 77.744 719.398 77.744C717.334 77.744 715.342 78.104 713.422 78.824C711.502 79.544 709.51 80.6 707.446 81.992L704.782 76.664C707.278 75.032 709.774 73.808 712.27 72.992C714.814 72.128 717.478 71.696 720.262 71.696C725.302 71.696 729.262 73.04 732.142 75.728C735.07 78.368 736.534 82.136 736.534 87.032V101.072C736.534 101.984 736.678 102.632 736.966 103.016C737.302 103.4 737.854 103.616 738.622 103.664V110C737.902 110.144 737.254 110.24 736.678 110.288C736.102 110.336 735.622 110.36 735.238 110.36C733.51 110.36 732.214 109.952 731.35 109.136C730.534 108.272 730.054 107.312 729.91 106.256L729.694 104.096C728.062 106.208 725.974 107.84 723.43 108.992C720.886 110.144 718.318 110.72 715.726 110.72C713.23 110.72 710.998 110.216 709.03 109.208C707.062 108.152 705.526 106.736 704.422 104.96C703.318 103.184 702.766 101.192 702.766 98.984ZM726.742 101.288C727.99 100.04 728.614 98.864 728.614 97.76V93.44C725.782 92.384 722.902 91.856 719.974 91.856C717.094 91.856 714.742 92.456 712.918 93.656C711.142 94.808 710.254 96.368 710.254 98.336C710.254 99.968 710.902 101.48 712.198 102.872C713.542 104.216 715.462 104.888 717.958 104.888C719.638 104.888 721.27 104.552 722.854 103.88C724.438 103.208 725.734 102.344 726.742 101.288ZM767.311 79.184C764.239 79.28 761.503 80 759.103 81.344C756.751 82.64 755.071 84.512 754.063 86.96V110H746.143V72.344H753.487V80.768C754.783 78.176 756.487 76.112 758.599 74.576C760.711 72.992 762.943 72.128 765.295 71.984C765.727 71.984 766.111 71.984 766.447 71.984C766.783 71.984 767.071 72.008 767.311 72.056V79.184ZM770.266 98.984C770.266 96.584 770.938 94.496 772.282 92.72C773.626 90.896 775.498 89.504 777.898 88.544C780.346 87.536 783.154 87.032 786.322 87.032C788.002 87.032 789.706 87.176 791.434 87.464C793.21 87.704 794.77 88.064 796.114 88.544V86.168C796.114 83.528 795.322 81.464 793.738 79.976C792.154 78.488 789.874 77.744 786.898 77.744C784.834 77.744 782.842 78.104 780.922 78.824C779.002 79.544 777.01 80.6 774.946 81.992L772.282 76.664C774.778 75.032 777.274 73.808 779.77 72.992C782.314 72.128 784.978 71.696 787.762 71.696C792.802 71.696 796.762 73.04 799.642 75.728C802.57 78.368 804.034 82.136 804.034 87.032V101.072C804.034 101.984 804.178 102.632 804.466 103.016C804.802 103.4 805.354 103.616 806.122 103.664V110C805.402 110.144 804.754 110.24 804.178 110.288C803.602 110.336 803.122 110.36 802.738 110.36C801.01 110.36 799.714 109.952 798.85 109.136C798.034 108.272 797.554 107.312 797.41 106.256L797.194 104.096C795.562 106.208 793.474 107.84 790.93 108.992C788.386 110.144 785.818 110.72 783.226 110.72C780.73 110.72 778.498 110.216 776.53 109.208C774.562 108.152 773.026 106.736 771.922 104.96C770.818 103.184 770.266 101.192 770.266 98.984ZM794.242 101.288C795.49 100.04 796.114 98.864 796.114 97.76V93.44C793.282 92.384 790.402 91.856 787.474 91.856C784.594 91.856 782.242 92.456 780.418 93.656C778.642 94.808 777.754 96.368 777.754 98.336C777.754 99.968 778.402 101.48 779.698 102.872C781.042 104.216 782.962 104.888 785.458 104.888C787.138 104.888 788.77 104.552 790.354 103.88C791.938 103.208 793.234 102.344 794.242 101.288ZM834.313 108.056C833.305 108.536 831.913 109.088 830.137 109.712C828.361 110.288 826.465 110.576 824.449 110.576C821.953 110.576 819.793 109.904 817.969 108.56C816.193 107.216 815.305 105.032 815.305 102.008V78.464H810.337V72.344H815.305V59.96H823.225V72.344H831.433V78.464H823.225V99.488C823.321 100.832 823.729 101.816 824.449 102.44C825.217 103.016 826.153 103.304 827.257 103.304C828.361 103.304 829.417 103.112 830.425 102.728C831.433 102.344 832.177 102.032 832.657 101.792L834.313 108.056Z" fill="#01579B"/>
<defs>
<clipPath id="clip0">
<rect width="997" height="180" fill="white" transform="matrix(1 0 0 -1 0 180)"/>
</clipPath>
</defs>
</svg>
