<svg width="350" height="75" viewBox="0 0 350 75" fill="none" xmlns="http://www.w3.org/2000/svg">
<path d="M0 0H279.537L350 75H0V0Z" fill="black"/>
<path d="M0 0H279.537L350 75H0V0Z" fill="black"/>
<path d="M19.88 46.12C18.744 46.12 17.688 45.888 16.712 45.424C15.752 44.96 14.904 44.32 14.168 43.504C13.448 42.688 12.88 41.76 12.464 40.72C12.064 39.68 11.864 38.576 11.864 37.408C11.864 36.256 12.064 35.168 12.464 34.144C12.864 33.104 13.432 32.192 14.168 31.408C14.904 30.608 15.76 29.984 16.736 29.536C17.728 29.072 18.808 28.84 19.976 28.84C21.592 28.84 22.952 29.184 24.056 29.872C25.16 30.544 26 31.44 26.576 32.56L24.512 34.048C24.048 33.12 23.408 32.424 22.592 31.96C21.776 31.496 20.88 31.264 19.904 31.264C18.832 31.264 17.896 31.56 17.096 32.152C16.296 32.728 15.68 33.488 15.248 34.432C14.816 35.376 14.6 36.392 14.6 37.48C14.6 38.632 14.84 39.68 15.32 40.624C15.8 41.552 16.448 42.296 17.264 42.856C18.096 43.416 19.04 43.696 20.096 43.696C21.856 43.696 23.44 42.856 24.848 41.176V39.376H21.272V37.384H27.104V46H24.848V43.888C23.424 45.376 21.768 46.12 19.88 46.12ZM36.89 35.728C35.866 35.76 34.954 36 34.154 36.448C33.37 36.88 32.81 37.504 32.474 38.32V46H29.834V33.448H32.282V36.256C32.714 35.392 33.282 34.704 33.986 34.192C34.69 33.664 35.434 33.376 36.218 33.328C36.362 33.328 36.49 33.328 36.602 33.328C36.714 33.328 36.81 33.336 36.89 33.352V35.728ZM37.8751 42.328C37.8751 41.528 38.0991 40.832 38.5471 40.24C38.9951 39.632 39.6191 39.168 40.4191 38.848C41.2351 38.512 42.1711 38.344 43.2271 38.344C43.7871 38.344 44.3551 38.392 44.9311 38.488C45.5231 38.568 46.0431 38.688 46.4911 38.848V38.056C46.4911 37.176 46.2271 36.488 45.6991 35.992C45.1711 35.496 44.4111 35.248 43.4191 35.248C42.7311 35.248 42.0671 35.368 41.4271 35.608C40.7871 35.848 40.1231 36.2 39.4351 36.664L38.5471 34.888C39.3791 34.344 40.2111 33.936 41.0431 33.664C41.8911 33.376 42.7791 33.232 43.7071 33.232C45.3871 33.232 46.7071 33.68 47.6671 34.576C48.6431 35.456 49.1311 36.712 49.1311 38.344V43.024C49.1311 43.328 49.1791 43.544 49.2751 43.672C49.3871 43.8 49.5711 43.872 49.8271 43.888V46C49.5871 46.048 49.3711 46.08 49.1791 46.096C48.9871 46.112 48.8271 46.12 48.6991 46.12C48.1231 46.12 47.6911 45.984 47.4031 45.712C47.1311 45.424 46.9711 45.104 46.9231 44.752L46.8511 44.032C46.3071 44.736 45.6111 45.28 44.7631 45.664C43.9151 46.048 43.0591 46.24 42.1951 46.24C41.3631 46.24 40.6191 46.072 39.9631 45.736C39.3071 45.384 38.7951 44.912 38.4271 44.32C38.0591 43.728 37.8751 43.064 37.8751 42.328ZM45.8671 43.096C46.2831 42.68 46.4911 42.288 46.4911 41.92V40.48C45.5471 40.128 44.5871 39.952 43.6111 39.952C42.6511 39.952 41.8671 40.152 41.2591 40.552C40.6671 40.936 40.3711 41.456 40.3711 42.112C40.3711 42.656 40.5871 43.16 41.0191 43.624C41.4671 44.072 42.1071 44.296 42.9391 44.296C43.4991 44.296 44.0431 44.184 44.5711 43.96C45.0991 43.736 45.5311 43.448 45.8671 43.096ZM71.534 46H68.894V38.968C68.894 37.816 68.702 36.968 68.318 36.424C67.934 35.864 67.374 35.584 66.638 35.584C65.902 35.584 65.214 35.864 64.574 36.424C63.95 36.968 63.51 37.68 63.254 38.56V46H60.614V38.968C60.614 37.784 60.422 36.928 60.038 36.4C59.654 35.856 59.102 35.584 58.382 35.584C57.646 35.584 56.958 35.856 56.318 36.4C55.694 36.944 55.246 37.656 54.974 38.536V46H52.334V33.448H54.734V35.968C55.214 35.088 55.862 34.416 56.678 33.952C57.494 33.472 58.422 33.232 59.462 33.232C60.502 33.232 61.318 33.504 61.91 34.048C62.518 34.592 62.894 35.272 63.038 36.088C64.126 34.184 65.702 33.232 67.766 33.232C68.758 33.232 69.526 33.472 70.07 33.952C70.614 34.416 70.99 35.04 71.198 35.824C71.422 36.592 71.534 37.432 71.534 38.344V46ZM80.8419 46V28.96H87.9939C88.7619 28.96 89.4659 29.12 90.1059 29.44C90.7619 29.76 91.3219 30.184 91.7859 30.712C92.2659 31.24 92.6339 31.832 92.8899 32.488C93.1459 33.144 93.2739 33.816 93.2739 34.504C93.2739 35.464 93.0579 36.368 92.6259 37.216C92.1939 38.064 91.5939 38.752 90.8259 39.28C90.0579 39.808 89.1619 40.072 88.1379 40.072H83.5299V46H80.8419ZM83.5299 37.696H87.9699C88.7219 37.696 89.3379 37.392 89.8179 36.784C90.2979 36.176 90.5379 35.416 90.5379 34.504C90.5379 33.88 90.4099 33.336 90.1539 32.872C89.8979 32.392 89.5619 32.016 89.1459 31.744C88.7459 31.472 88.3059 31.336 87.8259 31.336H83.5299V37.696ZM94.4064 42.328C94.4064 41.528 94.6304 40.832 95.0784 40.24C95.5264 39.632 96.1504 39.168 96.9504 38.848C97.7664 38.512 98.7024 38.344 99.7584 38.344C100.318 38.344 100.886 38.392 101.462 38.488C102.054 38.568 102.574 38.688 103.022 38.848V38.056C103.022 37.176 102.758 36.488 102.23 35.992C101.702 35.496 100.942 35.248 99.9504 35.248C99.2624 35.248 98.5984 35.368 97.9584 35.608C97.3184 35.848 96.6544 36.2 95.9664 36.664L95.0784 34.888C95.9104 34.344 96.7424 33.936 97.5744 33.664C98.4224 33.376 99.3104 33.232 100.238 33.232C101.918 33.232 103.238 33.68 104.198 34.576C105.174 35.456 105.662 36.712 105.662 38.344V43.024C105.662 43.328 105.71 43.544 105.806 43.672C105.918 43.8 106.102 43.872 106.358 43.888V46C106.118 46.048 105.902 46.08 105.71 46.096C105.518 46.112 105.358 46.12 105.23 46.12C104.654 46.12 104.222 45.984 103.934 45.712C103.662 45.424 103.502 45.104 103.454 44.752L103.382 44.032C102.838 44.736 102.142 45.28 101.294 45.664C100.446 46.048 99.5904 46.24 98.7264 46.24C97.8944 46.24 97.1504 46.072 96.4944 45.736C95.8384 45.384 95.3264 44.912 94.9584 44.32C94.5904 43.728 94.4064 43.064 94.4064 42.328ZM102.398 43.096C102.814 42.68 103.022 42.288 103.022 41.92V40.48C102.078 40.128 101.118 39.952 100.142 39.952C99.1824 39.952 98.3984 40.152 97.7904 40.552C97.1984 40.936 96.9024 41.456 96.9024 42.112C96.9024 42.656 97.1184 43.16 97.5504 43.624C97.9984 44.072 98.6384 44.296 99.4704 44.296C100.03 44.296 100.574 44.184 101.102 43.96C101.63 43.736 102.062 43.448 102.398 43.096ZM120.121 46H117.481V38.968C117.481 37.784 117.289 36.928 116.905 36.4C116.537 35.856 115.985 35.584 115.249 35.584C114.737 35.584 114.225 35.712 113.713 35.968C113.217 36.224 112.769 36.576 112.369 37.024C111.969 37.472 111.681 37.976 111.505 38.536V46H108.865V33.448H111.265V35.968C111.745 35.136 112.441 34.472 113.353 33.976C114.265 33.48 115.273 33.232 116.377 33.232C117.369 33.232 118.137 33.472 118.681 33.952C119.225 34.416 119.601 35.032 119.809 35.8C120.017 36.568 120.121 37.416 120.121 38.344V46ZM128.874 46.24C127.578 46.24 126.442 45.944 125.466 45.352C124.49 44.744 123.73 43.944 123.186 42.952C122.642 41.96 122.37 40.88 122.37 39.712C122.37 38.544 122.634 37.472 123.162 36.496C123.706 35.504 124.458 34.712 125.418 34.12C126.394 33.528 127.546 33.232 128.874 33.232C130.17 33.232 131.282 33.52 132.21 34.096C133.154 34.656 133.858 35.408 134.322 36.352L131.754 37.168C131.466 36.64 131.058 36.232 130.53 35.944C130.018 35.64 129.45 35.488 128.826 35.488C128.122 35.488 127.482 35.672 126.906 36.04C126.346 36.392 125.898 36.888 125.562 37.528C125.242 38.168 125.082 38.896 125.082 39.712C125.082 40.528 125.25 41.256 125.586 41.896C125.938 42.536 126.394 43.048 126.954 43.432C127.53 43.8 128.162 43.984 128.85 43.984C129.49 43.984 130.098 43.816 130.674 43.48C131.25 43.144 131.634 42.736 131.826 42.256L134.418 43.024C134.002 43.968 133.306 44.744 132.33 45.352C131.354 45.944 130.202 46.24 128.874 46.24ZM147.848 46H145.208V38.968C145.208 37.832 145 36.984 144.584 36.424C144.168 35.864 143.584 35.584 142.832 35.584C142.352 35.584 141.864 35.712 141.368 35.968C140.888 36.224 140.456 36.576 140.072 37.024C139.688 37.456 139.408 37.96 139.232 38.536V46H136.592V28.48H139.232V35.968C139.712 35.104 140.368 34.432 141.2 33.952C142.032 33.472 142.928 33.232 143.888 33.232C144.928 33.232 145.736 33.472 146.312 33.952C146.888 34.416 147.288 35.04 147.512 35.824C147.736 36.592 147.848 37.432 147.848 38.344V46ZM150 42.328C150 41.528 150.224 40.832 150.672 40.24C151.12 39.632 151.744 39.168 152.544 38.848C153.36 38.512 154.296 38.344 155.352 38.344C155.912 38.344 156.48 38.392 157.056 38.488C157.648 38.568 158.168 38.688 158.616 38.848V38.056C158.616 37.176 158.352 36.488 157.824 35.992C157.296 35.496 156.536 35.248 155.544 35.248C154.856 35.248 154.192 35.368 153.552 35.608C152.912 35.848 152.248 36.2 151.56 36.664L150.672 34.888C151.504 34.344 152.336 33.936 153.168 33.664C154.016 33.376 154.904 33.232 155.832 33.232C157.512 33.232 158.832 33.68 159.792 34.576C160.768 35.456 161.256 36.712 161.256 38.344V43.024C161.256 43.328 161.304 43.544 161.4 43.672C161.512 43.8 161.696 43.872 161.952 43.888V46C161.712 46.048 161.496 46.08 161.304 46.096C161.112 46.112 160.952 46.12 160.824 46.12C160.248 46.12 159.816 45.984 159.528 45.712C159.256 45.424 159.096 45.104 159.048 44.752L158.976 44.032C158.432 44.736 157.736 45.28 156.888 45.664C156.04 46.048 155.184 46.24 154.32 46.24C153.488 46.24 152.744 46.072 152.088 45.736C151.432 45.384 150.92 44.912 150.552 44.32C150.184 43.728 150 43.064 150 42.328ZM157.992 43.096C158.408 42.68 158.616 42.288 158.616 41.92V40.48C157.672 40.128 156.712 39.952 155.736 39.952C154.776 39.952 153.992 40.152 153.384 40.552C152.792 40.936 152.496 41.456 152.496 42.112C152.496 42.656 152.712 43.16 153.144 43.624C153.592 44.072 154.232 44.296 155.064 44.296C155.624 44.296 156.168 44.184 156.696 43.96C157.224 43.736 157.656 43.448 157.992 43.096ZM164.446 48.952C164.686 49 164.918 49.04 165.142 49.072C165.382 49.104 165.574 49.12 165.718 49.12C165.99 49.12 166.222 49.032 166.414 48.856C166.622 48.696 166.83 48.392 167.038 47.944C167.246 47.496 167.502 46.848 167.806 46L162.646 33.448H165.406L169.246 43.312L172.654 33.448H175.198L169.51 48.904C169.254 49.608 168.806 50.208 168.166 50.704C167.542 51.2 166.734 51.448 165.742 51.448C165.55 51.448 165.35 51.432 165.142 51.4C164.934 51.368 164.702 51.32 164.446 51.256V48.952ZM175.899 42.328C175.899 41.528 176.123 40.832 176.571 40.24C177.019 39.632 177.643 39.168 178.443 38.848C179.259 38.512 180.195 38.344 181.251 38.344C181.811 38.344 182.379 38.392 182.955 38.488C183.547 38.568 184.067 38.688 184.515 38.848V38.056C184.515 37.176 184.251 36.488 183.723 35.992C183.195 35.496 182.435 35.248 181.443 35.248C180.755 35.248 180.091 35.368 179.451 35.608C178.811 35.848 178.147 36.2 177.459 36.664L176.571 34.888C177.403 34.344 178.235 33.936 179.067 33.664C179.915 33.376 180.803 33.232 181.731 33.232C183.411 33.232 184.731 33.68 185.691 34.576C186.667 35.456 187.155 36.712 187.155 38.344V43.024C187.155 43.328 187.203 43.544 187.299 43.672C187.411 43.8 187.595 43.872 187.851 43.888V46C187.611 46.048 187.395 46.08 187.203 46.096C187.011 46.112 186.851 46.12 186.723 46.12C186.147 46.12 185.715 45.984 185.427 45.712C185.155 45.424 184.995 45.104 184.947 44.752L184.875 44.032C184.331 44.736 183.635 45.28 182.787 45.664C181.939 46.048 181.083 46.24 180.219 46.24C179.387 46.24 178.643 46.072 177.987 45.736C177.331 45.384 176.819 44.912 176.451 44.32C176.083 43.728 175.899 43.064 175.899 42.328ZM183.891 43.096C184.307 42.68 184.515 42.288 184.515 41.92V40.48C183.571 40.128 182.611 39.952 181.635 39.952C180.675 39.952 179.891 40.152 179.283 40.552C178.691 40.936 178.395 41.456 178.395 42.112C178.395 42.656 178.611 43.16 179.043 43.624C179.491 44.072 180.131 44.296 180.963 44.296C181.523 44.296 182.067 44.184 182.595 43.96C183.123 43.736 183.555 43.448 183.891 43.096ZM197.248 45.352C196.912 45.512 196.448 45.696 195.856 45.904C195.264 46.096 194.632 46.192 193.96 46.192C193.128 46.192 192.408 45.968 191.8 45.52C191.208 45.072 190.912 44.344 190.912 43.336V35.488H189.256V33.448H190.912V29.32H193.552V33.448H196.288V35.488H193.552V42.496C193.584 42.944 193.72 43.272 193.96 43.48C194.216 43.672 194.528 43.768 194.896 43.768C195.264 43.768 195.616 43.704 195.952 43.576C196.288 43.448 196.536 43.344 196.696 43.264L197.248 45.352ZM212.302 46.12C211.166 46.12 210.11 45.888 209.134 45.424C208.174 44.96 207.326 44.32 206.59 43.504C205.87 42.688 205.302 41.76 204.886 40.72C204.486 39.68 204.286 38.576 204.286 37.408C204.286 36.256 204.486 35.168 204.886 34.144C205.286 33.104 205.854 32.192 206.59 31.408C207.326 30.608 208.182 29.984 209.158 29.536C210.15 29.072 211.23 28.84 212.398 28.84C214.014 28.84 215.374 29.184 216.478 29.872C217.582 30.544 218.422 31.44 218.998 32.56L216.934 34.048C216.47 33.12 215.83 32.424 215.014 31.96C214.198 31.496 213.302 31.264 212.326 31.264C211.254 31.264 210.318 31.56 209.518 32.152C208.718 32.728 208.102 33.488 207.67 34.432C207.238 35.376 207.022 36.392 207.022 37.48C207.022 38.632 207.262 39.68 207.742 40.624C208.222 41.552 208.87 42.296 209.686 42.856C210.518 43.416 211.462 43.696 212.518 43.696C214.278 43.696 215.862 42.856 217.27 41.176V39.376H213.694V37.384H219.526V46H217.27V43.888C215.846 45.376 214.19 46.12 212.302 46.12ZM222.136 41.128V33.448H224.776V40.6C224.776 42.856 225.576 43.984 227.176 43.984C227.928 43.984 228.64 43.752 229.312 43.288C229.984 42.808 230.504 42.136 230.872 41.272V33.448H233.512V43.024C233.512 43.328 233.568 43.544 233.68 43.672C233.792 43.8 233.976 43.872 234.232 43.888V46C233.96 46.048 233.736 46.08 233.56 46.096C233.384 46.112 233.216 46.12 233.056 46.12C232.576 46.12 232.176 45.992 231.856 45.736C231.536 45.48 231.352 45.136 231.304 44.704L231.256 43.456C230.696 44.368 229.968 45.064 229.072 45.544C228.176 46.008 227.192 46.24 226.12 46.24C224.808 46.24 223.816 45.808 223.144 44.944C222.472 44.08 222.136 42.808 222.136 41.128ZM237.025 31.384V28.48H239.665V31.384H237.025ZM235.561 50.584C234.985 50.584 234.441 50.496 233.929 50.32C233.401 50.144 232.937 49.872 232.537 49.504L233.713 47.728C233.921 47.92 234.161 48.056 234.433 48.136C234.705 48.232 234.977 48.28 235.249 48.28C235.713 48.28 236.121 48.104 236.473 47.752C236.841 47.416 237.025 46.984 237.025 46.456V33.448H239.665V46.264C239.665 47.112 239.473 47.856 239.089 48.496C238.721 49.152 238.225 49.664 237.601 50.032C236.977 50.4 236.297 50.584 235.561 50.584ZM241.922 42.328C241.922 41.528 242.146 40.832 242.594 40.24C243.042 39.632 243.666 39.168 244.466 38.848C245.282 38.512 246.218 38.344 247.274 38.344C247.834 38.344 248.402 38.392 248.978 38.488C249.57 38.568 250.09 38.688 250.538 38.848V38.056C250.538 37.176 250.274 36.488 249.746 35.992C249.218 35.496 248.458 35.248 247.466 35.248C246.778 35.248 246.114 35.368 245.474 35.608C244.834 35.848 244.17 36.2 243.482 36.664L242.594 34.888C243.426 34.344 244.258 33.936 245.09 33.664C245.938 33.376 246.826 33.232 247.754 33.232C249.434 33.232 250.754 33.68 251.714 34.576C252.69 35.456 253.178 36.712 253.178 38.344V43.024C253.178 43.328 253.226 43.544 253.322 43.672C253.434 43.8 253.618 43.872 253.874 43.888V46C253.634 46.048 253.418 46.08 253.226 46.096C253.034 46.112 252.874 46.12 252.746 46.12C252.17 46.12 251.738 45.984 251.45 45.712C251.178 45.424 251.018 45.104 250.97 44.752L250.898 44.032C250.354 44.736 249.658 45.28 248.81 45.664C247.962 46.048 247.106 46.24 246.242 46.24C245.41 46.24 244.666 46.072 244.01 45.736C243.354 45.384 242.842 44.912 242.474 44.32C242.106 43.728 241.922 43.064 241.922 42.328ZM249.914 43.096C250.33 42.68 250.538 42.288 250.538 41.92V40.48C249.594 40.128 248.634 39.952 247.658 39.952C246.698 39.952 245.914 40.152 245.306 40.552C244.714 40.936 244.418 41.456 244.418 42.112C244.418 42.656 244.634 43.16 245.066 43.624C245.514 44.072 246.154 44.296 246.986 44.296C247.546 44.296 248.09 44.184 248.618 43.96C249.146 43.736 249.578 43.448 249.914 43.096ZM263.437 35.728C262.413 35.76 261.501 36 260.701 36.448C259.917 36.88 259.357 37.504 259.021 38.32V46H256.381V33.448H258.829V36.256C259.261 35.392 259.829 34.704 260.533 34.192C261.237 33.664 261.981 33.376 262.765 33.328C262.909 33.328 263.037 33.328 263.149 33.328C263.261 33.328 263.357 33.336 263.437 33.352V35.728ZM264.422 42.328C264.422 41.528 264.646 40.832 265.094 40.24C265.542 39.632 266.166 39.168 266.966 38.848C267.782 38.512 268.718 38.344 269.774 38.344C270.334 38.344 270.902 38.392 271.478 38.488C272.07 38.568 272.59 38.688 273.038 38.848V38.056C273.038 37.176 272.774 36.488 272.246 35.992C271.718 35.496 270.958 35.248 269.966 35.248C269.278 35.248 268.614 35.368 267.974 35.608C267.334 35.848 266.67 36.2 265.982 36.664L265.094 34.888C265.926 34.344 266.758 33.936 267.59 33.664C268.438 33.376 269.326 33.232 270.254 33.232C271.934 33.232 273.254 33.68 274.214 34.576C275.19 35.456 275.678 36.712 275.678 38.344V43.024C275.678 43.328 275.726 43.544 275.822 43.672C275.934 43.8 276.118 43.872 276.374 43.888V46C276.134 46.048 275.918 46.08 275.726 46.096C275.534 46.112 275.374 46.12 275.246 46.12C274.67 46.12 274.238 45.984 273.95 45.712C273.678 45.424 273.518 45.104 273.47 44.752L273.398 44.032C272.854 44.736 272.158 45.28 271.31 45.664C270.462 46.048 269.606 46.24 268.742 46.24C267.91 46.24 267.166 46.072 266.51 45.736C265.854 45.384 265.342 44.912 264.974 44.32C264.606 43.728 264.422 43.064 264.422 42.328ZM272.414 43.096C272.83 42.68 273.038 42.288 273.038 41.92V40.48C272.094 40.128 271.134 39.952 270.158 39.952C269.198 39.952 268.414 40.152 267.806 40.552C267.214 40.936 266.918 41.456 266.918 42.112C266.918 42.656 267.134 43.16 267.566 43.624C268.014 44.072 268.654 44.296 269.486 44.296C270.046 44.296 270.59 44.184 271.118 43.96C271.646 43.736 272.078 43.448 272.414 43.096ZM285.771 45.352C285.435 45.512 284.971 45.696 284.379 45.904C283.787 46.096 283.155 46.192 282.483 46.192C281.651 46.192 280.931 45.968 280.323 45.52C279.731 45.072 279.435 44.344 279.435 43.336V35.488H277.779V33.448H279.435V29.32H282.075V33.448H284.811V35.488H282.075V42.496C282.107 42.944 282.243 43.272 282.483 43.48C282.739 43.672 283.051 43.768 283.419 43.768C283.787 43.768 284.139 43.704 284.475 43.576C284.811 43.448 285.059 43.344 285.219 43.264L285.771 45.352Z" fill="#01579B"/>
</svg>
