<svg width="250" height="150" viewBox="0 0 250 150" fill="none" xmlns="http://www.w3.org/2000/svg">
<path d="M0 0H199.669L250 150H0V0Z" fill="black"/>
<path d="M0 0H199.669L250 150H0V0Z" fill="black"/>
<path d="M14.66 75.09C13.808 75.09 13.016 74.916 12.284 74.568C11.564 74.22 10.928 73.74 10.376 73.128C9.836 72.516 9.41 71.82 9.098 71.04C8.798 70.26 8.648 69.432 8.648 68.556C8.648 67.692 8.798 66.876 9.098 66.108C9.398 65.328 9.824 64.644 10.376 64.056C10.928 63.456 11.57 62.988 12.302 62.652C13.046 62.304 13.856 62.13 14.732 62.13C15.944 62.13 16.964 62.388 17.792 62.904C18.62 63.408 19.25 64.08 19.682 64.92L18.134 66.036C17.786 65.34 17.306 64.818 16.694 64.47C16.082 64.122 15.41 63.948 14.678 63.948C13.874 63.948 13.172 64.17 12.572 64.614C11.972 65.046 11.51 65.616 11.186 66.324C10.862 67.032 10.7 67.794 10.7 68.61C10.7 69.474 10.88 70.26 11.24 70.968C11.6 71.664 12.086 72.222 12.698 72.642C13.322 73.062 14.03 73.272 14.822 73.272C16.142 73.272 17.33 72.642 18.386 71.382V70.032H15.704V68.538H20.078V75H18.386V73.416C17.318 74.532 16.076 75.09 14.66 75.09ZM27.4175 67.296C26.6495 67.32 25.9655 67.5 25.3655 67.836C24.7775 68.16 24.3575 68.628 24.1055 69.24V75H22.1255V65.586H23.9615V67.692C24.2855 67.044 24.7115 66.528 25.2395 66.144C25.7675 65.748 26.3255 65.532 26.9135 65.496C27.0215 65.496 27.1175 65.496 27.2015 65.496C27.2855 65.496 27.3575 65.502 27.4175 65.514V67.296ZM28.1563 72.246C28.1563 71.646 28.3243 71.124 28.6603 70.68C28.9963 70.224 29.4643 69.876 30.0643 69.636C30.6763 69.384 31.3783 69.258 32.1703 69.258C32.5903 69.258 33.0163 69.294 33.4483 69.366C33.8923 69.426 34.2823 69.516 34.6183 69.636V69.042C34.6183 68.382 34.4203 67.866 34.0243 67.494C33.6283 67.122 33.0583 66.936 32.3143 66.936C31.7983 66.936 31.3003 67.026 30.8203 67.206C30.3403 67.386 29.8423 67.65 29.3263 67.998L28.6603 66.666C29.2843 66.258 29.9083 65.952 30.5323 65.748C31.1683 65.532 31.8343 65.424 32.5303 65.424C33.7903 65.424 34.7803 65.76 35.5003 66.432C36.2323 67.092 36.5983 68.034 36.5983 69.258V72.768C36.5983 72.996 36.6343 73.158 36.7063 73.254C36.7903 73.35 36.9283 73.404 37.1203 73.416V75C36.9403 75.036 36.7783 75.06 36.6343 75.072C36.4903 75.084 36.3703 75.09 36.2743 75.09C35.8423 75.09 35.5183 74.988 35.3023 74.784C35.0983 74.568 34.9783 74.328 34.9423 74.064L34.8883 73.524C34.4803 74.052 33.9583 74.46 33.3223 74.748C32.6863 75.036 32.0443 75.18 31.3963 75.18C30.7723 75.18 30.2143 75.054 29.7223 74.802C29.2303 74.538 28.8463 74.184 28.5703 73.74C28.2943 73.296 28.1563 72.798 28.1563 72.246ZM34.1503 72.822C34.4623 72.51 34.6183 72.216 34.6183 71.94V70.86C33.9103 70.596 33.1903 70.464 32.4583 70.464C31.7383 70.464 31.1503 70.614 30.6943 70.914C30.2503 71.202 30.0283 71.592 30.0283 72.084C30.0283 72.492 30.1903 72.87 30.5143 73.218C30.8503 73.554 31.3303 73.722 31.9543 73.722C32.3743 73.722 32.7823 73.638 33.1783 73.47C33.5743 73.302 33.8983 73.086 34.1503 72.822ZM53.4005 75H51.4205V69.726C51.4205 68.862 51.2765 68.226 50.9885 67.818C50.7005 67.398 50.2805 67.188 49.7285 67.188C49.1765 67.188 48.6605 67.398 48.1805 67.818C47.7125 68.226 47.3825 68.76 47.1905 69.42V75H45.2105V69.726C45.2105 68.838 45.0665 68.196 44.7785 67.8C44.4905 67.392 44.0765 67.188 43.5365 67.188C42.9845 67.188 42.4685 67.392 41.9885 67.8C41.5205 68.208 41.1845 68.742 40.9805 69.402V75H39.0005V65.586H40.8005V67.476C41.1605 66.816 41.6465 66.312 42.2585 65.964C42.8705 65.604 43.5665 65.424 44.3465 65.424C45.1265 65.424 45.7385 65.628 46.1825 66.036C46.6385 66.444 46.9205 66.954 47.0285 67.566C47.8445 66.138 49.0265 65.424 50.5745 65.424C51.3185 65.424 51.8945 65.604 52.3025 65.964C52.7105 66.312 52.9925 66.78 53.1485 67.368C53.3165 67.944 53.4005 68.574 53.4005 69.258V75ZM60.3814 75V62.22H65.7454C66.3214 62.22 66.8494 62.34 67.3294 62.58C67.8214 62.82 68.2414 63.138 68.5894 63.534C68.9494 63.93 69.2254 64.374 69.4174 64.866C69.6094 65.358 69.7054 65.862 69.7054 66.378C69.7054 67.098 69.5434 67.776 69.2194 68.412C68.8954 69.048 68.4454 69.564 67.8694 69.96C67.2934 70.356 66.6214 70.554 65.8534 70.554H62.3974V75H60.3814ZM62.3974 68.772H65.7274C66.2914 68.772 66.7534 68.544 67.1134 68.088C67.4734 67.632 67.6534 67.062 67.6534 66.378C67.6534 65.91 67.5574 65.502 67.3654 65.154C67.1734 64.794 66.9214 64.512 66.6094 64.308C66.3094 64.104 65.9794 64.002 65.6194 64.002H62.3974V68.772ZM70.5548 72.246C70.5548 71.646 70.7228 71.124 71.0588 70.68C71.3948 70.224 71.8628 69.876 72.4628 69.636C73.0748 69.384 73.7768 69.258 74.5688 69.258C74.9888 69.258 75.4148 69.294 75.8468 69.366C76.2908 69.426 76.6808 69.516 77.0168 69.636V69.042C77.0168 68.382 76.8188 67.866 76.4228 67.494C76.0268 67.122 75.4568 66.936 74.7128 66.936C74.1968 66.936 73.6988 67.026 73.2188 67.206C72.7388 67.386 72.2408 67.65 71.7248 67.998L71.0588 66.666C71.6828 66.258 72.3068 65.952 72.9308 65.748C73.5668 65.532 74.2328 65.424 74.9288 65.424C76.1888 65.424 77.1788 65.76 77.8988 66.432C78.6308 67.092 78.9968 68.034 78.9968 69.258V72.768C78.9968 72.996 79.0328 73.158 79.1048 73.254C79.1888 73.35 79.3268 73.404 79.5188 73.416V75C79.3388 75.036 79.1768 75.06 79.0328 75.072C78.8888 75.084 78.7688 75.09 78.6728 75.09C78.2408 75.09 77.9168 74.988 77.7008 74.784C77.4968 74.568 77.3768 74.328 77.3408 74.064L77.2868 73.524C76.8788 74.052 76.3568 74.46 75.7208 74.748C75.0848 75.036 74.4428 75.18 73.7948 75.18C73.1708 75.18 72.6128 75.054 72.1208 74.802C71.6288 74.538 71.2448 74.184 70.9688 73.74C70.6928 73.296 70.5548 72.798 70.5548 72.246ZM76.5488 72.822C76.8608 72.51 77.0168 72.216 77.0168 71.94V70.86C76.3088 70.596 75.5888 70.464 74.8568 70.464C74.1368 70.464 73.5488 70.614 73.0928 70.914C72.6488 71.202 72.4268 71.592 72.4268 72.084C72.4268 72.492 72.5888 72.87 72.9128 73.218C73.2488 73.554 73.7288 73.722 74.3528 73.722C74.7728 73.722 75.1808 73.638 75.5768 73.47C75.9728 73.302 76.2968 73.086 76.5488 72.822ZM89.8409 75H87.8609V69.726C87.8609 68.838 87.7169 68.196 87.4289 67.8C87.1529 67.392 86.7389 67.188 86.1869 67.188C85.8029 67.188 85.4189 67.284 85.0349 67.476C84.6629 67.668 84.3269 67.932 84.0269 68.268C83.7269 68.604 83.5109 68.982 83.3789 69.402V75H81.3989V65.586H83.1989V67.476C83.5589 66.852 84.0809 66.354 84.7649 65.982C85.4489 65.61 86.2049 65.424 87.0329 65.424C87.7769 65.424 88.3529 65.604 88.7609 65.964C89.1689 66.312 89.4509 66.774 89.6069 67.35C89.7629 67.926 89.8409 68.562 89.8409 69.258V75ZM96.4052 75.18C95.4332 75.18 94.5812 74.958 93.8492 74.514C93.1172 74.058 92.5472 73.458 92.1392 72.714C91.7312 71.97 91.5272 71.16 91.5272 70.284C91.5272 69.408 91.7252 68.604 92.1212 67.872C92.5292 67.128 93.0932 66.534 93.8132 66.09C94.5452 65.646 95.4092 65.424 96.4052 65.424C97.3772 65.424 98.2112 65.64 98.9072 66.072C99.6152 66.492 100.143 67.056 100.491 67.764L98.5652 68.376C98.3492 67.98 98.0432 67.674 97.6472 67.458C97.2632 67.23 96.8372 67.116 96.3692 67.116C95.8412 67.116 95.3612 67.254 94.9292 67.53C94.5092 67.794 94.1732 68.166 93.9212 68.646C93.6812 69.126 93.5612 69.672 93.5612 70.284C93.5612 70.896 93.6872 71.442 93.9392 71.922C94.2032 72.402 94.5452 72.786 94.9652 73.074C95.3972 73.35 95.8712 73.488 96.3872 73.488C96.8672 73.488 97.3232 73.362 97.7552 73.11C98.1872 72.858 98.4752 72.552 98.6192 72.192L100.563 72.768C100.251 73.476 99.7292 74.058 98.9972 74.514C98.2652 74.958 97.4012 75.18 96.4052 75.18ZM110.636 75H108.656V69.726C108.656 68.874 108.5 68.238 108.188 67.818C107.876 67.398 107.438 67.188 106.874 67.188C106.514 67.188 106.148 67.284 105.776 67.476C105.416 67.668 105.092 67.932 104.804 68.268C104.516 68.592 104.306 68.97 104.174 69.402V75H102.194V61.86H104.174V67.476C104.534 66.828 105.026 66.324 105.65 65.964C106.274 65.604 106.946 65.424 107.666 65.424C108.446 65.424 109.052 65.604 109.484 65.964C109.916 66.312 110.216 66.78 110.384 67.368C110.552 67.944 110.636 68.574 110.636 69.258V75ZM112.25 72.246C112.25 71.646 112.418 71.124 112.754 70.68C113.09 70.224 113.558 69.876 114.158 69.636C114.77 69.384 115.472 69.258 116.264 69.258C116.684 69.258 117.11 69.294 117.542 69.366C117.986 69.426 118.376 69.516 118.712 69.636V69.042C118.712 68.382 118.514 67.866 118.118 67.494C117.722 67.122 117.152 66.936 116.408 66.936C115.892 66.936 115.394 67.026 114.914 67.206C114.434 67.386 113.936 67.65 113.42 67.998L112.754 66.666C113.378 66.258 114.002 65.952 114.626 65.748C115.262 65.532 115.928 65.424 116.624 65.424C117.884 65.424 118.874 65.76 119.594 66.432C120.326 67.092 120.692 68.034 120.692 69.258V72.768C120.692 72.996 120.728 73.158 120.8 73.254C120.884 73.35 121.022 73.404 121.214 73.416V75C121.034 75.036 120.872 75.06 120.728 75.072C120.584 75.084 120.464 75.09 120.368 75.09C119.936 75.09 119.612 74.988 119.396 74.784C119.192 74.568 119.072 74.328 119.036 74.064L118.982 73.524C118.574 74.052 118.052 74.46 117.416 74.748C116.78 75.036 116.138 75.18 115.49 75.18C114.866 75.18 114.308 75.054 113.816 74.802C113.324 74.538 112.94 74.184 112.664 73.74C112.388 73.296 112.25 72.798 112.25 72.246ZM118.244 72.822C118.556 72.51 118.712 72.216 118.712 71.94V70.86C118.004 70.596 117.284 70.464 116.552 70.464C115.832 70.464 115.244 70.614 114.788 70.914C114.344 71.202 114.122 71.592 114.122 72.084C114.122 72.492 114.284 72.87 114.608 73.218C114.944 73.554 115.424 73.722 116.048 73.722C116.468 73.722 116.876 73.638 117.272 73.47C117.668 73.302 117.992 73.086 118.244 72.822ZM123.084 77.214C123.264 77.25 123.438 77.28 123.606 77.304C123.786 77.328 123.93 77.34 124.038 77.34C124.242 77.34 124.416 77.274 124.56 77.142C124.716 77.022 124.872 76.794 125.028 76.458C125.184 76.122 125.376 75.636 125.604 75L121.734 65.586H123.804L126.684 72.984L129.24 65.586H131.148L126.882 77.178C126.69 77.706 126.354 78.156 125.874 78.528C125.406 78.9 124.8 79.086 124.056 79.086C123.912 79.086 123.762 79.074 123.606 79.05C123.45 79.026 123.276 78.99 123.084 78.942V77.214ZM131.674 72.246C131.674 71.646 131.842 71.124 132.178 70.68C132.514 70.224 132.982 69.876 133.582 69.636C134.194 69.384 134.896 69.258 135.688 69.258C136.108 69.258 136.534 69.294 136.966 69.366C137.41 69.426 137.8 69.516 138.136 69.636V69.042C138.136 68.382 137.938 67.866 137.542 67.494C137.146 67.122 136.576 66.936 135.832 66.936C135.316 66.936 134.818 67.026 134.338 67.206C133.858 67.386 133.36 67.65 132.844 67.998L132.178 66.666C132.802 66.258 133.426 65.952 134.05 65.748C134.686 65.532 135.352 65.424 136.048 65.424C137.308 65.424 138.298 65.76 139.018 66.432C139.75 67.092 140.116 68.034 140.116 69.258V72.768C140.116 72.996 140.152 73.158 140.224 73.254C140.308 73.35 140.446 73.404 140.638 73.416V75C140.458 75.036 140.296 75.06 140.152 75.072C140.008 75.084 139.888 75.09 139.792 75.09C139.36 75.09 139.036 74.988 138.82 74.784C138.616 74.568 138.496 74.328 138.46 74.064L138.406 73.524C137.998 74.052 137.476 74.46 136.84 74.748C136.204 75.036 135.562 75.18 134.914 75.18C134.29 75.18 133.732 75.054 133.24 74.802C132.748 74.538 132.364 74.184 132.088 73.74C131.812 73.296 131.674 72.798 131.674 72.246ZM137.668 72.822C137.98 72.51 138.136 72.216 138.136 71.94V70.86C137.428 70.596 136.708 70.464 135.976 70.464C135.256 70.464 134.668 70.614 134.212 70.914C133.768 71.202 133.546 71.592 133.546 72.084C133.546 72.492 133.708 72.87 134.032 73.218C134.368 73.554 134.848 73.722 135.472 73.722C135.892 73.722 136.3 73.638 136.696 73.47C137.092 73.302 137.416 73.086 137.668 72.822ZM147.686 74.514C147.434 74.634 147.086 74.772 146.642 74.928C146.198 75.072 145.724 75.144 145.22 75.144C144.596 75.144 144.056 74.976 143.6 74.64C143.156 74.304 142.934 73.758 142.934 73.002V67.116H141.692V65.586H142.934V62.49H144.914V65.586H146.966V67.116H144.914V72.372C144.938 72.708 145.04 72.954 145.22 73.11C145.412 73.254 145.646 73.326 145.922 73.326C146.198 73.326 146.462 73.278 146.714 73.182C146.966 73.086 147.152 73.008 147.272 72.948L147.686 74.514ZM158.976 75.09C158.124 75.09 157.332 74.916 156.6 74.568C155.88 74.22 155.244 73.74 154.692 73.128C154.152 72.516 153.726 71.82 153.414 71.04C153.114 70.26 152.964 69.432 152.964 68.556C152.964 67.692 153.114 66.876 153.414 66.108C153.714 65.328 154.14 64.644 154.692 64.056C155.244 63.456 155.886 62.988 156.618 62.652C157.362 62.304 158.172 62.13 159.048 62.13C160.26 62.13 161.28 62.388 162.108 62.904C162.936 63.408 163.566 64.08 163.998 64.92L162.45 66.036C162.102 65.34 161.622 64.818 161.01 64.47C160.398 64.122 159.726 63.948 158.994 63.948C158.19 63.948 157.488 64.17 156.888 64.614C156.288 65.046 155.826 65.616 155.502 66.324C155.178 67.032 155.016 67.794 155.016 68.61C155.016 69.474 155.196 70.26 155.556 70.968C155.916 71.664 156.402 72.222 157.014 72.642C157.638 73.062 158.346 73.272 159.138 73.272C160.458 73.272 161.646 72.642 162.702 71.382V70.032H160.02V68.538H164.394V75H162.702V73.416C161.634 74.532 160.392 75.09 158.976 75.09ZM166.352 71.346V65.586H168.332V70.95C168.332 72.642 168.932 73.488 170.132 73.488C170.696 73.488 171.23 73.314 171.734 72.966C172.238 72.606 172.628 72.102 172.904 71.454V65.586H174.884V72.768C174.884 72.996 174.926 73.158 175.01 73.254C175.094 73.35 175.232 73.404 175.424 73.416V75C175.22 75.036 175.052 75.06 174.92 75.072C174.788 75.084 174.662 75.09 174.542 75.09C174.182 75.09 173.882 74.994 173.642 74.802C173.402 74.61 173.264 74.352 173.228 74.028L173.192 73.092C172.772 73.776 172.226 74.298 171.554 74.658C170.882 75.006 170.144 75.18 169.34 75.18C168.356 75.18 167.612 74.856 167.108 74.208C166.604 73.56 166.352 72.606 166.352 71.346ZM177.519 64.038V61.86H179.499V64.038H177.519ZM176.421 78.438C175.989 78.438 175.581 78.372 175.197 78.24C174.801 78.108 174.453 77.904 174.153 77.628L175.035 76.296C175.191 76.44 175.371 76.542 175.575 76.602C175.779 76.674 175.983 76.71 176.187 76.71C176.535 76.71 176.841 76.578 177.105 76.314C177.381 76.062 177.519 75.738 177.519 75.342V65.586H179.499V75.198C179.499 75.834 179.355 76.392 179.067 76.872C178.791 77.364 178.419 77.748 177.951 78.024C177.483 78.3 176.973 78.438 176.421 78.438ZM181.192 72.246C181.192 71.646 181.36 71.124 181.696 70.68C182.032 70.224 182.5 69.876 183.1 69.636C183.712 69.384 184.414 69.258 185.206 69.258C185.626 69.258 186.052 69.294 186.484 69.366C186.928 69.426 187.318 69.516 187.654 69.636V69.042C187.654 68.382 187.456 67.866 187.06 67.494C186.664 67.122 186.094 66.936 185.35 66.936C184.834 66.936 184.336 67.026 183.856 67.206C183.376 67.386 182.878 67.65 182.362 67.998L181.696 66.666C182.32 66.258 182.944 65.952 183.568 65.748C184.204 65.532 184.87 65.424 185.566 65.424C186.826 65.424 187.816 65.76 188.536 66.432C189.268 67.092 189.634 68.034 189.634 69.258V72.768C189.634 72.996 189.67 73.158 189.742 73.254C189.826 73.35 189.964 73.404 190.156 73.416V75C189.976 75.036 189.814 75.06 189.67 75.072C189.526 75.084 189.406 75.09 189.31 75.09C188.878 75.09 188.554 74.988 188.338 74.784C188.134 74.568 188.014 74.328 187.978 74.064L187.924 73.524C187.516 74.052 186.994 74.46 186.358 74.748C185.722 75.036 185.08 75.18 184.432 75.18C183.808 75.18 183.25 75.054 182.758 74.802C182.266 74.538 181.882 74.184 181.606 73.74C181.33 73.296 181.192 72.798 181.192 72.246ZM187.186 72.822C187.498 72.51 187.654 72.216 187.654 71.94V70.86C186.946 70.596 186.226 70.464 185.494 70.464C184.774 70.464 184.186 70.614 183.73 70.914C183.286 71.202 183.063 71.592 183.063 72.084C183.063 72.492 183.226 72.87 183.55 73.218C183.886 73.554 184.366 73.722 184.99 73.722C185.41 73.722 185.818 73.638 186.214 73.47C186.61 73.302 186.934 73.086 187.186 72.822ZM197.328 67.296C196.56 67.32 195.876 67.5 195.276 67.836C194.688 68.16 194.268 68.628 194.016 69.24V75H192.036V65.586H193.872V67.692C194.196 67.044 194.622 66.528 195.15 66.144C195.678 65.748 196.236 65.532 196.824 65.496C196.932 65.496 197.028 65.496 197.112 65.496C197.196 65.496 197.268 65.502 197.328 65.514V67.296ZM198.067 72.246C198.067 71.646 198.235 71.124 198.571 70.68C198.907 70.224 199.375 69.876 199.975 69.636C200.587 69.384 201.289 69.258 202.081 69.258C202.501 69.258 202.927 69.294 203.359 69.366C203.803 69.426 204.193 69.516 204.529 69.636V69.042C204.529 68.382 204.331 67.866 203.935 67.494C203.539 67.122 202.969 66.936 202.225 66.936C201.709 66.936 201.211 67.026 200.731 67.206C200.251 67.386 199.753 67.65 199.237 67.998L198.571 66.666C199.195 66.258 199.819 65.952 200.443 65.748C201.079 65.532 201.745 65.424 202.441 65.424C203.701 65.424 204.691 65.76 205.411 66.432C206.143 67.092 206.509 68.034 206.509 69.258V72.768C206.509 72.996 206.545 73.158 206.617 73.254C206.701 73.35 206.839 73.404 207.031 73.416V75C206.851 75.036 206.689 75.06 206.545 75.072C206.401 75.084 206.281 75.09 206.185 75.09C205.753 75.09 205.429 74.988 205.213 74.784C205.009 74.568 204.889 74.328 204.853 74.064L204.799 73.524C204.391 74.052 203.869 74.46 203.233 74.748C202.597 75.036 201.955 75.18 201.307 75.18C200.683 75.18 200.125 75.054 199.633 74.802C199.141 74.538 198.757 74.184 198.481 73.74C198.205 73.296 198.067 72.798 198.067 72.246ZM204.061 72.822C204.373 72.51 204.529 72.216 204.529 71.94V70.86C203.821 70.596 203.101 70.464 202.369 70.464C201.649 70.464 201.061 70.614 200.605 70.914C200.161 71.202 199.938 71.592 199.938 72.084C199.938 72.492 200.101 72.87 200.425 73.218C200.761 73.554 201.241 73.722 201.865 73.722C202.285 73.722 202.693 73.638 203.089 73.47C203.485 73.302 203.809 73.086 204.061 72.822ZM214.078 74.514C213.826 74.634 213.478 74.772 213.034 74.928C212.59 75.072 212.116 75.144 211.612 75.144C210.988 75.144 210.448 74.976 209.992 74.64C209.548 74.304 209.326 73.758 209.326 73.002V67.116H208.084V65.586H209.326V62.49H211.306V65.586H213.358V67.116H211.306V72.372C211.33 72.708 211.432 72.954 211.612 73.11C211.804 73.254 212.038 73.326 212.314 73.326C212.59 73.326 212.854 73.278 213.106 73.182C213.358 73.086 213.544 73.008 213.664 72.948L214.078 74.514Z" fill="#01579B"/>
</svg>
