<svg viewBox="0 0 563 600" fill="none" xmlns="http://www.w3.org/2000/svg">
<path d="M281.362 584.306L281.361 582.431C285.089 582.43 288.872 582.353 292.608 582.204L292.684 584.077C288.923 584.228 285.114 584.305 281.362 584.306ZM270.043 584.089C266.295 583.942 262.493 583.718 258.742 583.422L258.889 581.553C262.616 581.848 266.393 582.07 270.116 582.216L270.043 584.089ZM303.985 583.397L303.836 581.528C307.556 581.231 311.321 580.853 315.025 580.405L315.251 582.267C311.521 582.717 307.731 583.097 303.985 583.397V583.397ZM247.475 582.305C243.737 581.857 239.964 581.329 236.262 580.735L236.559 578.884C240.237 579.474 243.984 579.999 247.697 580.443L247.475 582.305ZM326.461 580.684L326.161 578.833C329.838 578.239 333.56 577.559 337.225 576.814L337.599 578.65C333.91 579.402 330.162 580.086 326.461 580.684H326.461ZM225.121 578.713C221.432 577.966 217.715 577.134 214.071 576.243L214.517 574.421C218.136 575.308 221.829 576.134 225.493 576.875L225.121 578.713ZM348.647 576.167L348.198 574.347C351.828 573.454 355.483 572.475 359.062 571.438L359.584 573.24C355.98 574.283 352.3 575.268 348.647 576.167V576.167ZM203.13 573.326C199.516 572.283 195.877 571.153 192.317 569.969L192.909 568.189C196.446 569.367 200.06 570.489 203.65 571.525L203.13 573.326ZM370.393 569.868L369.799 568.09C373.338 566.908 376.901 565.636 380.392 564.31L381.058 566.062C377.544 567.397 373.955 568.678 370.393 569.868ZM181.619 566.164C178.102 564.831 174.56 563.406 171.09 561.928L171.824 560.203C175.271 561.672 178.79 563.087 182.284 564.41L181.619 566.164ZM391.53 561.84L390.794 560.116C394.221 558.652 397.662 557.1 401.021 555.503L401.826 557.196C398.445 558.804 394.98 560.366 391.53 561.84V561.84ZM160.743 557.271C157.337 555.654 153.924 553.948 150.596 552.198L151.469 550.54C154.774 552.276 158.164 553.972 161.546 555.577L160.743 557.271ZM411.931 552.139L411.058 550.48C414.36 548.743 417.667 546.917 420.887 545.054L421.826 546.676C418.584 548.552 415.255 550.39 411.931 552.139H411.931ZM140.666 546.722C137.399 544.833 134.136 542.858 130.968 540.85L131.971 539.267C135.118 541.261 138.359 543.223 141.604 545.1L140.666 546.722ZM431.497 540.818L430.494 539.234C433.637 537.243 436.788 535.157 439.861 533.032L440.927 534.574C437.834 536.713 434.661 538.814 431.497 540.818H431.497ZM121.516 534.596C118.416 532.454 115.324 530.224 112.325 527.967L113.452 526.47C116.431 528.711 119.502 530.926 122.581 533.054L121.516 534.596ZM450.102 527.955L448.974 526.458C451.946 524.223 454.922 521.889 457.819 519.522L459.006 520.974C456.089 523.357 453.093 525.705 450.102 527.955V527.955ZM103.409 520.976C100.499 518.597 97.5963 516.128 94.7829 513.634L96.026 512.232C98.8211 514.708 101.704 517.162 104.595 519.524L103.409 520.976ZM467.625 513.639L466.382 512.236C469.174 509.761 471.955 507.195 474.647 504.611L475.945 505.964C473.236 508.565 470.437 511.147 467.625 513.639H467.625ZM86.4589 505.956C83.7549 503.358 81.0604 500.665 78.4511 497.952L79.8022 496.652C82.3946 499.348 85.0711 502.024 87.7578 504.603L86.4589 505.956ZM483.953 497.959L482.602 496.659C485.186 493.972 487.754 491.192 490.235 488.395L491.637 489.64C489.14 492.454 486.555 495.253 483.953 497.959V497.959ZM70.771 489.637C68.2716 486.819 65.8023 483.92 63.431 481.02L64.8828 479.834C67.2376 482.715 69.6908 485.594 72.1734 488.392L70.771 489.637ZM498.983 481.018L497.531 479.832C499.9 476.936 502.238 473.957 504.481 470.979L505.978 472.107C503.721 475.105 501.367 478.103 498.983 481.018V481.018ZM56.4439 472.121C54.1848 469.121 51.9562 466.036 49.8206 462.951L51.3622 461.883C53.4836 464.949 55.697 468.014 57.9415 470.993L56.4439 472.121ZM512.612 462.919L511.071 461.854C513.2 458.775 515.292 455.616 517.289 452.468L518.872 453.471C516.862 456.641 514.756 459.82 512.612 462.919V462.919ZM43.5719 453.524C41.5631 450.357 39.5905 447.104 37.7084 443.857L39.3305 442.917C41.1997 446.143 43.1594 449.374 45.1546 452.52L43.5719 453.524ZM524.75 443.776L523.128 442.837C525.005 439.594 526.836 436.275 528.573 432.975L530.232 433.849C528.484 437.171 526.64 440.511 524.75 443.776H524.75ZM32.2408 433.962C30.4943 430.646 28.7908 427.247 27.1778 423.86L28.8704 423.054C30.4728 426.418 32.1649 429.794 33.8995 433.089L32.2408 433.962ZM535.309 423.705L533.616 422.9C535.22 419.524 536.779 416.067 538.247 412.626L539.972 413.361C538.494 416.826 536.925 420.306 535.309 423.705V423.705ZM22.528 413.567C21.0515 410.115 19.629 406.592 18.2994 403.097L20.0514 402.431C21.3723 405.901 22.7852 409.401 24.2517 412.83L22.528 413.567ZM544.214 402.833L542.461 402.168C543.79 398.661 545.064 395.087 546.246 391.545L548.024 392.138C546.835 395.705 545.552 399.302 544.214 402.833V402.833ZM14.4878 392.435C13.2942 388.871 12.1582 385.234 11.1115 381.627L12.912 381.105C13.9519 384.688 15.0801 388.3 16.2655 391.84L14.4878 392.435ZM551.389 381.325L549.587 380.805C550.622 377.228 551.598 373.572 552.491 369.939L554.311 370.386C553.413 374.044 552.429 377.725 551.389 381.325V381.325ZM8.1767 370.691C7.27598 367.04 6.43885 363.325 5.68732 359.646L7.52451 359.271C8.27051 362.925 9.10219 366.617 9.99652 370.242L8.1767 370.691ZM556.788 359.339L554.949 358.966C555.691 355.314 556.368 351.591 556.963 347.901L558.814 348.2C558.216 351.915 557.534 355.662 556.788 359.339V359.339ZM3.6474 348.508C3.0464 344.808 2.51188 341.036 2.05875 337.299L3.91974 337.073C4.37012 340.786 4.90103 344.532 5.49832 348.208L3.6474 348.508ZM560.391 336.986L558.529 336.762C558.974 333.051 559.351 329.286 559.645 325.572L561.515 325.72C561.217 329.46 560.839 333.25 560.391 336.986V336.986ZM0.922302 326.035C0.619752 322.29 0.389104 318.488 0.236694 314.733L2.10956 314.657C2.26105 318.387 2.49036 322.164 2.79056 325.884L0.922302 326.035ZM562.188 314.42L560.315 314.346C560.462 310.61 560.537 306.827 560.537 303.101L560.536 302.48H562.411L562.412 303.097C562.412 306.851 562.337 310.659 562.188 314.42H562.188ZM1.87469 303.412H0L0.000427246 303.097C0.000427246 299.44 0.0714541 295.736 0.211914 292.093L2.08475 292.166C1.94562 295.785 1.87515 299.464 1.87515 303.101L1.87469 303.412ZM560.289 291.237C560.134 287.515 559.902 283.738 559.596 280.011L561.465 279.858C561.772 283.61 562.006 287.412 562.162 291.16L560.289 291.237ZM2.74167 280.938L0.872467 280.792C1.16721 277.038 1.54165 273.247 1.98468 269.524L3.84653 269.746C3.40618 273.444 3.03453 277.21 2.74167 280.938ZM558.455 268.823C558.003 265.125 557.469 261.38 556.865 257.69L558.715 257.387C559.322 261.102 559.861 264.873 560.315 268.595L558.455 268.823ZM5.39899 258.607L3.54807 258.311C4.14216 254.599 4.82 250.85 5.56375 247.169L7.40091 247.54C6.66268 251.196 5.98942 254.92 5.39899 258.607ZM554.825 246.629C554.073 242.966 553.237 239.276 552.341 235.66L554.16 235.209C555.063 238.849 555.904 242.564 556.661 246.252L554.825 246.629ZM9.84824 236.563L8.02707 236.118C8.91867 232.469 9.89814 228.788 10.938 225.175L12.7395 225.693C11.7064 229.282 10.7339 232.939 9.84821 236.563H9.84824ZM549.414 224.801C548.371 221.221 547.239 217.61 546.049 214.07L547.827 213.473C549.024 217.037 550.164 220.672 551.214 224.277L549.414 224.801ZM16.0687 214.951L14.2897 214.359C15.476 210.79 16.7539 207.19 18.0881 203.66L19.8419 204.323C18.5164 207.83 17.2468 211.405 16.0687 214.951ZM542.25 203.483C540.918 199.996 539.501 196.499 538.039 193.088L539.761 192.35C541.234 195.783 542.661 199.304 544.003 202.814L542.25 203.483ZM24.0431 193.861L22.3175 193.127C23.7908 189.663 25.3562 186.181 26.9696 182.778L28.6635 183.581C27.0606 186.962 25.5063 190.42 24.0431 193.861V193.861ZM533.409 182.868C531.804 179.508 530.109 176.134 528.37 172.84L530.026 171.964C531.778 175.28 533.486 178.677 535.1 182.061L533.409 182.868ZM33.6963 173.5L32.0357 172.629C33.7832 169.298 35.624 165.956 37.5065 162.695L39.1304 163.633C37.2602 166.872 35.4318 170.192 33.6962 173.5L33.6963 173.5ZM522.927 163.019C521.052 159.792 519.089 156.564 517.092 153.422L518.674 152.416C520.685 155.579 522.66 158.829 524.548 162.077L522.927 163.019ZM44.9572 153.996L43.3727 152.994C45.3838 149.814 47.4869 146.633 49.623 143.538L51.1654 144.603C49.0435 147.677 46.955 150.837 44.9572 153.996V153.996ZM510.874 144.065C508.747 141.001 506.53 137.938 504.285 134.963L505.781 133.833C508.042 136.828 510.273 139.911 512.413 142.997L510.874 144.065ZM57.7451 135.47L56.2466 134.344C58.5058 131.337 60.856 128.336 63.2319 125.424L64.6846 126.61C62.3243 129.502 59.9896 132.483 57.7451 135.47L57.7451 135.47ZM497.334 126.129C494.97 123.245 492.513 120.368 490.034 117.58L491.435 116.334C493.931 119.141 496.403 122.037 498.784 124.941L497.334 126.129ZM71.9725 118.036L70.5692 116.794C73.0581 113.982 75.64 111.18 78.2433 108.466L79.5963 109.764C77.0103 112.46 74.4454 115.243 71.9725 118.036V118.036ZM482.396 109.326C479.802 106.635 477.123 103.963 474.432 101.384L475.729 100.03C478.437 102.626 481.135 105.316 483.746 108.025L482.396 109.326ZM87.5428 101.804L86.2429 100.453C88.9479 97.8501 91.7448 95.265 94.555 92.7688L95.7999 94.1702C93.008 96.65 90.2298 99.2186 87.5427 101.804L87.5428 101.804ZM466.156 93.7647C463.355 91.2882 460.468 88.8377 457.578 86.482L458.763 85.0288C461.672 87.4006 464.577 89.8671 467.397 92.3606L466.156 93.7647ZM104.354 86.8747L103.166 85.4247C106.075 83.0424 109.068 80.6903 112.062 78.433L113.191 79.9296C110.216 82.1719 107.243 84.5088 104.354 86.8746L104.354 86.8747ZM448.713 79.5475C445.722 77.303 442.648 75.0909 439.577 72.9727L440.64 71.4294C443.732 73.5618 446.827 75.7885 449.839 78.0481L448.713 79.5475ZM122.298 73.3439L121.23 71.8033C124.32 69.6618 127.491 67.5578 130.653 65.5494L131.658 67.1321C128.517 69.1267 125.367 71.2165 122.298 73.3439V73.3439ZM430.18 66.7687C427.019 64.7723 423.776 62.8138 420.539 60.9478L421.477 59.3239C424.734 61.2023 427.999 63.174 431.182 65.1838L430.18 66.7687ZM141.258 61.3035L140.317 59.6814C143.559 57.8016 146.886 55.9599 150.206 54.2083L151.081 55.8661C147.783 57.6062 144.478 59.4356 141.258 61.3034V61.3035ZM410.671 55.5187C407.36 53.784 403.967 52.0929 400.587 50.4923L401.389 48.798C404.792 50.409 408.208 52.1116 411.54 53.8582L410.671 55.5187ZM161.112 50.8319L160.305 49.1393C163.686 47.5278 167.148 45.9616 170.597 44.4842L171.335 46.2074C167.909 47.6747 164.47 49.2304 161.112 50.8318V50.8319ZM390.304 45.8774C386.859 44.4142 383.338 43.0031 379.84 41.6822L380.502 39.9283C384.024 41.2579 387.569 42.679 391.037 44.1519L390.304 45.8774ZM181.732 42.0012L181.065 40.2492C184.572 38.9118 188.159 37.6275 191.724 36.4316L192.32 38.2093C188.779 39.3969 185.217 40.6729 181.732 42.0011V42.0012ZM369.209 37.9145C365.667 36.7396 362.052 35.6215 358.464 34.5912L358.983 32.7897C362.594 33.8268 366.232 34.9523 369.799 36.135L369.209 37.9145ZM203.054 34.8488L202.531 33.0492C206.136 32.0002 209.815 31.0107 213.465 30.1076L213.915 31.9274C210.29 32.8244 206.635 33.8075 203.054 34.8488V34.8488ZM347.594 31.7068C343.974 30.8239 340.28 30.0024 336.615 29.265L336.985 27.4269C340.675 28.1693 344.394 28.9968 348.038 29.8852L347.594 31.7068ZM224.885 29.4499L224.509 27.6136C228.184 26.8611 231.931 26.1728 235.645 25.5673L235.947 27.4173C232.257 28.0191 228.535 28.7029 224.885 29.4499V29.4499ZM325.547 27.2694C321.861 26.6817 318.112 26.1609 314.407 25.7224L314.628 23.8605C318.358 24.3022 322.131 24.8263 325.842 25.4185L325.547 27.2694ZM247.081 25.8327L246.854 23.9717C250.583 23.5177 254.373 23.1327 258.117 22.8289L258.269 24.6972C254.549 24.9997 250.785 25.3815 247.081 25.8327H247.081ZM303.215 24.624C299.498 24.3342 295.72 24.1155 291.986 23.974L292.058 22.1003C295.816 22.2431 299.619 22.4633 303.36 22.7547L303.215 24.624ZM269.496 24.0102L269.419 22.1373C273.168 21.9826 276.976 21.9012 280.739 21.8948L280.741 23.7695C277.004 23.7759 273.22 23.8569 269.496 24.0102H269.496Z" fill="#CCCCCC"/>
<path d="M181.907 478.594C281.82 478.594 362.816 397.599 362.816 297.685C362.816 197.772 281.82 116.776 181.907 116.776C81.9939 116.776 0.99823 197.772 0.99823 297.685C0.99823 397.599 81.9939 478.594 181.907 478.594Z" fill="#3F3D56"/>
<path d="M117.699 429.852C170.761 429.852 213.777 370.679 213.777 297.685C213.777 224.692 170.761 165.519 117.699 165.519C64.6358 165.519 21.62 224.692 21.62 297.685C21.62 370.679 64.6358 429.852 117.699 429.852Z" fill="white"/>
<path d="M85.8494 367.866C100.659 367.866 112.664 348.981 112.664 325.685C112.664 302.39 100.659 283.505 85.8494 283.505C71.0403 283.505 59.0352 302.39 59.0352 325.685C59.0352 348.981 71.0403 367.866 85.8494 367.866Z" fill="#3F3D56"/>
<path d="M537.341 214.464C547.177 214.464 555.15 206.491 555.15 196.655C555.15 186.819 547.177 178.845 537.341 178.845C527.505 178.845 519.531 186.819 519.531 196.655C519.531 206.491 527.505 214.464 537.341 214.464Z" fill="#0AAAE6"/>
<path d="M331.616 52.4917C346.111 52.4917 357.862 40.741 357.862 26.2459C357.862 11.7507 346.111 0 331.616 0C317.121 0 305.37 11.7507 305.37 26.2459C305.37 40.741 317.121 52.4917 331.616 52.4917Z" fill="#0AAAE6"/>
<path d="M314.228 599.161C324.064 599.161 332.038 591.187 332.038 581.351C332.038 571.515 324.064 563.541 314.228 563.541C304.392 563.541 296.418 571.515 296.418 581.351C296.418 591.187 304.392 599.161 314.228 599.161Z" fill="#0AAAE6"/>
</svg>
