<svg width="837" height="482" viewBox="0 0 837 482" fill="none" xmlns="http://www.w3.org/2000/svg">
<path d="M836.583 0H0V482H836.583V0Z" fill="white"/>
<path d="M508.953 109.666H328.744V267.061H508.953V109.666Z" fill="#E2E2E2"/>
<path d="M390.986 121.233L396.518 143.36L394.147 175.761L415.484 192.356L422.596 137.038L418.645 123.604L390.986 121.233Z" fill="#FFB8B8"/>
<path d="M410.742 171.019L414.693 149.682L422.596 134.667L442.352 214.483L397.308 220.805L385.454 156.795L395.562 139.538L402.84 152.843L410.742 171.019Z" fill="white"/>
<path d="M461.57 267.06H386.631L387.035 261.108L404.414 250.047H428.124L461.318 264.273L461.57 267.06Z" fill="#2F2E41"/>
<path d="M406.001 133.087C416.475 133.087 424.967 124.596 424.967 114.121C424.967 103.646 416.475 95.1548 406.001 95.1548C395.526 95.1548 387.035 103.646 387.035 114.121C387.035 124.596 395.526 133.087 406.001 133.087Z" fill="#FFB8B8"/>
<path d="M477.915 205.793L459.742 190.772L461.558 230.058L461.734 233.829L461.961 238.81L462.466 249.682L463.273 267.061H423.71L421.011 258.737L419.939 267.061H383.756C383.504 262.697 383.365 257.438 383.592 252.128C383.732 247.257 384.353 242.412 385.446 237.663C386.125 234.434 387.474 231.383 389.406 228.708L382.293 203.422L379.128 219.224L357.007 220.801C357.007 220.801 357.019 220.397 357.057 219.641V219.628C357.373 211.847 359.706 167.806 371.233 159.167L394.703 136.101C394.703 136.101 394.716 137.778 394.943 140.603V140.616C395.119 143.012 395.447 146.228 396.04 149.948V149.986C397.364 158.373 399.987 169.282 405.209 178.917C407.138 182.474 408.702 185.501 409.976 188.073C415.487 199.235 415.487 201.845 415.487 201.845L417.77 174.642L417.783 174.541L417.795 174.44L420.835 138.018L421.289 132.582V132.569C421.289 132.569 457.371 138.623 468.431 155.22C477.322 168.538 493.856 190.041 500.011 197.974C500.087 198.062 500.15 198.15 500.225 198.239L501.146 199.437C501.323 199.664 501.487 199.865 501.625 200.055C501.777 200.244 501.903 200.395 502.004 200.534L502.407 201.051L477.915 205.793Z" fill="#01579B"/>
<path d="M417.064 216.064C418.374 216.064 419.435 215.002 419.435 213.693C419.435 212.384 418.374 211.322 417.064 211.322C415.755 211.322 414.694 212.384 414.694 213.693C414.694 215.002 415.755 216.064 417.064 216.064Z" fill="#2F2E41"/>
<path d="M420.225 237.401C421.535 237.401 422.596 236.339 422.596 235.03C422.596 233.721 421.535 232.659 420.225 232.659C418.916 232.659 417.855 233.721 417.855 235.03C417.855 236.339 418.916 237.401 420.225 237.401Z" fill="#2F2E41"/>
<path d="M468.431 243.723L461.319 250.835L456.577 238.191L461.731 233.834L468.431 243.723Z" fill="#FFB8B8"/>
<path d="M378.342 246.884L385.454 253.996L387.035 238.191L382.293 236.61L378.342 246.884Z" fill="#FFB8B8"/>
<path d="M383.874 99.5249C383.874 99.5249 378.342 92.5074 383.874 88.9987V90.753C383.874 90.753 395.728 77.5953 402.84 81.104L409.162 79.3497V81.104L413.113 79.3497L412.323 81.9812H417.855L415.484 83.7356C415.484 83.7356 433.66 82.8584 422.596 96.0161C422.596 96.0161 427.855 103.905 422.855 108.294C422.855 108.294 418.645 98.6477 413.113 101.279C411.615 102.057 409.924 102.388 408.243 102.233C406.562 102.077 404.96 101.442 403.63 100.402C403.63 100.402 392.566 99.5249 394.147 104.788C395.727 110.051 394.937 111.805 394.937 111.805C394.937 111.805 390.986 114.437 391.776 116.191C392.567 117.946 392.567 123.209 392.567 123.209C392.567 123.209 388.615 117.069 387.035 117.946C385.454 118.823 376.761 110.051 383.874 99.5249Z" fill="#2F2E41"/>
<path d="M360.166 217.644L357.005 219.67V221.596C357.185 224.984 358.277 228.26 360.166 231.079C363.327 235.82 380.713 251.625 380.713 251.625L385.454 235.03L379.132 219.225L375.181 214.483L360.166 217.644Z" fill="#01579B"/>
<path d="M491.348 197.098L500.02 197.978L502.412 201.049C502.412 201.049 503.993 208.161 500.831 212.113C497.67 216.064 470.012 248.464 470.012 248.464L458.158 234.24L478.704 208.951L477.914 205.79L491.348 197.098Z" fill="#01579B"/>
<path d="M781.866 108.121H599.89V267.059H781.866V108.121Z" fill="#E2E2E2"/>
<path d="M712.322 142.67L671.228 143.46L665.696 105.528H712.322V142.67Z" fill="#2F2E41"/>
<path d="M732.473 148.597C732.473 148.597 746.698 148.597 748.278 163.612C749.859 178.627 744.327 217.349 744.327 217.349L739.586 267.135H728.444L729.312 229.203L732.473 174.675L722.99 164.402L732.473 148.597Z" fill="#A0616A"/>
<path d="M673.994 148.597C673.994 148.597 660.56 145.436 647.916 163.612C647.916 163.612 615.515 187.319 625.789 196.012C636.062 204.705 663.721 210.237 663.721 210.237C663.721 210.237 653.448 231.574 659.77 232.364C666.092 233.154 675.575 209.447 673.204 205.495C670.833 201.544 662.14 199.173 662.14 199.173L641.594 188.9C641.594 188.9 667.957 166.253 669.395 175.996L677.155 172.305L673.994 148.597Z" fill="#A0616A"/>
<path d="M703.234 121.728C704.903 127.397 707.831 132.615 711.799 136.994C715.768 141.373 720.674 144.799 726.151 147.016L705.604 164.402L681.107 148.597C681.107 148.597 689.799 143.065 687.429 131.211L703.234 121.728Z" fill="#A0616A"/>
<path d="M687.429 134.372C697.903 134.372 706.395 125.881 706.395 115.406C706.395 104.931 697.903 96.44 687.429 96.44C676.954 96.44 668.463 104.931 668.463 115.406C668.463 125.881 676.954 134.372 687.429 134.372Z" fill="#A0616A"/>
<path d="M670.833 147.016L685.258 144.189C685.258 144.189 689.799 154.919 704.814 153.338C719.829 151.758 722.475 145.272 722.475 145.272L736.424 148.597C736.424 148.597 728.522 157.29 732.473 174.675C732.473 174.675 734.054 203.124 725.361 213.398L724.571 229.203C724.571 229.203 734.844 256.072 729.312 267.135H651.867C651.867 267.135 655.028 227.622 669.253 217.349L672.414 210.237C672.414 210.237 666.092 182.578 669.253 177.836C669.253 177.836 671.624 147.807 670.833 147.016Z" fill="#01579B"/>
<path d="M723.486 133.227C719.181 130.863 717.177 125.557 717.035 120.647C716.892 115.737 718.082 110.878 718.176 105.967C718.224 104.963 718.139 103.956 717.921 102.974C717.564 101.755 717.008 100.603 716.275 99.5658C710.676 90.9871 700.944 84.9526 690.693 84.8575C689.212 84.8381 687.742 85.1085 686.364 85.6534C685.304 86.0778 684.958 86.0258 684.755 87.3271C682.326 86.526 679.693 86.6098 677.32 87.5635C674.971 88.5189 672.779 89.8243 670.819 91.4354C669.655 92.3014 668.556 93.2526 667.532 94.2813C662.115 99.8935 660.867 108.543 662.437 116.184C662.947 118.668 660.499 121.066 658.473 122.592C656.448 124.118 654.108 125.519 653.114 127.851C652.157 130.095 652.682 132.662 652.49 135.094C652.274 137.392 651.419 139.585 650.023 141.424C648.626 143.263 646.744 144.675 644.588 145.501C645.028 146.027 645.601 146.426 646.249 146.653C646.896 146.881 647.593 146.93 648.266 146.794C649.67 146.498 650.983 145.873 652.098 144.97C656.291 141.863 659.291 137.411 660.597 132.359C661.192 135.065 660.961 137.856 660.94 140.627C660.992 143.719 660.422 146.79 659.265 149.658C658.088 152.539 655.932 154.913 653.177 156.361C655.834 157.662 658.762 156.719 661.014 154.8C663.172 152.751 664.731 150.153 665.524 147.285C667.035 142.708 667.648 137.881 667.329 133.071C669.801 137.232 670.704 142.14 669.876 146.908C669.011 151.77 666.473 156.176 662.701 159.363C669.277 159.307 675.745 157.678 681.564 154.612C683.067 153.931 684.391 152.911 685.433 151.632C687.306 149.035 686.863 145.492 686.338 142.333C685.922 139.836 689.043 136.225 687.256 134.432C686.794 133.965 686.183 133.674 685.53 133.609C679.06 132.685 673.241 128.97 670.438 123.066C669.227 120.638 668.563 117.975 668.494 115.263C668.495 112.413 669.138 109.601 670.375 107.034C671.612 104.467 673.411 102.212 675.64 100.436C677.868 98.6597 680.468 97.4087 683.246 96.7755C686.024 96.1423 688.909 96.1432 691.687 96.7782C694.465 97.4132 697.064 98.6658 699.291 100.443C701.518 102.22 703.317 104.477 704.552 107.044C705.788 109.612 706.429 112.425 706.428 115.275C706.427 118.124 705.784 120.937 704.547 123.504C704.34 127.327 703.706 131.114 702.656 134.796C701.304 139.505 699.013 144.309 694.774 146.765C696.257 147.4 697.849 147.737 699.461 147.758C704.78 148.344 710.374 148.215 715.189 145.879C720.003 143.542 723.829 138.568 723.486 133.227Z" fill="#2F2E41"/>
<path d="M709.951 111.06C695.734 105.362 681.718 104.146 668.067 111.06V99.5742C668.067 98.5919 668.261 97.6191 668.637 96.7115C669.013 95.8039 669.564 94.9793 670.258 94.2846C670.953 93.59 671.778 93.039 672.685 92.6631C673.593 92.2871 674.566 92.0936 675.548 92.0936H704.041C705.609 92.0936 707.112 92.7163 708.22 93.8246C709.328 94.9329 709.951 96.436 709.951 98.0034V111.06Z" fill="#2F2E41"/>
<path d="M706.395 118.172C708.031 118.172 709.358 116.049 709.358 113.43C709.358 110.812 708.031 108.689 706.395 108.689C704.758 108.689 703.431 110.812 703.431 113.43C703.431 116.049 704.758 118.172 706.395 118.172Z" fill="#A0616A"/>
<path d="M248.441 109.187H67.6773V267.061H248.441V109.187Z" fill="#E2E2E2"/>
<path d="M171.019 147.225L132.297 146.435V92.6981L171.019 96.6491V147.225Z" fill="#2F2E41"/>
<path d="M206.482 267.061H122.803C123.346 264.019 124.278 261.06 125.578 258.258C127.949 253.907 130.912 244.422 133.283 236.023C134.658 231.155 135.831 226.653 136.575 223.739C137.117 221.608 137.433 220.322 137.433 220.322L178.522 203.724C178.522 203.724 179.682 205.831 181.548 209.374C181.573 209.428 181.603 209.478 181.637 209.526C182.961 212.036 184.626 215.264 186.467 218.959H186.48C193.214 232.378 202.408 252.078 206.482 267.061Z" fill="#2F2E41"/>
<path d="M140.2 124.308L134.668 151.967L153.634 153.548C153.634 153.548 156.795 129.05 157.585 128.259C158.376 127.469 140.2 124.308 140.2 124.308Z" fill="#FFB8B8"/>
<path d="M152.449 133.396C162.923 133.396 171.415 124.905 171.415 114.43C171.415 103.955 162.923 95.4638 152.449 95.4638C141.974 95.4638 133.482 103.955 133.482 114.43C133.482 124.905 141.974 133.396 152.449 133.396Z" fill="#FFB8B8"/>
<path d="M134.668 144.065C134.668 144.065 152.844 148.016 153.634 147.225C154.424 146.435 175.761 150.386 177.342 157.499C178.922 164.611 174.971 192.27 174.971 192.27C174.971 192.27 183.664 196.221 182.873 197.802C182.083 199.382 187.615 200.963 186.034 203.334C184.454 205.704 156.005 246.798 142.57 246.007C129.136 245.217 104.638 155.918 104.638 155.918C104.638 155.918 105.428 144.855 115.702 144.855C125.975 144.855 134.668 144.065 134.668 144.065Z" fill="#01579B"/>
<path d="M186.43 207.68C186.43 207.68 175.352 210.187 177.335 215.256C179.317 220.324 191.171 218.744 191.171 218.744L186.43 207.68Z" fill="#FFB8B8"/>
<path d="M151.86 267.061H122.803C122.715 267.515 122.614 267.981 122.513 268.448C121.115 267.87 119.672 267.406 118.2 267.061C117.872 266.985 117.683 266.947 117.683 266.947C117.683 266.947 111.352 243.237 102.662 214.003C94.9564 188.061 102.788 161.488 104.655 155.825V155.813C104.894 155.106 105.033 154.728 105.033 154.728L112.146 149.204L136.575 223.739L142.969 243.237C142.969 243.237 143.171 244.322 143.511 245.999C144.546 250.993 146.917 261.221 149.288 263C150.469 264.119 151.353 265.514 151.86 267.061V267.061Z" fill="#01579B"/>
<path d="M166.673 154.733L176.535 155.757L199.074 183.972C199.074 183.972 207.766 191.875 202.235 195.036C196.703 198.197 194.332 204.519 194.332 204.519C194.332 204.519 201.444 220.324 191.171 222.695C191.171 222.695 184.059 206.89 181.688 205.309C179.317 203.729 184.849 197.407 184.849 197.407L166.673 185.553L166.673 154.733Z" fill="#01579B"/>
<path d="M152.449 83.61C152.449 83.61 130.321 79.6588 126.37 99.4151C125.423 104.002 124.797 108.65 124.498 113.324C123.876 124.772 120.738 135.943 115.307 146.04L150.868 156.313C150.868 156.313 141.385 141.299 142.966 134.977C143.258 133.391 143.236 131.763 142.901 130.186C139.214 127.914 136.416 124.448 134.972 120.365C133.528 116.282 133.526 111.828 134.964 107.744C136.403 103.659 139.197 100.19 142.881 97.9135C146.565 95.637 150.917 94.6901 155.214 95.2304C159.511 95.7706 163.493 97.7654 166.499 100.883C169.505 104.001 171.353 108.053 171.736 112.367C172.118 116.681 171.013 120.995 168.604 124.594C166.194 128.192 162.625 130.857 158.491 132.146C155.846 137.9 154.408 144.124 157.98 148.411C162.495 153.928 167.825 158.725 173.785 162.635C173.785 162.635 169.834 143.669 176.156 132.606C182.478 121.542 176.156 85.1905 152.449 83.61Z" fill="#2F2E41"/>
<path d="M172.1 108.954L135.022 111.129L134.002 93.7571L166.272 92.5971L172.1 108.954Z" fill="#2F2E41"/>
<path d="M75.1036 332.187C78.5863 332.187 81.4095 329.364 81.4095 325.882C81.4095 322.399 78.5863 319.576 75.1036 319.576C71.621 319.576 68.7978 322.399 68.7978 325.882C68.7978 329.364 71.621 332.187 75.1036 332.187Z" fill="#E2E2E2"/>
<path d="M75.1036 367.5C78.5863 367.5 81.4095 364.677 81.4095 361.194C81.4095 357.712 78.5863 354.888 75.1036 354.888C71.621 354.888 68.7978 357.712 68.7978 361.194C68.7978 364.677 71.621 367.5 75.1036 367.5Z" fill="#E2E2E2"/>
<path d="M75.1036 402.813C78.5863 402.813 81.4095 399.99 81.4095 396.507C81.4095 393.024 78.5863 390.201 75.1036 390.201C71.621 390.201 68.7978 393.024 68.7978 396.507C68.7978 399.99 71.621 402.813 75.1036 402.813Z" fill="#E2E2E2"/>
<path d="M221.399 320.837H101.588V330.926H221.399V320.837Z" fill="#E2E2E2"/>
<path d="M221.399 356.15H101.588V366.239H221.399V356.15Z" fill="#E2E2E2"/>
<path d="M221.399 391.462H101.588V401.552H221.399V391.462Z" fill="#E2E2E2"/>
<path d="M348.853 332.187C352.336 332.187 355.159 329.364 355.159 325.882C355.159 322.399 352.336 319.576 348.853 319.576C345.371 319.576 342.547 322.399 342.547 325.882C342.547 329.364 345.371 332.187 348.853 332.187Z" fill="#E2E2E2"/>
<path d="M348.853 367.5C352.336 367.5 355.159 364.677 355.159 361.194C355.159 357.712 352.336 354.888 348.853 354.888C345.371 354.888 342.547 357.712 342.547 361.194C342.547 364.677 345.371 367.5 348.853 367.5Z" fill="#E2E2E2"/>
<path d="M348.853 402.813C352.336 402.813 355.159 399.99 355.159 396.507C355.159 393.024 352.336 390.201 348.853 390.201C345.371 390.201 342.547 393.024 342.547 396.507C342.547 399.99 345.371 402.813 348.853 402.813Z" fill="#E2E2E2"/>
<path d="M495.149 320.837H375.338V330.926H495.149V320.837Z" fill="#E2E2E2"/>
<path d="M495.149 356.15H375.338V366.239H495.149V356.15Z" fill="#E2E2E2"/>
<path d="M495.149 391.462H375.338V401.552H495.149V391.462Z" fill="#E2E2E2"/>
<path d="M620.883 332.187C624.366 332.187 627.189 329.364 627.189 325.882C627.189 322.399 624.366 319.576 620.883 319.576C617.401 319.576 614.577 322.399 614.577 325.882C614.577 329.364 617.401 332.187 620.883 332.187Z" fill="#E2E2E2"/>
<path d="M620.883 367.5C624.366 367.5 627.189 364.677 627.189 361.194C627.189 357.712 624.366 354.888 620.883 354.888C617.401 354.888 614.577 357.712 614.577 361.194C614.577 364.677 617.401 367.5 620.883 367.5Z" fill="#E2E2E2"/>
<path d="M620.883 402.813C624.366 402.813 627.189 399.99 627.189 396.507C627.189 393.024 624.366 390.201 620.883 390.201C617.401 390.201 614.577 393.024 614.577 396.507C614.577 399.99 617.401 402.813 620.883 402.813Z" fill="#E2E2E2"/>
<path d="M767.179 320.837H647.368V330.926H767.179V320.837Z" fill="#E2E2E2"/>
<path d="M767.179 356.15H647.368V366.239H767.179V356.15Z" fill="#E2E2E2"/>
<path d="M767.179 391.462H647.368V401.552H767.179V391.462Z" fill="#E2E2E2"/>
</svg>
