<svg viewBox="0 0 1145 653" fill="none" xmlns="http://www.w3.org/2000/svg">
<path opacity="0.1" d="M687.74 470.31C709.84 469.05 737.26 454.06 758.58 447.43C783.814 439.603 809.147 432.073 834.58 424.84C923.12 399.646 1012.61 378.18 1103.05 360.44C1111.49 358.78 1119.94 357.16 1128.41 355.58C1115.22 327.081 1094.79 302.541 1069.15 284.41C1069.81 278.171 1070.14 271.903 1070.15 265.63C1070.15 166.49 990.92 86.1196 893.15 86.1196C863.05 86.0876 833.454 93.8568 807.25 108.67C738.05 63.1496 647.73 35.5996 548.91 35.5996C408.49 35.5996 285.22 91.2296 215.37 175L543.65 230.46L744.99 264.46C515.46 271.31 285.22 278.12 56.3504 262.04C26.1384 291.272 7.01631 330.09 2.25213 371.859C-2.51205 413.627 7.3774 455.754 30.2304 491.04V491.04C30.2304 494.63 30.3804 498.19 30.6504 501.72C36.4804 503.39 42.1104 505.01 47.1604 506.07C128.234 523.196 209.827 537.53 291.94 549.07C231.43 586.38 157.74 591.66 87.9404 607.46C121.74 635.36 167.64 652.46 218.22 652.46H971.34C1052.89 652.46 1118.99 595.69 1118.99 525.65C1131.23 505.47 1139.38 483.083 1142.99 459.76C992.09 474.33 839.31 461.68 687.74 470.31Z" fill="#01579B"/>
<path opacity="0.1" d="M1144.02 429.93C1144.1 401.064 1137.24 372.602 1124.01 346.945C1110.78 321.287 1091.58 299.188 1068.02 282.51C1068.67 276.274 1069.01 270.009 1069.02 263.74C1069.02 164.6 989.75 84.2596 892.02 84.2596C861.918 84.2274 832.32 91.9929 806.11 106.8C736.91 61.2596 646.58 33.6996 547.76 33.6996C387.02 33.6996 248.66 106.65 187.3 211.26C183.89 211.06 180.46 210.95 177 210.95C79.2603 210.95 0.000345615 291.32 0.000345615 390.46C-0.068162 425.478 10.0494 459.76 29.1203 489.13V489.13C29.1203 578.33 113.31 650.64 217.12 650.64H970.26C1051.8 650.64 1117.9 593.86 1117.9 523.82C1135.05 495.509 1144.09 463.029 1144.02 429.93V429.93Z" fill="#01579B"/>
<path d="M749.02 249.07L748.34 258.2C748.24 259.44 745.87 288.96 728.39 323.46C713.39 353.05 684.2 391.59 629.09 413.25C624.79 414.95 620.327 416.536 615.7 418.01L610.54 401.81C623.495 397.733 635.973 392.275 647.76 385.53C675.85 369.31 697.69 346.16 712.92 316.37C721.001 300.509 726.76 283.569 730.02 266.07H667.32V249.07H749.02Z" fill="#01579B"/>
<path opacity="0.1" d="M622.34 413.26C677.44 391.6 706.64 353.07 721.63 323.48C739.11 288.98 741.49 259.48 741.58 258.22L742.26 249.09H749.26L748.58 258.22C748.49 259.46 746.11 288.98 728.63 323.48C713.63 353.07 684.44 391.6 629.34 413.26C625.04 414.96 620.574 416.55 615.94 418.03L615.26 415.9C617.674 415.04 620.034 414.16 622.34 413.26Z" fill="white"/>
<path d="M512.02 401.81L506.86 418.01C502.227 416.53 497.76 414.94 493.46 413.24C438.36 391.58 409.16 353.05 394.17 323.46C376.69 288.96 374.31 259.46 374.22 258.2L373.54 249.07H455.2V266.07H392.49C395.768 283.571 401.544 300.511 409.64 316.37C424.87 346.16 446.7 369.31 474.79 385.52C486.579 392.272 499.061 397.733 512.02 401.81V401.81Z" fill="#01579B"/>
<path opacity="0.1" d="M500.2 413.26C445.1 391.6 415.9 353.07 400.91 323.48C383.43 288.98 381.05 259.48 380.96 258.22L380.28 249.09H373.28L373.96 258.22C374.05 259.46 376.43 288.98 393.91 323.48C408.91 353.07 438.1 391.6 493.2 413.26C497.5 414.96 501.967 416.55 506.6 418.03L507.28 415.9C504.874 415.04 502.514 414.16 500.2 413.26Z" fill="white"/>
<path d="M655.61 558.41V650.08H466.94V558.41L472.94 550.41C534.08 528.71 546.47 472.12 548.94 449.73C549.308 446.636 549.518 443.525 549.57 440.41H572.9C572.952 443.525 573.163 446.636 573.53 449.73C576.04 472.12 588.43 528.73 649.53 550.41L655.61 558.41Z" fill="#01579B"/>
<path opacity="0.1" d="M655.61 558.41H466.94V569.91H655.61V558.41Z" fill="black"/>
<path opacity="0.1" d="M482.94 550.41C544.08 528.71 556.47 472.12 558.94 449.73C559.308 446.636 559.518 443.525 559.57 440.41H549.57C549.518 443.525 549.308 446.636 548.94 449.73C546.43 472.12 534.04 528.73 472.94 550.41L466.94 558.41V650.08H476.94V558.41L482.94 550.41Z" fill="white"/>
<path opacity="0.1" d="M438.28 249.07H455.2V266.07H439.78C439.174 260.47 438.674 254.803 438.28 249.07Z" fill="black"/>
<path opacity="0.1" d="M512.02 401.81L506.86 418.01C502.227 416.53 497.76 414.94 493.46 413.24C486.387 404.602 480.136 395.321 474.79 385.52C486.579 392.272 499.061 397.733 512.02 401.81Z" fill="black"/>
<path opacity="0.1" d="M610.53 401.81C623.485 397.733 635.963 392.275 647.75 385.53C642.401 395.333 636.151 404.616 629.08 413.26C624.78 414.96 620.317 416.546 615.69 418.02L610.53 401.81Z" fill="black"/>
<path opacity="0.1" d="M684.26 249.07C683.867 254.803 683.367 260.47 682.76 266.07H667.35V249.07H684.26Z" fill="black"/>
<path opacity="0.1" d="M573.57 449.73C565.449 451.303 557.102 451.303 548.98 449.73C549.348 446.636 549.558 443.525 549.61 440.41H572.94C572.992 443.525 573.203 446.636 573.57 449.73V449.73Z" fill="black"/>
<path d="M440.28 220.91C440.71 346.97 494.71 448.91 561.28 448.91C627.85 448.91 681.84 346.97 682.28 220.91H440.28Z" fill="#01579B"/>
<path opacity="0.1" d="M461.78 220.91H440.28C440.71 346.97 494.71 448.91 561.28 448.91C564.883 448.903 568.478 448.599 572.03 448C510.49 437.72 462.19 340.11 461.78 220.91Z" fill="white"/>
<path d="M625.44 593.5H497.11V626.5H625.44V593.5Z" fill="#3F3D56"/>
<path opacity="0.1" d="M503.11 598H625.44V593.5H497.11V626.5H503.11V598Z" fill="white"/>
<path opacity="0.1" d="M887.31 0.109633C887.31 0.109633 803.12 -4.97036 813.02 54.0296C813.02 54.0296 811.02 64.4596 820.5 69.1896C820.5 69.1896 820.65 64.8196 829.14 66.3096C832.163 66.8107 835.234 66.9583 838.29 66.7496C842.42 66.4645 846.344 64.8428 849.47 62.1296V62.1296C849.47 62.1296 873.14 52.3496 882.34 13.6696C882.34 13.6696 889.15 5.22964 888.88 3.05964L874.67 9.12963C874.67 9.12963 879.53 19.3796 875.67 27.8996C875.67 27.8996 875.21 9.49963 872.48 9.89963C871.93 9.98963 865.1 13.4496 865.1 13.4496C865.1 13.4496 873.45 31.2996 867.15 44.2796C867.15 44.2796 869.54 22.2796 862.49 14.7396L852.49 20.5796C852.49 20.5796 862.25 39.0196 855.63 54.0696C855.63 54.0696 857.33 30.9896 850.38 21.9996L841.32 29.0696C841.32 29.0696 850.49 47.2496 844.9 59.7296C844.9 59.7296 844.17 32.8596 839.36 30.8296C839.36 30.8296 831.43 37.8296 830.22 40.6896C830.22 40.6896 836.5 53.8896 832.6 60.8496C832.6 60.8496 830.21 42.9496 828.25 42.8496C828.25 42.8496 820.35 54.7096 819.53 62.8496C819.53 62.8496 819.87 50.7596 826.34 41.7296C826.34 41.7296 818.7 43.0396 814.24 47.9896C814.24 47.9896 815.47 39.6096 828.29 38.8796C828.29 38.8796 834.82 29.8796 836.56 29.3296C836.56 29.3296 823.82 28.2696 816.09 31.6896C816.09 31.6896 822.89 23.7796 838.9 27.3796L847.85 20.0696C847.85 20.0696 831.07 17.7796 823.95 20.3096C823.95 20.3096 832.14 13.3096 850.26 18.4096L860 12.5896C860 12.5896 845.69 9.50964 837.17 10.5896C837.17 10.5896 846.17 5.73964 862.86 10.9996L869.86 7.86963C869.86 7.86963 859.38 5.80964 856.31 5.47964C853.24 5.14964 853.08 4.30964 853.08 4.30964C859.72 3.20249 866.536 3.96065 872.77 6.49964C872.77 6.49964 887.57 1.03963 887.31 0.109633Z" fill="#01579B"/>
<path opacity="0.1" d="M783.47 15.1196C783.47 15.1196 745.47 12.8196 749.92 39.4796C749.92 39.4796 749.03 44.1996 753.29 46.3396C753.29 46.3396 753.36 44.3396 757.2 45.0296C758.564 45.2592 759.951 45.3263 761.33 45.2296C763.197 45.1028 764.97 44.3688 766.38 43.1396V43.1396C766.38 43.1396 777.08 38.7296 781.24 21.2496C781.24 21.2496 784.31 17.4296 784.19 16.4496L777.77 19.1896C777.77 19.1896 779.97 23.8296 778.24 27.6796C778.24 27.6796 778.03 19.3596 776.8 19.5596C776.55 19.5596 773.46 21.1596 773.46 21.1596C773.46 21.1596 777.24 29.2296 774.39 35.0996C774.39 35.0996 775.47 25.1596 772.28 21.7496L767.76 24.3896C767.76 24.3896 772.18 32.7196 769.18 39.5196C769.18 39.5196 769.95 29.0896 766.81 25.0296L762.72 28.2596C762.72 28.2596 766.86 36.4796 764.34 42.1096C764.34 42.1096 764.01 29.9696 761.83 29.0596C761.83 29.0596 758.25 32.2196 757.7 33.5196C757.7 33.5196 760.54 39.5196 758.78 42.6196C758.78 42.6196 757.7 34.5296 756.78 34.4996C756.78 34.4996 753.22 39.8596 752.84 43.4996C753.019 40.1026 754.08 36.8108 755.92 33.9496C753.86 34.3399 751.959 35.3235 750.45 36.7796C750.45 36.7796 751.01 32.9996 756.8 32.6596C756.8 32.6596 759.8 28.5996 760.54 28.3496C760.54 28.3496 754.78 27.8696 751.29 29.4196C751.29 29.4196 754.36 25.8396 761.6 27.4196L765.6 24.1196C765.6 24.1196 758.02 23.1196 754.8 24.2296C754.8 24.2296 758.5 21.0696 766.69 23.3696L771.09 20.7396C771.09 20.7396 764.63 19.3396 760.77 19.8496C760.77 19.8496 764.84 17.6496 772.38 20.0296L775.53 18.6196C775.53 18.6196 770.79 17.6796 769.4 17.5396C768.01 17.3996 767.94 17.0096 767.94 17.0096C770.942 16.5102 774.024 16.8565 776.84 18.0096C776.84 18.0096 783.59 15.5396 783.47 15.1196Z" fill="#01579B"/>
</svg>
