<svg width="400" height="150" viewBox="0 0 400 150" fill="none" xmlns="http://www.w3.org/2000/svg">
<path d="M0 150H319.471L400 4.47035e-06H0V150Z" fill="black"/>
<path d="M0 150H319.471L400 4.47035e-06H0V150Z" fill="black"/>
<path d="M23.4023 116.439C24.6393 116.439 25.847 116.758 27.0254 117.396C28.2038 118.028 29.1217 118.936 29.7793 120.121C30.4368 121.299 30.7656 122.53 30.7656 123.812C30.7656 125.082 30.4401 126.303 29.7891 127.475C29.1445 128.646 28.2363 129.558 27.0645 130.209C25.8991 130.854 24.6784 131.176 23.4023 131.176C22.1263 131.176 20.9023 130.854 19.7305 130.209C18.5651 129.558 17.6569 128.646 17.0059 127.475C16.3548 126.303 16.0293 125.082 16.0293 123.812C16.0293 122.53 16.3581 121.299 17.0156 120.121C17.6797 118.936 18.6009 118.028 19.7793 117.396C20.9577 116.758 22.1654 116.439 23.4023 116.439ZM23.4023 117.66C22.3672 117.66 21.3581 117.927 20.375 118.461C19.3984 118.988 18.6335 119.747 18.0801 120.736C17.5267 121.719 17.25 122.745 17.25 123.812C17.25 124.874 17.5202 125.893 18.0605 126.869C18.6074 127.839 19.3691 128.598 20.3457 129.145C21.3223 129.685 22.3411 129.955 23.4023 129.955C24.4635 129.955 25.4824 129.685 26.459 129.145C27.4355 128.598 28.194 127.839 28.7344 126.869C29.2747 125.893 29.5449 124.874 29.5449 123.812C29.5449 122.745 29.2682 121.719 28.7148 120.736C28.168 119.747 27.403 118.988 26.4199 118.461C25.4368 117.927 24.431 117.66 23.4023 117.66ZM25.7656 125.004L26.9668 125.355C26.7715 126.169 26.3548 126.82 25.7168 127.309C25.0853 127.79 24.3171 128.031 23.4121 128.031C22.2663 128.031 21.3353 127.66 20.6191 126.918C19.903 126.176 19.5449 125.147 19.5449 123.832C19.5449 122.973 19.7077 122.227 20.0332 121.596C20.3587 120.958 20.821 120.479 21.4199 120.16C22.0254 119.835 22.7155 119.672 23.4902 119.672C24.3561 119.672 25.0755 119.88 25.6484 120.297C26.2214 120.707 26.612 121.267 26.8203 121.977L25.6582 122.26C25.4629 121.778 25.1732 121.41 24.7891 121.156C24.4115 120.896 23.9655 120.766 23.4512 120.766C22.7025 120.766 22.084 121.033 21.5957 121.566C21.1139 122.1 20.873 122.865 20.873 123.861C20.873 124.857 21.1009 125.613 21.5566 126.127C22.0189 126.635 22.6146 126.889 23.3438 126.889C23.9297 126.889 24.444 126.719 24.8867 126.381C25.3294 126.042 25.6224 125.583 25.7656 125.004ZM36.8887 126.938L38.5977 126.703C38.6432 127.797 38.8483 128.546 39.2129 128.949C39.5775 129.353 40.082 129.555 40.7266 129.555C41.2018 129.555 41.612 129.447 41.957 129.232C42.3021 129.011 42.5397 128.715 42.6699 128.344C42.8001 127.966 42.8652 127.367 42.8652 126.547V116.684H44.7598V126.439C44.7598 127.637 44.6133 128.565 44.3203 129.223C44.0339 129.88 43.5749 130.382 42.9434 130.727C42.3184 131.072 41.5827 131.244 40.7363 131.244C39.4798 131.244 38.5163 130.883 37.8457 130.16C37.1816 129.438 36.8626 128.363 36.8887 126.938ZM54.7305 127.66L56.5469 127.885C56.2604 128.946 55.7298 129.77 54.9551 130.355C54.1803 130.941 53.1908 131.234 51.9863 131.234C50.4694 131.234 49.265 130.769 48.373 129.838C47.4876 128.9 47.0449 127.589 47.0449 125.902C47.0449 124.158 47.4941 122.803 48.3926 121.84C49.291 120.876 50.4564 120.395 51.8887 120.395C53.2754 120.395 54.4082 120.867 55.2871 121.811C56.166 122.755 56.6055 124.083 56.6055 125.795C56.6055 125.899 56.6022 126.055 56.5957 126.264H48.8613C48.9264 127.403 49.2487 128.275 49.8281 128.881C50.4076 129.486 51.1302 129.789 51.9961 129.789C52.6406 129.789 53.1908 129.62 53.6465 129.281C54.1022 128.943 54.4635 128.402 54.7305 127.66ZM48.959 124.818H54.75C54.6719 123.946 54.4505 123.292 54.0859 122.855C53.526 122.178 52.8001 121.84 51.9082 121.84C51.1009 121.84 50.4206 122.11 49.8672 122.65C49.3203 123.191 49.0176 123.913 48.959 124.818ZM62.6016 129.428L62.8555 130.98C62.3607 131.085 61.918 131.137 61.5273 131.137C60.8893 131.137 60.3945 131.036 60.043 130.834C59.6914 130.632 59.444 130.368 59.3008 130.043C59.1576 129.711 59.0859 129.018 59.0859 127.963V121.996H57.7969V120.629H59.0859V118.061L60.834 117.006V120.629H62.6016V121.996H60.834V128.061C60.834 128.562 60.8633 128.884 60.9219 129.027C60.987 129.171 61.0879 129.285 61.2246 129.369C61.3678 129.454 61.5697 129.496 61.8301 129.496C62.0254 129.496 62.2826 129.473 62.6016 129.428ZM64.3301 131V116.684H66.0879V121.82C66.9082 120.87 67.9434 120.395 69.1934 120.395C69.9616 120.395 70.6289 120.548 71.1953 120.854C71.7617 121.153 72.1654 121.57 72.4062 122.104C72.6536 122.637 72.7773 123.412 72.7773 124.428V131H71.0195V124.428C71.0195 123.549 70.8275 122.911 70.4434 122.514C70.0658 122.11 69.5286 121.908 68.832 121.908C68.3112 121.908 67.8197 122.045 67.3574 122.318C66.9017 122.585 66.5762 122.95 66.3809 123.412C66.1855 123.874 66.0879 124.512 66.0879 125.326V131H64.3301ZM77.377 131L74.2031 120.629H76.0195L77.6699 126.615L78.2852 128.842C78.3112 128.731 78.4902 128.018 78.8223 126.703L80.4727 120.629H82.2793L83.832 126.645L84.3496 128.627L84.9453 126.625L86.7227 120.629H88.4316L85.1895 131H83.3633L81.7129 124.789L81.3125 123.021L79.2129 131H77.377ZM96.6836 129.721C96.0326 130.274 95.4043 130.665 94.7988 130.893C94.1999 131.12 93.5553 131.234 92.8652 131.234C91.7259 131.234 90.8503 130.958 90.2383 130.404C89.6263 129.844 89.3203 129.132 89.3203 128.266C89.3203 127.758 89.4342 127.296 89.6621 126.879C89.8965 126.456 90.1992 126.117 90.5703 125.863C90.9479 125.609 91.3711 125.417 91.8398 125.287C92.1849 125.196 92.7057 125.108 93.4023 125.023C94.8216 124.854 95.8665 124.652 96.5371 124.418C96.5436 124.177 96.5469 124.024 96.5469 123.959C96.5469 123.243 96.3809 122.738 96.0488 122.445C95.5996 122.048 94.9323 121.85 94.0469 121.85C93.2201 121.85 92.6081 121.996 92.2109 122.289C91.8203 122.576 91.5306 123.087 91.3418 123.822L89.623 123.588C89.7793 122.852 90.0365 122.26 90.3945 121.811C90.7526 121.355 91.2702 121.007 91.9473 120.766C92.6243 120.518 93.4089 120.395 94.3008 120.395C95.1862 120.395 95.9056 120.499 96.459 120.707C97.0124 120.915 97.4193 121.179 97.6797 121.498C97.9401 121.811 98.1224 122.208 98.2266 122.689C98.2852 122.989 98.3145 123.529 98.3145 124.311V126.654C98.3145 128.288 98.3503 129.324 98.4219 129.76C98.5 130.189 98.6497 130.603 98.8711 131H97.0352C96.8529 130.635 96.7357 130.209 96.6836 129.721ZM96.5371 125.795C95.8991 126.055 94.9421 126.277 93.666 126.459C92.9434 126.563 92.4323 126.68 92.1328 126.811C91.8333 126.941 91.6022 127.133 91.4395 127.387C91.2767 127.634 91.1953 127.911 91.1953 128.217C91.1953 128.686 91.3711 129.076 91.7227 129.389C92.0807 129.701 92.6016 129.857 93.2852 129.857C93.9622 129.857 94.5645 129.711 95.0918 129.418C95.6191 129.118 96.0065 128.712 96.2539 128.197C96.4427 127.8 96.5371 127.214 96.5371 126.439V125.795ZM106.938 131V116.684H116.596V118.373H108.832V122.807H115.551V124.496H108.832V131H106.938ZM118.188 125.814C118.188 123.894 118.721 122.471 119.789 121.547C120.681 120.779 121.768 120.395 123.051 120.395C124.477 120.395 125.642 120.863 126.547 121.801C127.452 122.732 127.904 124.021 127.904 125.668C127.904 127.003 127.702 128.054 127.299 128.822C126.902 129.584 126.319 130.176 125.551 130.6C124.789 131.023 123.956 131.234 123.051 131.234C121.599 131.234 120.424 130.769 119.525 129.838C118.633 128.907 118.188 127.566 118.188 125.814ZM119.994 125.814C119.994 127.143 120.284 128.139 120.863 128.803C121.443 129.46 122.172 129.789 123.051 129.789C123.923 129.789 124.649 129.457 125.229 128.793C125.808 128.129 126.098 127.117 126.098 125.756C126.098 124.473 125.805 123.503 125.219 122.846C124.639 122.182 123.917 121.85 123.051 121.85C122.172 121.85 121.443 122.178 120.863 122.836C120.284 123.493 119.994 124.486 119.994 125.814ZM136.771 131V129.477C135.964 130.648 134.867 131.234 133.48 131.234C132.868 131.234 132.296 131.117 131.762 130.883C131.234 130.648 130.84 130.355 130.58 130.004C130.326 129.646 130.147 129.21 130.043 128.695C129.971 128.35 129.936 127.803 129.936 127.055V120.629H131.693V126.381C131.693 127.299 131.729 127.917 131.801 128.236C131.911 128.699 132.146 129.063 132.504 129.33C132.862 129.59 133.305 129.721 133.832 129.721C134.359 129.721 134.854 129.587 135.316 129.32C135.779 129.047 136.104 128.679 136.293 128.217C136.488 127.748 136.586 127.071 136.586 126.186V120.629H138.344V131H136.771ZM141.107 131V120.629H142.689V122.104C143.451 120.964 144.551 120.395 145.99 120.395C146.615 120.395 147.188 120.508 147.709 120.736C148.236 120.958 148.63 121.251 148.891 121.615C149.151 121.98 149.333 122.413 149.438 122.914C149.503 123.24 149.535 123.809 149.535 124.623V131H147.777V124.691C147.777 123.975 147.709 123.441 147.572 123.09C147.436 122.732 147.191 122.449 146.84 122.24C146.495 122.025 146.088 121.918 145.619 121.918C144.87 121.918 144.223 122.156 143.676 122.631C143.135 123.106 142.865 124.008 142.865 125.336V131H141.107ZM158.969 131V129.691C158.311 130.72 157.344 131.234 156.068 131.234C155.242 131.234 154.48 131.007 153.783 130.551C153.093 130.095 152.556 129.46 152.172 128.646C151.794 127.826 151.605 126.885 151.605 125.824C151.605 124.789 151.778 123.852 152.123 123.012C152.468 122.165 152.986 121.518 153.676 121.068C154.366 120.619 155.137 120.395 155.99 120.395C156.615 120.395 157.172 120.528 157.66 120.795C158.148 121.055 158.546 121.397 158.852 121.82V116.684H160.6V131H158.969ZM153.412 125.824C153.412 127.152 153.692 128.145 154.252 128.803C154.812 129.46 155.473 129.789 156.234 129.789C157.003 129.789 157.654 129.477 158.188 128.852C158.728 128.22 158.998 127.26 158.998 125.971C158.998 124.551 158.725 123.51 158.178 122.846C157.631 122.182 156.957 121.85 156.156 121.85C155.375 121.85 154.721 122.169 154.193 122.807C153.673 123.445 153.412 124.451 153.412 125.824ZM170.141 129.721C169.49 130.274 168.861 130.665 168.256 130.893C167.657 131.12 167.012 131.234 166.322 131.234C165.183 131.234 164.307 130.958 163.695 130.404C163.083 129.844 162.777 129.132 162.777 128.266C162.777 127.758 162.891 127.296 163.119 126.879C163.354 126.456 163.656 126.117 164.027 125.863C164.405 125.609 164.828 125.417 165.297 125.287C165.642 125.196 166.163 125.108 166.859 125.023C168.279 124.854 169.324 124.652 169.994 124.418C170.001 124.177 170.004 124.024 170.004 123.959C170.004 123.243 169.838 122.738 169.506 122.445C169.057 122.048 168.389 121.85 167.504 121.85C166.677 121.85 166.065 121.996 165.668 122.289C165.277 122.576 164.988 123.087 164.799 123.822L163.08 123.588C163.236 122.852 163.493 122.26 163.852 121.811C164.21 121.355 164.727 121.007 165.404 120.766C166.081 120.518 166.866 120.395 167.758 120.395C168.643 120.395 169.363 120.499 169.916 120.707C170.469 120.915 170.876 121.179 171.137 121.498C171.397 121.811 171.579 122.208 171.684 122.689C171.742 122.989 171.771 123.529 171.771 124.311V126.654C171.771 128.288 171.807 129.324 171.879 129.76C171.957 130.189 172.107 130.603 172.328 131H170.492C170.31 130.635 170.193 130.209 170.141 129.721ZM169.994 125.795C169.356 126.055 168.399 126.277 167.123 126.459C166.4 126.563 165.889 126.68 165.59 126.811C165.29 126.941 165.059 127.133 164.896 127.387C164.734 127.634 164.652 127.911 164.652 128.217C164.652 128.686 164.828 129.076 165.18 129.389C165.538 129.701 166.059 129.857 166.742 129.857C167.419 129.857 168.021 129.711 168.549 129.418C169.076 129.118 169.464 128.712 169.711 128.197C169.9 127.8 169.994 127.214 169.994 126.439V125.795ZM178.344 129.428L178.598 130.98C178.103 131.085 177.66 131.137 177.27 131.137C176.632 131.137 176.137 131.036 175.785 130.834C175.434 130.632 175.186 130.368 175.043 130.043C174.9 129.711 174.828 129.018 174.828 127.963V121.996H173.539V120.629H174.828V118.061L176.576 117.006V120.629H178.344V121.996H176.576V128.061C176.576 128.562 176.605 128.884 176.664 129.027C176.729 129.171 176.83 129.285 176.967 129.369C177.11 129.454 177.312 129.496 177.572 129.496C177.768 129.496 178.025 129.473 178.344 129.428ZM180.082 118.705V116.684H181.84V118.705H180.082ZM180.082 131V120.629H181.84V131H180.082ZM183.871 125.814C183.871 123.894 184.405 122.471 185.473 121.547C186.365 120.779 187.452 120.395 188.734 120.395C190.16 120.395 191.326 120.863 192.23 121.801C193.135 122.732 193.588 124.021 193.588 125.668C193.588 127.003 193.386 128.054 192.982 128.822C192.585 129.584 192.003 130.176 191.234 130.6C190.473 131.023 189.639 131.234 188.734 131.234C187.283 131.234 186.107 130.769 185.209 129.838C184.317 128.907 183.871 127.566 183.871 125.814ZM185.678 125.814C185.678 127.143 185.967 128.139 186.547 128.803C187.126 129.46 187.855 129.789 188.734 129.789C189.607 129.789 190.333 129.457 190.912 128.793C191.492 128.129 191.781 127.117 191.781 125.756C191.781 124.473 191.488 123.503 190.902 122.846C190.323 122.182 189.6 121.85 188.734 121.85C187.855 121.85 187.126 122.178 186.547 122.836C185.967 123.493 185.678 124.486 185.678 125.814ZM195.658 131V120.629H197.24V122.104C198.002 120.964 199.102 120.395 200.541 120.395C201.166 120.395 201.739 120.508 202.26 120.736C202.787 120.958 203.181 121.251 203.441 121.615C203.702 121.98 203.884 122.413 203.988 122.914C204.053 123.24 204.086 123.809 204.086 124.623V131H202.328V124.691C202.328 123.975 202.26 123.441 202.123 123.09C201.986 122.732 201.742 122.449 201.391 122.24C201.046 122.025 200.639 121.918 200.17 121.918C199.421 121.918 198.773 122.156 198.227 122.631C197.686 123.106 197.416 124.008 197.416 125.336V131H195.658ZM221.107 129.311V131H211.645C211.632 130.577 211.7 130.17 211.85 129.779C212.09 129.135 212.475 128.5 213.002 127.875C213.536 127.25 214.304 126.527 215.307 125.707C216.863 124.431 217.914 123.422 218.461 122.68C219.008 121.931 219.281 121.225 219.281 120.561C219.281 119.864 219.031 119.278 218.529 118.803C218.035 118.321 217.387 118.08 216.586 118.08C215.74 118.08 215.062 118.334 214.555 118.842C214.047 119.35 213.79 120.053 213.783 120.951L211.977 120.766C212.1 119.418 212.566 118.393 213.373 117.689C214.18 116.98 215.264 116.625 216.625 116.625C217.999 116.625 219.086 117.006 219.887 117.768C220.688 118.529 221.088 119.473 221.088 120.6C221.088 121.173 220.971 121.736 220.736 122.289C220.502 122.842 220.111 123.425 219.564 124.037C219.024 124.649 218.122 125.489 216.859 126.557C215.805 127.442 215.128 128.044 214.828 128.363C214.529 128.676 214.281 128.992 214.086 129.311H221.107ZM223.002 123.939C223.002 122.247 223.174 120.886 223.52 119.857C223.871 118.822 224.389 118.025 225.072 117.465C225.762 116.905 226.628 116.625 227.67 116.625C228.438 116.625 229.112 116.781 229.691 117.094C230.271 117.4 230.749 117.846 231.127 118.432C231.505 119.011 231.801 119.721 232.016 120.561C232.23 121.394 232.338 122.52 232.338 123.939C232.338 125.619 232.165 126.977 231.82 128.012C231.475 129.04 230.958 129.838 230.268 130.404C229.584 130.964 228.718 131.244 227.67 131.244C226.29 131.244 225.206 130.749 224.418 129.76C223.474 128.568 223.002 126.628 223.002 123.939ZM224.809 123.939C224.809 126.29 225.082 127.855 225.629 128.637C226.182 129.411 226.863 129.799 227.67 129.799C228.477 129.799 229.154 129.408 229.701 128.627C230.255 127.846 230.531 126.283 230.531 123.939C230.531 121.583 230.255 120.017 229.701 119.242C229.154 118.467 228.471 118.08 227.65 118.08C226.843 118.08 226.199 118.422 225.717 119.105C225.111 119.978 224.809 121.589 224.809 123.939ZM243.373 129.311V131H233.91C233.897 130.577 233.965 130.17 234.115 129.779C234.356 129.135 234.74 128.5 235.268 127.875C235.801 127.25 236.57 126.527 237.572 125.707C239.128 124.431 240.18 123.422 240.727 122.68C241.273 121.931 241.547 121.225 241.547 120.561C241.547 119.864 241.296 119.278 240.795 118.803C240.3 118.321 239.652 118.08 238.852 118.08C238.005 118.08 237.328 118.334 236.82 118.842C236.312 119.35 236.055 120.053 236.049 120.951L234.242 120.766C234.366 119.418 234.831 118.393 235.639 117.689C236.446 116.98 237.53 116.625 238.891 116.625C240.264 116.625 241.352 117.006 242.152 117.768C242.953 118.529 243.354 119.473 243.354 120.6C243.354 121.173 243.236 121.736 243.002 122.289C242.768 122.842 242.377 123.425 241.83 124.037C241.29 124.649 240.388 125.489 239.125 126.557C238.07 127.442 237.393 128.044 237.094 128.363C236.794 128.676 236.547 128.992 236.352 129.311H243.373ZM245.268 123.939C245.268 122.247 245.44 120.886 245.785 119.857C246.137 118.822 246.654 118.025 247.338 117.465C248.028 116.905 248.894 116.625 249.936 116.625C250.704 116.625 251.378 116.781 251.957 117.094C252.536 117.4 253.015 117.846 253.393 118.432C253.77 119.011 254.066 119.721 254.281 120.561C254.496 121.394 254.604 122.52 254.604 123.939C254.604 125.619 254.431 126.977 254.086 128.012C253.741 129.04 253.223 129.838 252.533 130.404C251.85 130.964 250.984 131.244 249.936 131.244C248.555 131.244 247.471 130.749 246.684 129.76C245.74 128.568 245.268 126.628 245.268 123.939ZM247.074 123.939C247.074 126.29 247.348 127.855 247.895 128.637C248.448 129.411 249.128 129.799 249.936 129.799C250.743 129.799 251.42 129.408 251.967 128.627C252.52 127.846 252.797 126.283 252.797 123.939C252.797 121.583 252.52 120.017 251.967 119.242C251.42 118.467 250.736 118.08 249.916 118.08C249.109 118.08 248.464 118.422 247.982 119.105C247.377 119.978 247.074 121.589 247.074 123.939Z" fill="white"/>
</svg>
