<svg width="400" height="100" viewBox="0 0 400 100" fill="none" xmlns="http://www.w3.org/2000/svg">
<path d="M0 0H319.471L400 100H0V0Z" fill="black"/>
<path d="M0 0H319.471L400 100H0V0Z" fill="black"/>
<path d="M38.62 56.13C37.3893 56.13 36.2453 55.8787 35.188 55.376C34.148 54.8733 33.2293 54.18 32.432 53.296C31.652 52.412 31.0367 51.4067 30.586 50.28C30.1527 49.1533 29.936 47.9573 29.936 46.692C29.936 45.444 30.1527 44.2653 30.586 43.156C31.0193 42.0293 31.6347 41.0413 32.432 40.192C33.2293 39.3253 34.1567 38.6493 35.214 38.164C36.2887 37.6613 37.4587 37.41 38.724 37.41C40.4747 37.41 41.948 37.7827 43.144 38.528C44.34 39.256 45.25 40.2267 45.874 41.44L43.638 43.052C43.1353 42.0467 42.442 41.2927 41.558 40.79C40.674 40.2873 39.7033 40.036 38.646 40.036C37.4847 40.036 36.4707 40.3567 35.604 40.998C34.7373 41.622 34.07 42.4453 33.602 43.468C33.134 44.4907 32.9 45.5913 32.9 46.77C32.9 48.018 33.16 49.1533 33.68 50.176C34.2 51.1813 34.902 51.9873 35.786 52.594C36.6873 53.2007 37.71 53.504 38.854 53.504C40.7607 53.504 42.4767 52.594 44.002 50.774V48.824H40.128V46.666H46.446V56H44.002V53.712C42.4593 55.324 40.6653 56.13 38.62 56.13ZM57.0475 44.872C55.9382 44.9067 54.9502 45.1667 54.0835 45.652C53.2342 46.12 52.6275 46.796 52.2635 47.68V56H49.4035V42.402H52.0555V45.444C52.5235 44.508 53.1388 43.7627 53.9015 43.208C54.6642 42.636 55.4702 42.324 56.3195 42.272C56.4755 42.272 56.6142 42.272 56.7355 42.272C56.8568 42.272 56.9608 42.2807 57.0475 42.298V44.872ZM58.1147 52.022C58.1147 51.1553 58.3574 50.4013 58.8427 49.76C59.3281 49.1013 60.0041 48.5987 60.8707 48.252C61.7547 47.888 62.7687 47.706 63.9127 47.706C64.5194 47.706 65.1347 47.758 65.7587 47.862C66.4001 47.9487 66.9634 48.0787 67.4487 48.252V47.394C67.4487 46.4407 67.1627 45.6953 66.5907 45.158C66.0187 44.6207 65.1954 44.352 64.1207 44.352C63.3754 44.352 62.6561 44.482 61.9627 44.742C61.2694 45.002 60.5501 45.3833 59.8047 45.886L58.8427 43.962C59.7441 43.3727 60.6454 42.9307 61.5467 42.636C62.4654 42.324 63.4274 42.168 64.4327 42.168C66.2527 42.168 67.6827 42.6533 68.7227 43.624C69.7801 44.5773 70.3087 45.938 70.3087 47.706V52.776C70.3087 53.1053 70.3607 53.3393 70.4647 53.478C70.5861 53.6167 70.7854 53.6947 71.0627 53.712V56C70.8027 56.052 70.5687 56.0867 70.3607 56.104C70.1527 56.1213 69.9794 56.13 69.8407 56.13C69.2167 56.13 68.7487 55.9827 68.4367 55.688C68.1421 55.376 67.9687 55.0293 67.9167 54.648L67.8387 53.868C67.2494 54.6307 66.4954 55.22 65.5767 55.636C64.6581 56.052 63.7307 56.26 62.7947 56.26C61.8934 56.26 61.0874 56.078 60.3767 55.714C59.6661 55.3327 59.1114 54.8213 58.7127 54.18C58.3141 53.5387 58.1147 52.8193 58.1147 52.022ZM66.7727 52.854C67.2234 52.4033 67.4487 51.9787 67.4487 51.58V50.02C66.4261 49.6387 65.3861 49.448 64.3287 49.448C63.2887 49.448 62.4394 49.6647 61.7807 50.098C61.1394 50.514 60.8187 51.0773 60.8187 51.788C60.8187 52.3773 61.0527 52.9233 61.5207 53.426C62.0061 53.9113 62.6994 54.154 63.6007 54.154C64.2074 54.154 64.7967 54.0327 65.3687 53.79C65.9407 53.5473 66.4087 53.2353 66.7727 52.854ZM94.5785 56H91.7185V48.382C91.7185 47.134 91.5105 46.2153 91.0945 45.626C90.6785 45.0193 90.0718 44.716 89.2745 44.716C88.4772 44.716 87.7318 45.0193 87.0385 45.626C86.3625 46.2153 85.8858 46.9867 85.6085 47.94V56H82.7485V48.382C82.7485 47.0993 82.5405 46.172 82.1245 45.6C81.7085 45.0107 81.1105 44.716 80.3305 44.716C79.5332 44.716 78.7878 45.0107 78.0945 45.6C77.4185 46.1893 76.9332 46.9607 76.6385 47.914V56H73.7785V42.402H76.3785V45.132C76.8985 44.1787 77.6005 43.4507 78.4845 42.948C79.3685 42.428 80.3738 42.168 81.5005 42.168C82.6272 42.168 83.5112 42.4627 84.1525 43.052C84.8112 43.6413 85.2185 44.378 85.3745 45.262C86.5532 43.1993 88.2605 42.168 90.4965 42.168C91.5712 42.168 92.4032 42.428 92.9925 42.948C93.5818 43.4507 93.9892 44.1267 94.2145 44.976C94.4572 45.808 94.5785 46.718 94.5785 47.706V56ZM104.662 56V37.54H112.41C113.242 37.54 114.005 37.7133 114.698 38.06C115.409 38.4067 116.015 38.866 116.518 39.438C117.038 40.01 117.437 40.6513 117.714 41.362C117.991 42.0727 118.13 42.8007 118.13 43.546C118.13 44.586 117.896 45.5653 117.428 46.484C116.96 47.4027 116.31 48.148 115.478 48.72C114.646 49.292 113.675 49.578 112.566 49.578H107.574V56H104.662ZM107.574 47.004H112.384C113.199 47.004 113.866 46.6747 114.386 46.016C114.906 45.3573 115.166 44.534 115.166 43.546C115.166 42.87 115.027 42.2807 114.75 41.778C114.473 41.258 114.109 40.8507 113.658 40.556C113.225 40.2613 112.748 40.114 112.228 40.114H107.574V47.004ZM119.357 52.022C119.357 51.1553 119.6 50.4013 120.085 49.76C120.57 49.1013 121.246 48.5987 122.113 48.252C122.997 47.888 124.011 47.706 125.155 47.706C125.762 47.706 126.377 47.758 127.001 47.862C127.642 47.9487 128.206 48.0787 128.691 48.252V47.394C128.691 46.4407 128.405 45.6953 127.833 45.158C127.261 44.6207 126.438 44.352 125.363 44.352C124.618 44.352 123.898 44.482 123.205 44.742C122.512 45.002 121.792 45.3833 121.047 45.886L120.085 43.962C120.986 43.3727 121.888 42.9307 122.789 42.636C123.708 42.324 124.67 42.168 125.675 42.168C127.495 42.168 128.925 42.6533 129.965 43.624C131.022 44.5773 131.551 45.938 131.551 47.706V52.776C131.551 53.1053 131.603 53.3393 131.707 53.478C131.828 53.6167 132.028 53.6947 132.305 53.712V56C132.045 56.052 131.811 56.0867 131.603 56.104C131.395 56.1213 131.222 56.13 131.083 56.13C130.459 56.13 129.991 55.9827 129.679 55.688C129.384 55.376 129.211 55.0293 129.159 54.648L129.081 53.868C128.492 54.6307 127.738 55.22 126.819 55.636C125.9 56.052 124.973 56.26 124.037 56.26C123.136 56.26 122.33 56.078 121.619 55.714C120.908 55.3327 120.354 54.8213 119.955 54.18C119.556 53.5387 119.357 52.8193 119.357 52.022ZM128.015 52.854C128.466 52.4033 128.691 51.9787 128.691 51.58V50.02C127.668 49.6387 126.628 49.448 125.571 49.448C124.531 49.448 123.682 49.6647 123.023 50.098C122.382 50.514 122.061 51.0773 122.061 51.788C122.061 52.3773 122.295 52.9233 122.763 53.426C123.248 53.9113 123.942 54.154 124.843 54.154C125.45 54.154 126.039 54.0327 126.611 53.79C127.183 53.5473 127.651 53.2353 128.015 52.854ZM147.215 56H144.355V48.382C144.355 47.0993 144.147 46.172 143.731 45.6C143.332 45.0107 142.734 44.716 141.937 44.716C141.382 44.716 140.827 44.8547 140.273 45.132C139.735 45.4093 139.25 45.7907 138.817 46.276C138.383 46.7613 138.071 47.3073 137.881 47.914V56H135.021V42.402H137.621V45.132C138.141 44.2307 138.895 43.5113 139.883 42.974C140.871 42.4367 141.963 42.168 143.159 42.168C144.233 42.168 145.065 42.428 145.655 42.948C146.244 43.4507 146.651 44.118 146.877 44.95C147.102 45.782 147.215 46.7007 147.215 47.706V56ZM156.696 56.26C155.292 56.26 154.062 55.9393 153.004 55.298C151.947 54.6393 151.124 53.7727 150.534 52.698C149.945 51.6233 149.65 50.4533 149.65 49.188C149.65 47.9227 149.936 46.7613 150.508 45.704C151.098 44.6293 151.912 43.7713 152.952 43.13C154.01 42.4887 155.258 42.168 156.696 42.168C158.1 42.168 159.305 42.48 160.31 43.104C161.333 43.7107 162.096 44.5253 162.598 45.548L159.816 46.432C159.504 45.86 159.062 45.418 158.49 45.106C157.936 44.7767 157.32 44.612 156.644 44.612C155.882 44.612 155.188 44.8113 154.564 45.21C153.958 45.5913 153.472 46.1287 153.108 46.822C152.762 47.5153 152.588 48.304 152.588 49.188C152.588 50.072 152.77 50.8607 153.134 51.554C153.516 52.2473 154.01 52.802 154.616 53.218C155.24 53.6167 155.925 53.816 156.67 53.816C157.364 53.816 158.022 53.634 158.646 53.27C159.27 52.906 159.686 52.464 159.894 51.944L162.702 52.776C162.252 53.7987 161.498 54.6393 160.44 55.298C159.383 55.9393 158.135 56.26 156.696 56.26ZM177.252 56H174.392V48.382C174.392 47.1513 174.166 46.2327 173.716 45.626C173.265 45.0193 172.632 44.716 171.818 44.716C171.298 44.716 170.769 44.8547 170.232 45.132C169.712 45.4093 169.244 45.7907 168.828 46.276C168.412 46.744 168.108 47.29 167.918 47.914V56H165.058V37.02H167.918V45.132C168.438 44.196 169.148 43.468 170.05 42.948C170.951 42.428 171.922 42.168 172.962 42.168C174.088 42.168 174.964 42.428 175.588 42.948C176.212 43.4507 176.645 44.1267 176.888 44.976C177.13 45.808 177.252 46.718 177.252 47.706V56ZM179.583 52.022C179.583 51.1553 179.826 50.4013 180.311 49.76C180.797 49.1013 181.473 48.5987 182.339 48.252C183.223 47.888 184.237 47.706 185.381 47.706C185.988 47.706 186.603 47.758 187.227 47.862C187.869 47.9487 188.432 48.0787 188.917 48.252V47.394C188.917 46.4407 188.631 45.6953 188.059 45.158C187.487 44.6207 186.664 44.352 185.589 44.352C184.844 44.352 184.125 44.482 183.431 44.742C182.738 45.002 182.019 45.3833 181.273 45.886L180.311 43.962C181.213 43.3727 182.114 42.9307 183.015 42.636C183.934 42.324 184.896 42.168 185.901 42.168C187.721 42.168 189.151 42.6533 190.191 43.624C191.249 44.5773 191.777 45.938 191.777 47.706V52.776C191.777 53.1053 191.829 53.3393 191.933 53.478C192.055 53.6167 192.254 53.6947 192.531 53.712V56C192.271 56.052 192.037 56.0867 191.829 56.104C191.621 56.1213 191.448 56.13 191.309 56.13C190.685 56.13 190.217 55.9827 189.905 55.688C189.611 55.376 189.437 55.0293 189.385 54.648L189.307 53.868C188.718 54.6307 187.964 55.22 187.045 55.636C186.127 56.052 185.199 56.26 184.263 56.26C183.362 56.26 182.556 56.078 181.845 55.714C181.135 55.3327 180.58 54.8213 180.181 54.18C179.783 53.5387 179.583 52.8193 179.583 52.022ZM188.241 52.854C188.692 52.4033 188.917 51.9787 188.917 51.58V50.02C187.895 49.6387 186.855 49.448 185.797 49.448C184.757 49.448 183.908 49.6647 183.249 50.098C182.608 50.514 182.287 51.0773 182.287 51.788C182.287 52.3773 182.521 52.9233 182.989 53.426C183.475 53.9113 184.168 54.154 185.069 54.154C185.676 54.154 186.265 54.0327 186.837 53.79C187.409 53.5473 187.877 53.2353 188.241 52.854ZM195.233 59.198C195.493 59.25 195.744 59.2933 195.987 59.328C196.247 59.3627 196.455 59.38 196.611 59.38C196.905 59.38 197.157 59.2847 197.365 59.094C197.59 58.9207 197.815 58.5913 198.041 58.106C198.266 57.6207 198.543 56.9187 198.873 56L193.283 42.402H196.273L200.433 53.088L204.125 42.402H206.881L200.719 59.146C200.441 59.9087 199.956 60.5587 199.263 61.096C198.587 61.6333 197.711 61.902 196.637 61.902C196.429 61.902 196.212 61.8847 195.987 61.85C195.761 61.8153 195.51 61.7633 195.233 61.694V59.198ZM207.64 52.022C207.64 51.1553 207.883 50.4013 208.368 49.76C208.853 49.1013 209.529 48.5987 210.396 48.252C211.28 47.888 212.294 47.706 213.438 47.706C214.045 47.706 214.66 47.758 215.284 47.862C215.925 47.9487 216.489 48.0787 216.974 48.252V47.394C216.974 46.4407 216.688 45.6953 216.116 45.158C215.544 44.6207 214.721 44.352 213.646 44.352C212.901 44.352 212.181 44.482 211.488 44.742C210.795 45.002 210.075 45.3833 209.33 45.886L208.368 43.962C209.269 43.3727 210.171 42.9307 211.072 42.636C211.991 42.324 212.953 42.168 213.958 42.168C215.778 42.168 217.208 42.6533 218.248 43.624C219.305 44.5773 219.834 45.938 219.834 47.706V52.776C219.834 53.1053 219.886 53.3393 219.99 53.478C220.111 53.6167 220.311 53.6947 220.588 53.712V56C220.328 56.052 220.094 56.0867 219.886 56.104C219.678 56.1213 219.505 56.13 219.366 56.13C218.742 56.13 218.274 55.9827 217.962 55.688C217.667 55.376 217.494 55.0293 217.442 54.648L217.364 53.868C216.775 54.6307 216.021 55.22 215.102 55.636C214.183 56.052 213.256 56.26 212.32 56.26C211.419 56.26 210.613 56.078 209.902 55.714C209.191 55.3327 208.637 54.8213 208.238 54.18C207.839 53.5387 207.64 52.8193 207.64 52.022ZM216.298 52.854C216.749 52.4033 216.974 51.9787 216.974 51.58V50.02C215.951 49.6387 214.911 49.448 213.854 49.448C212.814 49.448 211.965 49.6647 211.306 50.098C210.665 50.514 210.344 51.0773 210.344 51.788C210.344 52.3773 210.578 52.9233 211.046 53.426C211.531 53.9113 212.225 54.154 213.126 54.154C213.733 54.154 214.322 54.0327 214.894 53.79C215.466 53.5473 215.934 53.2353 216.298 52.854ZM230.768 55.298C230.404 55.4713 229.902 55.6707 229.26 55.896C228.619 56.104 227.934 56.208 227.206 56.208C226.305 56.208 225.525 55.9653 224.866 55.48C224.225 54.9947 223.904 54.206 223.904 53.114V44.612H222.11V42.402H223.904V37.93H226.764V42.402H229.728V44.612H226.764V52.204C226.799 52.6893 226.946 53.0447 227.206 53.27C227.484 53.478 227.822 53.582 228.22 53.582C228.619 53.582 229 53.5127 229.364 53.374C229.728 53.2353 229.997 53.1227 230.17 53.036L230.768 55.298ZM247.077 56.13C245.846 56.13 244.702 55.8787 243.645 55.376C242.605 54.8733 241.686 54.18 240.889 53.296C240.109 52.412 239.494 51.4067 239.043 50.28C238.61 49.1533 238.393 47.9573 238.393 46.692C238.393 45.444 238.61 44.2653 239.043 43.156C239.476 42.0293 240.092 41.0413 240.889 40.192C241.686 39.3253 242.614 38.6493 243.671 38.164C244.746 37.6613 245.916 37.41 247.181 37.41C248.932 37.41 250.405 37.7827 251.601 38.528C252.797 39.256 253.707 40.2267 254.331 41.44L252.095 43.052C251.592 42.0467 250.899 41.2927 250.015 40.79C249.131 40.2873 248.16 40.036 247.103 40.036C245.942 40.036 244.928 40.3567 244.061 40.998C243.194 41.622 242.527 42.4453 242.059 43.468C241.591 44.4907 241.357 45.5913 241.357 46.77C241.357 48.018 241.617 49.1533 242.137 50.176C242.657 51.1813 243.359 51.9873 244.243 52.594C245.144 53.2007 246.167 53.504 247.311 53.504C249.218 53.504 250.934 52.594 252.459 50.774V48.824H248.585V46.666H254.903V56H252.459V53.712C250.916 55.324 249.122 56.13 247.077 56.13ZM257.731 50.722V42.402H260.591V50.15C260.591 52.594 261.457 53.816 263.191 53.816C264.005 53.816 264.777 53.5647 265.505 53.062C266.233 52.542 266.796 51.814 267.195 50.878V42.402H270.055V52.776C270.055 53.1053 270.115 53.3393 270.237 53.478C270.358 53.6167 270.557 53.6947 270.835 53.712V56C270.54 56.052 270.297 56.0867 270.107 56.104C269.916 56.1213 269.734 56.13 269.561 56.13C269.041 56.13 268.607 55.9913 268.261 55.714C267.914 55.4367 267.715 55.064 267.663 54.596L267.611 53.244C267.004 54.232 266.215 54.986 265.245 55.506C264.274 56.0087 263.208 56.26 262.047 56.26C260.625 56.26 259.551 55.792 258.823 54.856C258.095 53.92 257.731 52.542 257.731 50.722ZM273.86 40.166V37.02H276.72V40.166H273.86ZM272.274 60.966C271.65 60.966 271.061 60.8707 270.506 60.68C269.934 60.4893 269.432 60.1947 268.998 59.796L270.272 57.872C270.498 58.08 270.758 58.2273 271.052 58.314C271.347 58.418 271.642 58.47 271.936 58.47C272.439 58.47 272.881 58.2793 273.262 57.898C273.661 57.534 273.86 57.066 273.86 56.494V42.402H276.72V56.286C276.72 57.2047 276.512 58.0107 276.096 58.704C275.698 59.4147 275.16 59.9693 274.484 60.368C273.808 60.7667 273.072 60.966 272.274 60.966ZM279.166 52.022C279.166 51.1553 279.408 50.4013 279.894 49.76C280.379 49.1013 281.055 48.5987 281.922 48.252C282.806 47.888 283.82 47.706 284.964 47.706C285.57 47.706 286.186 47.758 286.81 47.862C287.451 47.9487 288.014 48.0787 288.5 48.252V47.394C288.5 46.4407 288.214 45.6953 287.642 45.158C287.07 44.6207 286.246 44.352 285.172 44.352C284.426 44.352 283.707 44.482 283.014 44.742C282.32 45.002 281.601 45.3833 280.856 45.886L279.894 43.962C280.795 43.3727 281.696 42.9307 282.598 42.636C283.516 42.324 284.478 42.168 285.484 42.168C287.304 42.168 288.734 42.6533 289.774 43.624C290.831 44.5773 291.36 45.938 291.36 47.706V52.776C291.36 53.1053 291.412 53.3393 291.516 53.478C291.637 53.6167 291.836 53.6947 292.114 53.712V56C291.854 56.052 291.62 56.0867 291.412 56.104C291.204 56.1213 291.03 56.13 290.892 56.13C290.268 56.13 289.8 55.9827 289.488 55.688C289.193 55.376 289.02 55.0293 288.968 54.648L288.89 53.868C288.3 54.6307 287.546 55.22 286.628 55.636C285.709 56.052 284.782 56.26 283.846 56.26C282.944 56.26 282.138 56.078 281.428 55.714C280.717 55.3327 280.162 54.8213 279.764 54.18C279.365 53.5387 279.166 52.8193 279.166 52.022ZM287.824 52.854C288.274 52.4033 288.5 51.9787 288.5 51.58V50.02C287.477 49.6387 286.437 49.448 285.38 49.448C284.34 49.448 283.49 49.6647 282.832 50.098C282.19 50.514 281.869 51.0773 281.869 51.788C281.869 52.3773 282.104 52.9233 282.572 53.426C283.057 53.9113 283.75 54.154 284.652 54.154C285.258 54.154 285.848 54.0327 286.42 53.79C286.992 53.5473 287.46 53.2353 287.824 52.854ZM302.473 44.872C301.364 44.9067 300.376 45.1667 299.509 45.652C298.66 46.12 298.053 46.796 297.689 47.68V56H294.829V42.402H297.481V45.444C297.949 44.508 298.565 43.7627 299.327 43.208C300.09 42.636 300.896 42.324 301.745 42.272C301.901 42.272 302.04 42.272 302.161 42.272C302.283 42.272 302.387 42.2807 302.473 42.298V44.872ZM303.541 52.022C303.541 51.1553 303.783 50.4013 304.269 49.76C304.754 49.1013 305.43 48.5987 306.297 48.252C307.181 47.888 308.195 47.706 309.339 47.706C309.945 47.706 310.561 47.758 311.185 47.862C311.826 47.9487 312.389 48.0787 312.875 48.252V47.394C312.875 46.4407 312.589 45.6953 312.017 45.158C311.445 44.6207 310.621 44.352 309.547 44.352C308.801 44.352 308.082 44.482 307.389 44.742C306.695 45.002 305.976 45.3833 305.231 45.886L304.269 43.962C305.17 43.3727 306.071 42.9307 306.973 42.636C307.891 42.324 308.853 42.168 309.859 42.168C311.679 42.168 313.109 42.6533 314.149 43.624C315.206 44.5773 315.735 45.938 315.735 47.706V52.776C315.735 53.1053 315.787 53.3393 315.891 53.478C316.012 53.6167 316.211 53.6947 316.489 53.712V56C316.229 56.052 315.995 56.0867 315.787 56.104C315.579 56.1213 315.405 56.13 315.267 56.13C314.643 56.13 314.175 55.9827 313.863 55.688C313.568 55.376 313.395 55.0293 313.343 54.648L313.265 53.868C312.675 54.6307 311.921 55.22 311.003 55.636C310.084 56.052 309.157 56.26 308.221 56.26C307.319 56.26 306.513 56.078 305.803 55.714C305.092 55.3327 304.537 54.8213 304.139 54.18C303.74 53.5387 303.541 52.8193 303.541 52.022ZM312.199 52.854C312.649 52.4033 312.875 51.9787 312.875 51.58V50.02C311.852 49.6387 310.812 49.448 309.755 49.448C308.715 49.448 307.865 49.6647 307.207 50.098C306.565 50.514 306.244 51.0773 306.244 51.788C306.244 52.3773 306.479 52.9233 306.947 53.426C307.432 53.9113 308.125 54.154 309.027 54.154C309.633 54.154 310.223 54.0327 310.795 53.79C311.367 53.5473 311.835 53.2353 312.199 52.854ZM326.669 55.298C326.305 55.4713 325.802 55.6707 325.161 55.896C324.519 56.104 323.835 56.208 323.107 56.208C322.205 56.208 321.425 55.9653 320.767 55.48C320.125 54.9947 319.805 54.206 319.805 53.114V44.612H318.011V42.402H319.805V37.93H322.665V42.402H325.629V44.612H322.665V52.204C322.699 52.6893 322.847 53.0447 323.107 53.27C323.384 53.478 323.722 53.582 324.121 53.582C324.519 53.582 324.901 53.5127 325.265 53.374C325.629 53.2353 325.897 53.1227 326.071 53.036L326.669 55.298Z" fill="#01579B"/>
</svg>
