<svg width="400" height="100" viewBox="0 0 400 100" fill="none" xmlns="http://www.w3.org/2000/svg">
<path d="M0 0H319.471L400 100H0V0Z" fill="black"/>
<path d="M0 0H319.471L400 100H0V0Z" fill="black"/>
<path d="M101.612 35.048V58.0415C101.612 59.5154 101.681 60.5316 101.821 61.0902C101.961 61.6487 102.131 61.928 102.333 61.928C102.457 61.928 102.589 61.8504 102.729 61.6953C102.884 61.5401 103.039 61.3384 103.194 61.0902L105.638 57.8785H106.359L108.593 62.5564C107.709 63.4873 106.685 64.2398 105.521 64.8138C104.358 65.3879 103.241 65.6749 102.17 65.6749C101.503 65.6749 100.813 65.5198 100.099 65.2095C99.4007 64.8992 98.7413 64.3484 98.1207 63.5571C97.407 62.6262 96.9028 61.6022 96.608 60.4851C96.3132 59.3525 96.1658 57.8475 96.1658 55.9702V33.7215C96.1658 31.0994 96.4994 28.8187 97.1665 26.8793C97.8492 24.9244 98.7956 23.3108 100.006 22.0385C101.216 20.7508 102.674 19.7966 104.381 19.176C106.088 18.5399 107.957 18.2218 109.99 18.2218C111.991 18.2218 113.931 18.5011 115.808 19.0596C117.701 19.6182 119.47 20.3939 121.114 21.3869C122.774 22.3799 124.295 23.5668 125.676 24.9476C127.072 26.3285 128.282 27.8257 129.306 29.4393L127.956 30.7658C124.714 27.9576 121.781 25.9173 119.159 24.6451C116.537 23.3728 113.969 22.7367 111.456 22.7367C108.291 22.7367 105.855 23.7452 104.148 25.7622C102.457 27.7792 101.612 30.8744 101.612 35.048ZM107.963 43.8218C107.963 42.5496 108.211 41.3316 108.708 40.168C109.204 38.9888 109.918 37.9648 110.849 37.096C111.795 36.2116 112.959 35.5135 114.34 35.0015C115.736 34.4739 117.311 34.2102 119.064 34.2102C119.653 34.2102 120.251 34.249 120.856 34.3265C121.461 34.3886 122.027 34.4817 122.555 34.6058L123.905 38.6553L123.393 39.1673C122.865 39.0587 122.353 38.9888 121.857 38.9578C121.36 38.9268 120.957 38.9113 120.646 38.9113C118.366 38.9113 116.504 39.5939 115.061 40.9593C113.618 42.3091 112.897 44.008 112.897 46.056C112.897 47.8092 113.37 49.1901 114.316 50.1985C115.278 51.1915 116.628 51.688 118.366 51.688C119.235 51.688 120.142 51.5639 121.089 51.3156C122.051 51.0674 122.981 50.6873 123.881 50.1753C124.797 49.6633 125.673 49.0194 126.511 48.2436C127.349 47.4524 128.078 46.5292 128.699 45.4742H129.397L132.353 49.384C131.763 50.377 131.042 51.2924 130.188 52.1302C129.335 52.9525 128.404 53.6584 127.396 54.248C126.387 54.8221 125.301 55.272 124.137 55.5978C122.989 55.9236 121.818 56.0865 120.623 56.0865C118.901 56.0865 117.334 55.784 115.922 55.1789C114.51 54.5583 113.238 53.7127 112.105 52.6422C110.864 51.4785 109.863 50.1598 109.103 48.6858C108.343 47.2119 107.963 45.5905 107.963 43.8218ZM139.684 62.5564C138.799 63.4873 137.775 64.2398 136.612 64.8138C135.448 65.3879 134.331 65.6749 133.26 65.6749C132.593 65.6749 131.903 65.5198 131.189 65.2095C130.491 64.8992 129.831 64.3484 129.211 63.5571C128.497 62.6262 127.993 61.6022 127.698 60.4851C127.403 59.3525 127.256 57.8475 127.256 55.9702V32.744L127.745 32.2553L132.702 34.1171V58.0415C132.702 59.5154 132.772 60.5316 132.911 61.0902C133.051 61.6487 133.221 61.928 133.423 61.928C133.547 61.928 133.679 61.8504 133.819 61.6953C133.974 61.5401 134.129 61.3384 134.284 61.0902L136.728 57.8785H137.449L139.684 62.5564ZM147.035 41.0291C147.035 42.0065 147.291 42.9452 147.803 43.8451C148.315 44.745 149.068 45.5207 150.061 46.1724C151.395 45.2415 152.473 44.2407 153.295 43.1702C154.118 42.0841 154.529 40.9593 154.529 39.7956C154.529 38.6785 154.195 37.864 153.528 37.352C152.877 36.8245 152.132 36.5607 151.294 36.5607C150.223 36.5607 149.246 36.9564 148.362 37.7476C147.477 38.5234 147.035 39.6172 147.035 41.0291ZM172.682 58.6698C172.092 60.423 171.037 61.8737 169.517 63.0218C167.996 64.1699 166.243 64.744 164.257 64.744C163.047 64.744 161.829 64.5113 160.603 64.0458C159.377 63.5804 158.253 62.9132 157.229 62.0444C156.236 61.191 155.406 60.1825 154.738 59.0189C154.087 57.8398 153.761 56.6218 153.761 55.3651C153.761 54.6048 153.893 53.8834 154.157 53.2007C154.42 52.5181 154.793 51.8897 155.274 51.3156C154.808 51.207 154.35 51.0907 153.901 50.9665C153.451 50.8424 153.008 50.7105 152.574 50.5709C151.178 51.4863 149.564 52.3939 147.733 53.2938C145.918 54.1937 143.924 55.1091 141.752 56.04L139.332 51.5716C140.682 51.0441 142.031 50.4778 143.381 49.8727C144.731 49.2676 146.003 48.6315 147.198 47.9644C145.569 46.8473 144.281 45.5595 143.335 44.1011C142.388 42.6427 141.915 41.0989 141.915 39.4698C141.915 38.4148 142.109 37.4451 142.497 36.5607C142.9 35.6764 143.428 34.9239 144.079 34.3033C144.747 33.6827 145.53 33.2017 146.43 32.8604C147.33 32.5035 148.276 32.3251 149.269 32.3251C150.479 32.3251 151.651 32.5733 152.783 33.0698C153.932 33.5663 154.971 34.2567 155.902 35.1411C156.724 35.9324 157.454 36.8865 158.09 38.0036C158.726 39.1052 159.044 40.2999 159.044 41.5876C159.044 42.7823 158.765 43.9149 158.206 44.9855C157.663 46.056 156.864 47.0878 155.809 48.0807C156.181 48.1118 156.561 48.1428 156.949 48.1738C157.337 48.1893 157.741 48.1971 158.159 48.1971C159.028 48.1971 159.835 48.1583 160.58 48.0807C161.34 48.0032 162.186 47.9644 163.117 47.9644C163.132 47.9644 163.155 47.9644 163.186 47.9644C163.233 47.9644 163.264 47.9644 163.279 47.9644C163.528 47.9644 163.838 47.9799 164.21 48.0109C164.598 48.0264 164.963 48.0652 165.304 48.1273L166.375 52.1535L165.979 52.5491C165.622 52.5025 165.289 52.4715 164.978 52.456C164.668 52.425 164.373 52.4095 164.094 52.4095C162.403 52.4095 161.038 52.8361 159.998 53.6895C158.958 54.5273 158.439 55.6521 158.439 57.064C158.439 58.1345 158.749 59.0112 159.37 59.6938C160.006 60.3765 160.913 60.7178 162.093 60.7178C163.442 60.7178 164.777 60.2446 166.095 59.2982C167.43 58.3362 168.407 56.8701 169.028 54.8996H169.656L172.682 58.6698ZM180.85 62.5564C179.966 63.4873 178.942 64.2398 177.778 64.8138C176.615 65.3879 175.498 65.6749 174.427 65.6749C173.76 65.6749 173.07 65.5198 172.356 65.2095C171.658 64.8992 170.998 64.3484 170.378 63.5571C169.664 62.6262 169.16 61.6022 168.865 60.4851C168.57 59.3525 168.423 57.8475 168.423 55.9702V32.744L168.911 32.2553L173.869 34.1171V58.0415C173.869 59.5154 173.938 60.5316 174.078 61.0902C174.218 61.6487 174.388 61.928 174.59 61.928C174.714 61.928 174.846 61.8504 174.986 61.6953C175.141 61.5401 175.296 61.3384 175.451 61.0902L177.895 57.8785H178.616L180.85 62.5564ZM196.531 62.5564C195.647 63.4873 194.623 64.2398 193.459 64.8138C192.295 65.3879 191.178 65.6749 190.108 65.6749C189.441 65.6749 188.75 65.5198 188.036 65.2095C187.338 64.8992 186.679 64.3484 186.058 63.5571C185.345 62.6262 184.84 61.6022 184.545 60.4851C184.251 59.3525 184.103 57.8475 184.103 55.9702V32.744L184.592 32.2553L189.549 34.1171V58.0415C189.549 59.5154 189.619 60.5316 189.759 61.0902C189.898 61.6487 190.069 61.928 190.271 61.928C190.395 61.928 190.527 61.8504 190.666 61.6953C190.821 61.5401 190.977 61.3384 191.132 61.0902L193.575 57.8785H194.297L196.531 62.5564ZM220.248 64.6509C219.317 65.0388 218.331 65.3181 217.292 65.4887C216.268 65.6749 215.321 65.768 214.453 65.768C211.551 65.768 209.201 64.8293 207.401 62.952C205.601 61.0592 204.461 58.4604 203.98 55.1556C203.825 55.1712 203.67 55.1789 203.514 55.1789C203.375 55.1789 203.227 55.1789 203.072 55.1789C201.459 55.1789 200.14 54.9229 199.116 54.4109C198.107 53.8989 197.603 53.1076 197.603 52.0371C197.603 51.5716 197.704 51.0441 197.906 50.4545C198.123 49.865 198.449 49.2288 198.883 48.5462L199.302 47.8945C199.768 47.1653 200.272 46.599 200.815 46.1956C201.358 45.7767 201.963 45.5673 202.63 45.5673C203.344 45.5673 203.972 45.8698 204.515 46.4749C205.058 47.08 205.493 48.1505 205.818 49.6865C207.029 49.3918 208.115 48.9573 209.077 48.3833C210.054 47.7937 210.876 47.1188 211.544 46.3585C212.211 45.5828 212.723 44.745 213.08 43.8451C213.436 42.9452 213.615 42.0298 213.615 41.0989C213.615 39.7491 213.25 38.6785 212.521 37.8873C211.792 37.0805 210.737 36.6771 209.356 36.6771C208.161 36.6771 206.974 36.9719 205.795 37.5615C204.616 38.1355 203.584 38.857 202.7 39.7258H202.002L198.767 35.1411C199.76 34.2878 200.954 33.5973 202.351 33.0698C203.763 32.5423 205.19 32.2785 206.633 32.2785C208.216 32.2785 209.674 32.5811 211.008 33.1862C212.343 33.7758 213.498 34.5205 214.476 35.4204C215.577 36.3978 216.508 37.577 217.269 38.9578C218.044 40.3232 218.432 41.8204 218.432 43.4495C218.432 44.1942 218.347 44.9079 218.176 45.5905C218.006 46.2732 217.765 46.9248 217.455 47.5455C217.827 47.7006 218.207 47.8247 218.595 47.9178C218.983 48.0109 219.355 48.0575 219.712 48.0575C220.829 48.0575 221.962 47.6618 223.11 46.8705C224.258 46.0793 225.189 44.9699 225.903 43.5425H226.601L229.65 47.6851C228.781 49.0659 227.602 50.152 226.112 50.9433C224.623 51.7345 223.11 52.1302 221.574 52.1302C220.426 52.1302 219.394 51.913 218.479 51.4785C217.579 51.0441 216.749 50.4545 215.989 49.7098C214.872 51.0131 213.475 52.0992 211.8 52.968C210.124 53.8368 208.402 54.4497 206.633 54.8065C206.974 55.9236 207.409 56.8545 207.936 57.5993C208.479 58.3285 209.069 58.9103 209.705 59.3447C210.341 59.7792 211.016 60.0817 211.73 60.2524C212.443 60.423 213.142 60.5084 213.824 60.5084C214.616 60.5084 215.446 60.4075 216.314 60.2058C217.199 60.0041 218.013 59.7404 218.758 59.4145L220.55 63.976L220.248 64.6509ZM236.888 62.5564C236.003 63.4873 234.979 64.2398 233.816 64.8138C232.652 65.3879 231.535 65.6749 230.464 65.6749C229.797 65.6749 229.107 65.5198 228.393 65.2095C227.695 64.8992 227.035 64.3484 226.415 63.5571C225.701 62.6262 225.197 61.6022 224.902 60.4851C224.607 59.3525 224.46 57.8475 224.46 55.9702V32.744L224.949 32.2553L229.906 34.1171V58.0415C229.906 59.5154 229.976 60.5316 230.115 61.0902C230.255 61.6487 230.425 61.928 230.627 61.928C230.751 61.928 230.883 61.8504 231.023 61.6953C231.178 61.5401 231.333 61.3384 231.488 61.0902L233.932 57.8785H234.653L236.888 62.5564Z" fill="#01579B"/>
</svg>
