<svg width="400" height="100" viewBox="0 0 400 100" fill="none" xmlns="http://www.w3.org/2000/svg">
<path d="M0 0H319.471L400 100H0V0Z" fill="black"/>
<path d="M0 0H319.471L400 100H0V0Z" fill="black"/>
<path d="M103.062 68.2891L89.2812 35.5234L94.0859 33.3906L104.703 60.5312C105.438 58.9688 106.156 57.4375 106.859 55.9375C107.156 55.3125 107.461 54.6562 107.773 53.9688C108.102 53.2812 108.414 52.6094 108.711 51.9531C109.023 51.2969 109.32 50.6641 109.602 50.0547C109.898 49.4453 110.164 48.8984 110.398 48.4141C110.852 47.4609 111.25 46.5 111.594 45.5312C111.953 44.5469 112.133 43.5078 112.133 42.4141C112.133 41.5703 112.016 40.7734 111.781 40.0234C111.547 39.2734 111.219 38.5625 110.797 37.8906C110.391 37.2031 109.898 36.5625 109.32 35.9688C108.742 35.3594 108.109 34.7891 107.422 34.2578L111.359 29.8516C112.016 30.2734 112.609 30.7969 113.141 31.4219C113.672 32.0469 114.125 32.7188 114.5 33.4375C114.875 34.1562 115.164 34.8984 115.367 35.6641C115.586 36.4297 115.695 37.1641 115.695 37.8672C115.695 39.2422 115.469 40.5859 115.016 41.8984C114.578 43.1953 114.062 44.4609 113.469 45.6953C113.016 46.6172 112.523 47.6484 111.992 48.7891C111.461 49.9297 110.906 51.1172 110.328 52.3516C109.766 53.5703 109.188 54.8125 108.594 56.0781C108.016 57.3438 107.461 58.5703 106.93 59.7578C105.664 62.5391 104.375 65.3828 103.062 68.2891ZM125.82 65.9922L120.969 67.7266V34.1641L125.82 32.4297V65.9922ZM155.211 38.1016L151.273 42.8594C150.93 41.8281 150.484 40.8438 149.938 39.9062C149.391 38.9688 148.742 38.1484 147.992 37.4453C147.242 36.7422 146.391 36.1797 145.438 35.7578C144.484 35.3359 143.422 35.125 142.25 35.125C141.406 35.125 140.625 35.2812 139.906 35.5938C139.188 35.8906 138.555 36.3125 138.008 36.8594C137.477 37.3906 137.055 38.0234 136.742 38.7578C136.445 39.4922 136.297 40.2812 136.297 41.125C136.297 42 136.461 42.8203 136.789 43.5859C137.117 44.3516 137.555 45.0469 138.102 45.6719C138.648 46.2812 139.273 46.8125 139.977 47.2656C140.695 47.7188 141.438 48.0703 142.203 48.3203C142.969 48.5859 143.773 48.8828 144.617 49.2109C145.461 49.5391 146.289 49.9219 147.102 50.3594C147.914 50.7969 148.688 51.2891 149.422 51.8359C150.156 52.3672 150.805 52.9688 151.367 53.6406C151.93 54.3125 152.375 55.0625 152.703 55.8906C153.031 56.7031 153.195 57.5938 153.195 58.5625C153.195 59.9688 152.883 61.2344 152.258 62.3594C151.648 63.4688 150.844 64.4062 149.844 65.1719C148.844 65.9375 147.695 66.5234 146.398 66.9297C145.117 67.3359 143.812 67.5391 142.484 67.5391C141.578 67.5391 140.656 67.4062 139.719 67.1406C138.797 66.875 137.906 66.5156 137.047 66.0625C136.203 65.5938 135.406 65.0547 134.656 64.4453C133.922 63.8359 133.281 63.1797 132.734 62.4766L136.531 58.1172C136.766 58.8672 137.172 59.6641 137.75 60.5078C138.344 61.3516 139.031 62.1328 139.812 62.8516C140.594 63.5703 141.43 64.1719 142.32 64.6562C143.227 65.125 144.102 65.3594 144.945 65.3594C145.43 65.3594 145.93 65.2344 146.445 64.9844C146.961 64.7344 147.43 64.4141 147.852 64.0234C148.289 63.6172 148.648 63.1797 148.93 62.7109C149.211 62.2422 149.352 61.7812 149.352 61.3281C149.352 60.6406 149.211 59.9922 148.93 59.3828C148.648 58.7578 148.273 58.1719 147.805 57.625C147.352 57.0781 146.82 56.5781 146.211 56.125C145.617 55.6562 144.992 55.2422 144.336 54.8828C143.695 54.5078 143.047 54.1875 142.391 53.9219C141.75 53.6406 141.156 53.4219 140.609 53.2656C139.531 52.9375 138.477 52.4688 137.445 51.8594C136.43 51.25 135.523 50.5156 134.727 49.6562C133.93 48.7969 133.289 47.8359 132.805 46.7734C132.32 45.6953 132.078 44.5469 132.078 43.3281C132.078 42.2812 132.242 41.2891 132.57 40.3516C132.898 39.4141 133.352 38.5469 133.93 37.75C134.508 36.9531 135.188 36.2344 135.969 35.5938C136.75 34.9375 137.594 34.3906 138.5 33.9531C139.406 33.5 140.352 33.1562 141.336 32.9219C142.32 32.6719 143.312 32.5469 144.312 32.5469C146.5 32.5469 148.531 33.0391 150.406 34.0234C152.281 34.9922 153.883 36.3516 155.211 38.1016ZM170.234 68.2891L156.453 35.5234L161.258 33.3906L171.875 60.5312C172.609 58.9688 173.328 57.4375 174.031 55.9375C174.328 55.3125 174.633 54.6562 174.945 53.9688C175.273 53.2812 175.586 52.6094 175.883 51.9531C176.195 51.2969 176.492 50.6641 176.773 50.0547C177.07 49.4453 177.336 48.8984 177.57 48.4141C178.023 47.4609 178.422 46.5 178.766 45.5312C179.125 44.5469 179.305 43.5078 179.305 42.4141C179.305 41.5703 179.188 40.7734 178.953 40.0234C178.719 39.2734 178.391 38.5625 177.969 37.8906C177.562 37.2031 177.07 36.5625 176.492 35.9688C175.914 35.3594 175.281 34.7891 174.594 34.2578L178.531 29.8516C179.188 30.2734 179.781 30.7969 180.312 31.4219C180.844 32.0469 181.297 32.7188 181.672 33.4375C182.047 34.1562 182.336 34.8984 182.539 35.6641C182.758 36.4297 182.867 37.1641 182.867 37.8672C182.867 39.2422 182.641 40.5859 182.188 41.8984C181.75 43.1953 181.234 44.4609 180.641 45.6953C180.188 46.6172 179.695 47.6484 179.164 48.7891C178.633 49.9297 178.078 51.1172 177.5 52.3516C176.938 53.5703 176.359 54.8125 175.766 56.0781C175.188 57.3438 174.633 58.5703 174.102 59.7578C172.836 62.5391 171.547 65.3828 170.234 68.2891ZM215.445 63.7891C215.211 64.2422 214.914 64.6797 214.555 65.1016C214.211 65.5234 213.812 65.8984 213.359 66.2266C212.922 66.5391 212.453 66.7969 211.953 67C211.453 67.1875 210.938 67.2812 210.406 67.2812C209.531 67.2812 208.766 67.1172 208.109 66.7891C207.469 66.4609 206.922 66.0234 206.469 65.4766C206.031 64.9141 205.703 64.2734 205.484 63.5547C205.266 62.8359 205.156 62.0781 205.156 61.2812V52.2109C204.938 53.2109 204.688 54.2891 204.406 55.4453C204.125 56.5859 203.781 57.7266 203.375 58.8672C202.969 59.9922 202.492 61.0781 201.945 62.125C201.398 63.1719 200.75 64.1016 200 64.9141C199.266 65.7109 198.422 66.3516 197.469 66.8359C196.516 67.3047 195.43 67.5391 194.211 67.5391C192.727 67.5391 191.398 67.2578 190.227 66.6953C189.055 66.1328 188.055 65.3594 187.227 64.375C186.414 63.3906 185.789 62.2266 185.352 60.8828C184.93 59.5234 184.719 58.0547 184.719 56.4766C184.719 54.6016 185.016 52.7266 185.609 50.8516C186.203 48.9609 187.016 47.1484 188.047 45.4141C189.094 43.6797 190.328 42.0703 191.75 40.5859C193.188 39.1016 194.75 37.8125 196.438 36.7188C198.125 35.625 199.898 34.7734 201.758 34.1641C203.633 33.5547 205.523 33.2656 207.43 33.2969H207.711V34.3516C206.07 34.4297 204.492 34.7891 202.977 35.4297C201.461 36.0547 200.039 36.8828 198.711 37.9141C197.398 38.9297 196.195 40.1094 195.102 41.4531C194.008 42.7969 193.07 44.2266 192.289 45.7422C191.523 47.2578 190.922 48.8203 190.484 50.4297C190.062 52.0391 189.852 53.625 189.852 55.1875C189.852 55.7969 189.891 56.4531 189.969 57.1562C190.047 57.8438 190.18 58.5391 190.367 59.2422C190.555 59.9297 190.797 60.5938 191.094 61.2344C191.391 61.8594 191.758 62.4219 192.195 62.9219C192.648 63.4062 193.172 63.7969 193.766 64.0938C194.359 64.375 195.039 64.5156 195.805 64.5156C196.727 64.5156 197.562 64.2344 198.312 63.6719C199.062 63.1094 199.742 62.3516 200.352 61.3984C200.961 60.4453 201.5 59.3359 201.969 58.0703C202.453 56.8047 202.875 55.4688 203.234 54.0625C203.594 52.6562 203.891 51.2266 204.125 49.7734C204.375 48.3047 204.57 46.8984 204.711 45.5547C204.867 44.2109 204.977 42.9688 205.039 41.8281C205.117 40.6719 205.156 39.7031 205.156 38.9219L210.008 37.1406V62.0547C210.008 62.3672 210.039 62.6797 210.102 62.9922C210.164 63.3047 210.273 63.5938 210.43 63.8594C210.586 64.1094 210.781 64.3125 211.016 64.4688C211.266 64.625 211.57 64.7031 211.93 64.7031C212.477 64.7031 212.992 64.5391 213.477 64.2109C213.961 63.8828 214.359 63.5156 214.672 63.1094L215.445 63.7891ZM240.336 38.1016L236.398 42.8594C236.055 41.8281 235.609 40.8438 235.062 39.9062C234.516 38.9688 233.867 38.1484 233.117 37.4453C232.367 36.7422 231.516 36.1797 230.562 35.7578C229.609 35.3359 228.547 35.125 227.375 35.125C226.531 35.125 225.75 35.2812 225.031 35.5938C224.312 35.8906 223.68 36.3125 223.133 36.8594C222.602 37.3906 222.18 38.0234 221.867 38.7578C221.57 39.4922 221.422 40.2812 221.422 41.125C221.422 42 221.586 42.8203 221.914 43.5859C222.242 44.3516 222.68 45.0469 223.227 45.6719C223.773 46.2812 224.398 46.8125 225.102 47.2656C225.82 47.7188 226.562 48.0703 227.328 48.3203C228.094 48.5859 228.898 48.8828 229.742 49.2109C230.586 49.5391 231.414 49.9219 232.227 50.3594C233.039 50.7969 233.812 51.2891 234.547 51.8359C235.281 52.3672 235.93 52.9688 236.492 53.6406C237.055 54.3125 237.5 55.0625 237.828 55.8906C238.156 56.7031 238.32 57.5938 238.32 58.5625C238.32 59.9688 238.008 61.2344 237.383 62.3594C236.773 63.4688 235.969 64.4062 234.969 65.1719C233.969 65.9375 232.82 66.5234 231.523 66.9297C230.242 67.3359 228.938 67.5391 227.609 67.5391C226.703 67.5391 225.781 67.4062 224.844 67.1406C223.922 66.875 223.031 66.5156 222.172 66.0625C221.328 65.5938 220.531 65.0547 219.781 64.4453C219.047 63.8359 218.406 63.1797 217.859 62.4766L221.656 58.1172C221.891 58.8672 222.297 59.6641 222.875 60.5078C223.469 61.3516 224.156 62.1328 224.938 62.8516C225.719 63.5703 226.555 64.1719 227.445 64.6562C228.352 65.125 229.227 65.3594 230.07 65.3594C230.555 65.3594 231.055 65.2344 231.57 64.9844C232.086 64.7344 232.555 64.4141 232.977 64.0234C233.414 63.6172 233.773 63.1797 234.055 62.7109C234.336 62.2422 234.477 61.7812 234.477 61.3281C234.477 60.6406 234.336 59.9922 234.055 59.3828C233.773 58.7578 233.398 58.1719 232.93 57.625C232.477 57.0781 231.945 56.5781 231.336 56.125C230.742 55.6562 230.117 55.2422 229.461 54.8828C228.82 54.5078 228.172 54.1875 227.516 53.9219C226.875 53.6406 226.281 53.4219 225.734 53.2656C224.656 52.9375 223.602 52.4688 222.57 51.8594C221.555 51.25 220.648 50.5156 219.852 49.6562C219.055 48.7969 218.414 47.8359 217.93 46.7734C217.445 45.6953 217.203 44.5469 217.203 43.3281C217.203 42.2812 217.367 41.2891 217.695 40.3516C218.023 39.4141 218.477 38.5469 219.055 37.75C219.633 36.9531 220.312 36.2344 221.094 35.5938C221.875 34.9375 222.719 34.3906 223.625 33.9531C224.531 33.5 225.477 33.1562 226.461 32.9219C227.445 32.6719 228.438 32.5469 229.438 32.5469C231.625 32.5469 233.656 33.0391 235.531 34.0234C237.406 34.9922 239.008 36.3516 240.336 38.1016Z" fill="#01579B"/>
</svg>
